<?xml version="1.0" encoding="utf-8"?>
<!-- Generator: Adobe Illustrator 26.0.3, SVG Export Plug-In . SVG Version: 6.00 Build 0)  -->
<svg version="1.1" id="Layer_1" xmlns="http://www.w3.org/2000/svg" xmlns:xlink="http://www.w3.org/1999/xlink" x="0px" y="0px"
	 width="543.1px" height="199px" viewBox="0 0 543.1 199" style="enable-background:new 0 0 543.1 199;" xml:space="preserve">
<style type="text/css">
	.st0{fill:#4A4B4B;}
	.st1{fill:#005CB9;}
	.st2{fill:#000002;}
</style>
<path class="st0" d="M90.2,0h452.9v199H0V90.5c0.1-0.6,0.2-1.2,0.2-1.9c0.3-2.8,0.4-5.7,0.8-8.5C2.9,67,7.6,54.5,14.8,43.4
	C31.6,18.1,55.1,3.7,85.4,0.5C87,0.3,88.6,0.2,90.2,0z M271.5,196.6h267.4c1.9,0,1.9,0,1.9-1.8V4.2c0-1.7,0-1.7-1.8-1.7H95.3
	c-5.6,0-11.3,0.4-16.8,1.3C59.7,6.9,42.3,15.9,29,29.6C11.2,47.7,2.5,69.7,2.4,95.1c0,33.2,0,66.5,0,99.7c0,1.8,0,1.8,1.8,1.8
	L271.5,196.6z"/>
<path class="st1" d="M25.5,172.3v-1.4c0-24.8-0.2-49.6,0.1-74.4c0.2-21.8,8.8-40,24.9-54.7C60.8,32.3,73.8,26,87.7,23.9
	c26.5-4,49.1,3.8,67.5,23.3c10.1,10.5,16.6,24,18.6,38.5c3.9,27.3-4.5,50.3-25.1,68.6c-9.8,8.7-21.8,14.4-34.7,16.7
	c-4.2,0.8-8.4,1.2-12.6,1.2c-24.8,0.1-49.7,0.1-74.5,0.1L25.5,172.3z M55.2,118.6V141c0,1.6,0,1.6,1.7,1.6c14.5,0,29,0.1,43.4-0.1
	c3.5,0,7.1-0.5,10.5-1.3c23.8-5.7,38.6-29.4,33.3-53.3c-5.1-24.5-30.2-40.2-54.6-34.2c-20.2,4.9-34.4,23-34.4,43.8
	C55.1,104.6,55.2,111.6,55.2,118.6z"/>
<path class="st0" d="M226.5,60.7c0-0.8,0.1-1.2,0.1-1.6c0-6.6,0-13.2,0-19.8c0-1.9,0.2-2.1,2.1-2.1c1.6,0,3.1,0,4.7,0
	s1.7,0.3,1.7,1.8c0,5.2,0,10.5,0,15.7v18.7c0,2.1-0.2,2.3-2.4,2.3c-1.2,0-2.4,0-3.6,0c-1.2,0-2.3-0.5-3-1.5
	c-5.2-7-10.4-13.9-15.6-20.8c-0.2-0.3-0.4-0.5-0.9-1.1c0,0.7-0.1,1.1-0.1,1.5v19.7c0,2-0.2,2.2-2.3,2.3c-1.5,0-3,0-4.4,0
	s-1.8-0.3-1.9-1.8c0-0.3,0-0.6,0-1V40c0-0.4,0-0.7,0-1.1c0.1-1.4,0.4-1.7,1.8-1.8s2.9,0,4.3,0c1.1-0.1,2.2,0.5,2.8,1.4
	c5.1,6.9,10.3,13.9,15.4,20.8C225.7,59.7,226,60.1,226.5,60.7z"/>
<path class="st0" d="M306,44.1v8.4c0.5,0,1,0.1,1.5,0.1c3.6,0,7.2,0,10.8,0c1.7,0,1.9,0.3,2,2c0,1,0,1.9,0,2.9
	c0,1.9-0.2,2.2-2.1,2.2H306v8.9h14c1.8,0,2.1,0.3,2.1,2.1c0,1.1,0,2.2,0,3.2c0,1.4-0.4,1.8-1.8,1.8h-21.6c-0.7,0.1-1.4-0.4-1.5-1.2
	c0-0.1,0-0.2,0-0.3c0-0.3,0-0.6,0-1V39.3c0-2.1,0.2-2.3,2.4-2.3h20.8c1.6,0,1.9,0.3,1.8,1.9c-0.1,1.2-0.4,2.3-0.4,3.5
	c0,1.3-0.8,1.7-1.9,1.7c-1.5,0-3,0-4.4,0H306z"/>
<path class="st0" d="M279,36.2c3.5,0,6.9,0.7,10.1,2.1c1.4,0.6,1.5,0.9,1,2.3s-0.9,2.7-1.4,4s-0.7,1.4-2,0.8
	c-2.4-1.2-5.1-1.8-7.8-1.8c-3.4-0.1-6.6,2-7.8,5.2c-2.1,4.7-2.1,10.1,0,14.8c1.7,4,5.5,5.9,10,5.2c1.9-0.4,3.8-0.8,5.7-1.4
	c1.3-0.4,1.6-0.3,2,1s0.9,2.6,1.3,3.8c0.2,0.8,0.2,1.5-0.7,1.9c-5.7,2.2-11.5,3.1-17.5,1.3c-6.4-1.9-9.6-6.6-10.9-12.8
	c-1.3-5.3-0.8-10.9,1.3-16C265.6,39.5,271.4,36.3,279,36.2z"/>
<path class="st0" d="M244.1,56.3V39c0-1.8,0.2-2,2.1-2s3.4,0,5.2,0c1.1,0,1.5,0.5,1.5,1.5V74c0,1.1-0.5,1.6-1.6,1.6
	c-1.8,0-3.6,0-5.4,0c-1.5,0-1.8-0.3-1.8-1.8L244.1,56.3z"/>
<path class="st0" d="M505.9,59.2V48.5h2.8v26.9H506v-2.8c-0.2,0.1-0.4,0.2-0.6,0.4c-2.7,3.1-6.2,3.4-9.8,2.2s-5.5-4.2-6-8
	c-0.3-2.2,0-4.4,1-6.4c3-6.2,11.7-6.4,14.7-2.3C505.5,58.9,505.7,59,505.9,59.2z M499.4,58.5c-4.1,0-6.9,2.9-7,7.3s2.8,7.7,7,7.6
	c4,0,6.8-3,6.8-7.4S503.4,58.5,499.4,58.5z"/>
<path class="st0" d="M447.4,48.5v27.1h-2.6c-0.1-0.9-0.1-1.8-0.2-2.8c-4,4.8-10.9,3.4-13.5,0.6c-3.6-3.8-3.8-10.6-0.3-14.5
	c3.7-3.8,9.7-3.9,13.5-0.2c0.1,0.1,0.3,0.2,0.4,0.4c0-2,0-4,0-5.9c0-1.1,0-2.2,0-3.4c-0.1-0.9,0.2-1.4,1.2-1.2
	C446.2,48.5,446.7,48.5,447.4,48.5z M444.8,65.9c0-3.5-1.8-6.2-4.6-7.2c-4.6-1.5-8.9,1.6-9.2,6.5c-0.2,3.6,1.6,6.7,4.6,7.8
	C440.5,74.7,444.8,71.4,444.8,65.9z"/>
<path class="st0" d="M487.4,70.1c-1.3,3-3.3,4.8-6.3,5.5c-5.2,1.2-10.1-1.3-11.7-6.1c-0.9-2.6-0.9-5.4,0.2-8
	c1.7-4.1,6.1-6.4,10.5-5.6c4.3,0.6,7.5,4.1,7.8,8.5c0.2,3.1,0.2,2.5-2.3,2.5c-4.1,0-8.2,0-12.2,0h-1.6c0,0.5,0.1,0.9,0.2,1.4
	c0.6,2.5,2.6,4.4,5.1,4.8c2.8,0.6,5.2,0,7-2.5c0.2-0.3,0.5-0.5,0.8-0.5C485.6,70.1,486.5,70.1,487.4,70.1z M471.9,64.2h13.1
	c-0.7-4-3.5-6.1-7.6-5.7C474.5,58.8,472.1,61.3,471.9,64.2z"/>
<path class="st0" d="M426.1,70.1c-1,2.8-3.4,4.9-6.3,5.5c-5.3,1.2-10.3-1.5-11.8-6.4c-0.7-2.4-0.7-5,0.2-7.3
	c1.5-4.2,5.3-6.4,10.2-5.9c4.1,0.4,7.5,3.6,8.1,7.7c0.2,1,0.2,2.1,0.3,3.3h-16.2c-0.3,2.8,2.3,5.8,5.3,6.3s5.2-0.1,6.9-2.7
	c0.2-0.2,0.5-0.4,0.8-0.4C424.3,70.1,425.1,70.1,426.1,70.1z M423.6,64.3c-0.2-3.2-2.8-5.7-6-5.8c-3.9-0.2-6.7,2.2-7.1,5.8H423.6z"
	/>
<path class="st0" d="M349.2,59.4v-3.1h2.8v19.2h-2.7v-2.8c-5,4-10.2,4.1-13.7,0.4c-3.6-4.1-3.7-10.2-0.1-14.4c1.8-1.9,4.4-3,7-2.9
	C345.2,55.9,347.7,57.2,349.2,59.4z M335.7,65.8c0,3.9,2.2,6.9,5.5,7.5c5,0.8,8.7-2.9,8.2-8c-0.3-3-1.5-5.5-4.6-6.5
	C340,57.2,335.7,60.6,335.7,65.8z"/>
<path class="st0" d="M373.6,69.6c-1.1,4.3-5.5,6.8-10.7,6.2c-4.5-0.6-7.8-4.7-7.9-9.7s3.1-9.3,7.9-10.1s9.4,1.8,10.6,6.2
	c-0.9,0-1.7,0-2.5,0c-0.3-0.1-0.6-0.2-0.7-0.5c-1.5-2.7-3.9-3.6-6.8-3.1c-2.7,0.4-4.8,2.4-5.4,5c-1.3,4.2,0.9,8.5,4.9,9.6
	c2.8,1,5.9-0.2,7.3-2.8c0.3-0.3,0.7-0.6,1.1-0.6C372.2,69.6,372.9,69.6,373.6,69.6z"/>
<path class="st0" d="M393.8,62.2c-0.9,0-1.6,0-2.4,0c-0.3-0.1-0.6-0.3-0.8-0.5c-1.8-2.7-3.9-3.6-6.9-3.1c-2.7,0.6-4.9,2.7-5.4,5.4
	c-0.9,4.2,1.2,8.1,5,9.1c2.8,0.9,5.9-0.3,7.3-2.9c0.2-0.3,0.6-0.5,1-0.6c0.7-0.1,1.4-0.1,2.1,0c-0.5,3.7-4.8,6.4-9.5,6.2
	c-4.8-0.2-8.7-4-8.9-8.8c-0.4-5.9,2.7-10.2,7.8-11C388,55.2,392.6,57.8,393.8,62.2z"/>
<path class="st0" d="M463.6,56.2h4.4v2.5h-4.3v16.8h-2.8c0-0.5,0-1,0-1.5c0-4.7,0-9.4,0-14.1c0-0.9-0.3-1.3-1.2-1.2s-1.8,0-2.8,0
	v-2.5c0.9,0,1.7,0,2.6,0c1.2,0.1,1.5-0.3,1.4-1.5c-0.1-1.8,0-3.6,0-5.4h2.8L463.6,56.2z"/>
<path class="st0" d="M399.5,60.4c1.7-2.8,3.9-4.4,7.3-4.5v2.7c-5.2,1.2-7.2,3.7-7.2,9.1c0,2.6,0,5.2,0,7.8h-2.7V56.3h2.7V60.4z"/>
<path class="st0" d="M332.7,141.6c0-0.5,0.1-0.9,0.1-1.4h1.5v1.3c0,3-0.1,6,0,9c0.3,5-3.2,6.3-7.3,5.5c-1.5-0.3-2.8-1.5-3.1-3.1
	c0.6,0.2,1.4,0.2,1.8,0.6c1.4,1.3,3.3,1.7,5.1,1c1.4-0.5,2-1.7,1.9-3.8c0-0.3,0-0.6-0.1-0.9c-3.2,2.2-6.2,2.2-8.2-0.1
	c-1.9-2.4-1.9-5.8,0.1-8.1C326.6,139.4,329.7,139.4,332.7,141.6z M324.7,145.8c-0.1,2.3,1.6,4.2,3.9,4.3c2.3,0.1,4.2-1.6,4.3-3.9
	c0-0.2,0-0.4,0-0.6c0.1-2.3-1.6-4.2-3.9-4.3c-2.3-0.1-4.2,1.6-4.3,3.9C324.7,145.4,324.7,145.6,324.7,145.8z"/>
<path class="st0" d="M249.1,140.3c-1.1,3.6-2.2,7.1-3.4,10.7c-0.1,0.3-0.8,0.5-1.3,0.4c-0.4-0.1-0.8-0.3-1-0.7
	c-0.8-2.3-1.5-4.6-2.2-6.9c-0.1-0.4-0.2-0.7-0.5-1.4c-0.5,1.4-0.9,2.6-1.2,3.7c-0.5,1.6-1,3.2-1.5,4.8c-0.2,0.4-0.6,0.6-1,0.6
	c-0.4,0-1.1-0.2-1.2-0.5c-1.2-3.5-2.3-7.1-3.4-10.7c1.2-0.4,1.8-0.1,2.1,1.1c0.6,2.2,1.3,4.4,1.9,6.7c0.1,0.4,0.3,0.7,0.6,1
	c0.8-2.7,1.7-5.4,2.5-8.1c0.1-0.6,0.6-1,1.2-0.9c0,0,0,0,0,0c0.6-0.1,1.1,0.3,1.2,0.9c0.7,2.4,1.5,4.8,2.2,7.2
	c0.1,0.3,0.2,0.6,0.5,1.2c0.9-2.9,1.6-5.5,2.4-8.1C247.4,140.2,247.9,139.9,249.1,140.3z"/>
<path class="st0" d="M227.4,149.1c0.8-2.6,1.6-5.2,2.3-7.8c0.3-1.1,0.9-1.4,1.9-1.1c0,0.2,0,0.4-0.1,0.7c-1,3.2-2.1,6.5-3,9.7
	c-0.1,0.5-0.5,0.9-1.1,0.9c0,0-0.1,0-0.1,0c-0.7,0-1.1-0.1-1.3-0.9c-0.6-2.3-1.4-4.5-2.1-6.8c-0.1-0.4-0.3-0.8-0.6-1.5
	c-0.5,1.7-1,3.1-1.4,4.4c-0.4,1.2-0.8,2.4-1.1,3.6c-0.2,0.7-0.4,1.1-1.3,1.1s-1.1-0.3-1.3-1c-1-3.4-2.1-6.8-3.2-10.2
	c1.2-0.5,1.7-0.1,2,1c0.7,2.6,1.5,5.2,2.4,8.1c0.3-0.8,0.5-1.2,0.6-1.7c0.7-2.3,1.5-4.6,2.1-6.9c0.2-0.7,0.6-0.9,1.2-0.8
	c0.4,0.1,0.8,0.4,1.1,0.8c0.9,2.7,1.7,5.5,2.6,8.2L227.4,149.1z"/>
<path class="st0" d="M202.2,149.4c0.9-2.9,1.7-5.5,2.5-8.1c0.2-0.7,0.4-1.2,1.3-1.2s1.1,0.6,1.3,1.2c0.7,2.2,1.4,4.5,2.1,6.7
	c0.1,0.4,0.3,0.7,0.5,1.4c0.9-2.9,1.6-5.6,2.4-8.2c0.4-1.3,0.4-1.3,2-1c-0.7,2.4-1.5,4.8-2.2,7.2c-0.3,0.9-0.6,1.9-0.9,2.9
	c-0.2,0.7-0.4,1.2-1.3,1.2s-1.1-0.4-1.3-1.2c-0.8-2.6-1.6-5.1-2.7-7.7c-0.4,1.2-0.8,2.3-1.1,3.5c-0.5,1.6-0.9,3.1-1.5,4.7
	c-0.2,0.4-0.6,0.6-1,0.6c-0.4,0-1.1-0.3-1.2-0.6c-1.1-3.4-2.2-6.8-3.2-10.3c0-0.1,0-0.2,0-0.4c1-0.3,1.6-0.1,1.9,1
	c0.6,2.4,1.4,4.7,2.1,7.1C201.9,148.7,202,148.9,202.2,149.4z"/>
<path class="st0" d="M443.3,151.4l-0.2-1.6c-1.3,1.6-3.4,2.3-5.4,1.6c-1.2-0.4-2.3-1.1-3.1-2.1c-1.8-2.5-1.5-6,0.8-8.2
	c2.1-1.9,5.2-1.7,7.7,0.5c0.1-0.4,0.1-0.7,0.1-1.1c0-1.5,0-3,0-4.4c0.1-0.4,0.4-0.6,0.7-0.7c0.4,0.1,0.7,0.4,0.8,0.7
	c0,4.8,0,9.7,0,14.5C444.8,151.9,444,151.4,443.3,151.4z M435.1,145.8c-0.1,2.3,1.6,4.3,3.9,4.5c0.1,0,0.2,0,0.2,0
	c2.3,0,4.1-1.9,4.1-4.2c0-0.1,0-0.2,0-0.2c0-2.6-1.7-4.5-4.1-4.5c-2.3,0-4.2,1.9-4.2,4.2C435.1,145.7,435.1,145.7,435.1,145.8z"/>
<path class="st0" d="M431.9,146.4h-9.4c0,1.5,0.9,2.9,2.3,3.5c1.5,0.7,3.3,0.4,4.4-0.9c0.5-0.7,1.4-1,2.2-0.7
	c-0.8,2.6-3.6,3.9-6.5,3.1s-4.8-3.8-4.1-7.2c0.7-3,3.6-4.9,6.6-4.3C430.3,140.5,432.2,143.2,431.9,146.4z M430.1,144.9
	c-0.2-2.1-2-3.7-4.1-3.5c-1.9,0.1-3.4,1.6-3.5,3.5H430.1z"/>
<path class="st0" d="M295.6,148.4c-1.1,2.8-4,4-7,3c-2.9-1.1-4.5-4.4-3.5-7.4c0.7-2.9,3.7-4.7,6.7-4c2.9,0.6,4.8,3.5,4.2,6.4h-9.5
	c0.1,1.6,1.1,3,2.5,3.5c1.5,0.7,3.2,0.4,4.3-0.8C294.3,148.3,294.3,148.3,295.6,148.4z M294.4,144.9c-0.1-2-1.8-3.6-3.9-3.5
	c-2-0.1-3.7,1.5-3.8,3.5H294.4z"/>
<path class="st0" d="M470.5,151.4h-1.4c0-0.5-0.1-0.9-0.1-1.6c-1.1,1.3-2.7,2-4.4,1.9c-1.7,0-3.2-0.9-4.2-2.2
	c-1.7-2.5-1.4-5.8,0.6-8c2-2.1,4.7-2,8,0.2l0.2-1.5h1.4L470.5,151.4z M469,145.8c0-2.6-1.6-4.4-4-4.5c-2.5,0.1-4.4,2.2-4.2,4.7
	c0.1,2.3,1.9,4.1,4.2,4.2C467.4,150.2,469,148.4,469,145.8L469,145.8z"/>
<path class="st0" d="M385.4,140.3v11.1H384c-0.1-0.4-0.1-0.9-0.3-1.5c-1.3,1.6-3.4,2.2-5.4,1.6c-1.1-0.3-2.1-1-2.9-1.9
	c-1.8-2.4-1.7-5.8,0.3-8.1c2-2.1,4.7-2.1,8,0C383.8,140.6,384,139.8,385.4,140.3z M375.8,145.8c0.2,2.3,2.2,4,4.4,3.8s4-2.2,3.8-4.4
	c-0.2-2.1-1.9-3.8-4.1-3.8c-2.3,0-4.2,1.9-4.1,4.2C375.8,145.6,375.8,145.7,375.8,145.8L375.8,145.8z"/>
<path class="st0" d="M451.8,56.3h2.6v19.2h-2.6V56.3z"/>
<path class="st0" d="M365,151.4c-1.1,0.2-1.9,0.2-2.6-0.8c-1-1.6-2.2-3.1-3.2-4.6c-2.5,1.2-2.5,3.2-2.3,5.5h-1.6v-15.8l1.5-0.1v9.9
	c1.6-1.4,3.2-2.8,4.6-4.3c0.8-0.8,1.9-1.2,3-0.8l-4.5,4.2L365,151.4z"/>
<path class="st0" d="M313.7,145.8c0,3.6-2.2,5.9-5.6,5.9s-5.6-2.3-5.6-5.8s2.2-5.9,5.6-5.9S313.7,142.3,313.7,145.8z M304,145.8
	c0,2.7,1.6,4.5,4,4.5s4-1.8,4-4.4s-1.6-4.5-4-4.5S304,143.1,304,145.8L304,145.8z"/>
<path class="st0" d="M490.9,151.7c-3.4,0-5.6-2.4-5.6-5.9s2.2-5.8,5.6-5.8c3-0.1,5.6,2.2,5.7,5.2c0,0.2,0,0.4,0,0.6
	C496.5,149.3,494.2,151.7,490.9,151.7z M494.9,145.9c0-2.6-1.7-4.5-4.1-4.5s-4,1.8-4,4.4s1.7,4.5,4.1,4.5c2.3,0,4.1-1.9,4-4.2
	C494.9,146,494.9,145.9,494.9,145.9L494.9,145.9z"/>
<path class="st0" d="M499.1,140.3c1.4-0.5,1.6,0.3,1.6,1.1c1-0.6,2-1,3.1-1.4c2.4-0.5,4.7,1.1,5.1,3.5c0.1,0.3,0.1,0.6,0.1,0.9
	c0.1,2.3,0,4.6,0,7l-1.6,0.1c0-1.3,0-2.5,0-3.6c0-1.2,0-2.4-0.1-3.6c-0.1-1.7-1.7-3-3.4-2.9c-1.8,0-3.3,1.5-3.3,3.3
	c-0.1,1.9-0.1,3.8,0,5.6c0,1.1-0.4,1.4-1.5,1.1L499.1,140.3z"/>
<path class="st0" d="M350.4,150.4c-1.2,0.6-2.4,1-3.7,1.2c-2.4,0.2-4.5-1.6-4.7-3.9c0,0,0-0.1,0-0.1c0-0.3,0-0.6,0-1v-6.4h1.6
	c0,2.2,0,4.4,0,6.6c-0.1,1.9,1.4,3.4,3.3,3.5c1.9,0.1,3.4-1.4,3.5-3.3c0-0.1,0-0.2,0-0.3v-6.5h1.5v11.2h-1.5
	C350.5,151,350.5,150.5,350.4,150.4z"/>
<path class="st0" d="M256.9,141.8c1-1.2,2.4-1.9,4-1.9c2.3,0,4.1,1.7,4.3,4c0.1,2.2,0.1,4.5,0,6.7c0,0.3-0.4,0.7-0.7,0.8
	c-0.6,0.2-0.8-0.3-0.8-0.9c0-2.1,0-4.2-0.1-6.4c-0.1-1.6-1.4-2.9-3-2.9c-1.6-0.1-3.1,0.9-3.6,2.5c-0.1,0.5-0.2,1.1-0.2,1.7
	c0,1.6,0,3.1,0,4.7c0,0.4,0,0.8,0,1.1c-1.5,0.3-1.5,0.3-1.5-1.1c0-3,0-5.9,0-8.9c0-0.4,0-0.7,0.1-1.1h1.5
	C256.8,140.7,256.8,141.1,256.9,141.8z"/>
<path class="st0" d="M398.8,143.8c-0.7-0.2-1.5-0.3-1.8-0.7c-0.9-1.4-2.7-2.1-4.3-1.6c-1.6,0.4-2.9,1.8-3.1,3.5
	c-0.6,3.2,2.2,6,5.2,5.1c0.7-0.2,1.3-0.6,1.7-1.2c0.4-0.8,1.3-1.1,2.1-0.8c-0.3,2.2-2.6,3.6-5.6,3.5c-2.9-0.2-5.1-2.6-5.2-5.4
	c-0.3-2.9,1.6-5.6,4.5-6.2C395.2,139.4,398,141,398.8,143.8z"/>
<path class="st0" d="M411.1,143.8c-0.6-0.3-1.3-0.4-1.7-0.8c-1.3-1.8-3.8-2.1-5.6-0.8c-0.4,0.3-0.7,0.6-0.9,1
	c-1.4,2.1-0.9,4.9,1.1,6.3c0.5,0.3,1.1,0.6,1.7,0.7c1.3,0.3,2.7-0.2,3.5-1.3c0.4-0.8,1.3-1.1,2.1-0.7c-0.7,2.4-3,3.8-6.1,3.5
	c-2.7-0.3-4.7-2.7-4.7-5.7c-0.2-2.8,1.7-5.3,4.4-5.9c2.7-0.7,5.4,0.8,6.4,3.4L411.1,143.8z"/>
<path class="st0" d="M283.1,148.2c-0.9,2.6-3.7,4.1-6.4,3.4c-2.8-0.6-4.7-3.2-4.4-6c0.1-3,2-5.3,4.7-5.6c3-0.3,5.4,1.1,6.1,3.8
	c-0.8-0.3-1.5-0.3-1.9-0.7c-1.5-1.7-3-2.2-4.9-1.4c-1.8,0.8-2.8,2.7-2.5,4.6c0.1,2.2,1.9,3.9,4.1,3.9c1.1,0.1,2.3-0.4,2.9-1.3
	C281.4,148.2,282.3,147.8,283.1,148.2z"/>
<path class="st0" d="M479.1,141.6h-2.6v4.7c0,1.3,0,2.6,0,4c0.1,1.1-0.3,1.5-1.6,1.1v-9.8h-2.3l-0.1-1.2c0.1-0.1,0.2-0.2,0.3-0.2
	c2.2-0.3,2.2-0.3,2.2-2.5v-1.6c1.1-0.3,1.7-0.2,1.6,1c0,0.3,0,0.6,0,0.8c0,2,0,2,1.9,2.2C479.5,140.2,479.2,140.8,479.1,141.6z"/>
<path class="st0" d="M454,141.6h-2.3c0-0.4-0.1-0.8-0.1-1.3l2.4-0.2v-4h1.6v4l2.6,0.2l0.1,1.3h-2.6v9.9H454V141.6z"/>
<path class="st0" d="M316.2,140.2h1.5c0,0.8,0.1,1.4,0.1,2.4c1.1-1.6,2.3-2.7,4.2-2.6v1.4c-3,0.7-4.2,2.3-4.3,5.4v4.6h-1.5V140.2z"
	/>
<path class="st0" d="M415.4,151.4h-1.5v-11.1c1.2-0.3,1.2-0.3,1.6,2.1c1-1.5,2.2-2.6,4.1-2.4v1.4c-2.9,0.6-4.2,2.1-4.3,5.1
	C415.3,148.2,415.4,149.8,415.4,151.4z"/>
<path class="st0" d="M372.8,136.1c-0.7,2.2-1.4,4.3-2,6.4c-0.9,2.9-1.9,5.8-2.8,8.8c-0.3,0.9-0.7,1.2-1.8,0.8
	c0.8-2.6,1.6-5.1,2.5-7.6c0.8-2.5,1.6-4.9,2.4-7.4C371.3,136.1,371.7,135.7,372.8,136.1z"/>
<path class="st0" d="M449.4,151.4H448v-11.2h1.4L449.4,151.4z"/>
<path class="st0" d="M482.8,140.3v11.1h-1.4v-11.1H482.8z"/>
<path class="st0" d="M268.4,140.2h1.4v11.2h-1.4V140.2z"/>
<path class="st0" d="M451.5,52.7v-3.5h2.9v3.5L451.5,52.7z"/>
<path class="st0" d="M252.4,149.4c0,0.3,0,0.5,0.1,0.7v1.3h-2v-2L252.4,149.4z"/>
<path class="st0" d="M298.2,149.4h1.9v1.9C298.2,151.9,298,151.7,298.2,149.4z"/>
<path class="st0" d="M337.2,151.4v-1.2c0-0.2,0-0.5,0.1-0.8h2v2L337.2,151.4z"/>
<path class="st0" d="M481.3,136c0.3,0,0.5,0,0.8,0s0.5,0,0.8,0v1.9C481.2,138.3,480.9,138,481.3,136z"/>
<path class="st0" d="M448,137.9v-2h1.4C449.9,137.8,449.7,138.1,448,137.9z"/>
<path class="st0" d="M269.9,135.8v2.3c-0.6-0.1-1.3,0-1.5-0.3c-0.3-0.5-0.3-1.1,0-1.6C268.6,135.9,269.3,135.9,269.9,135.8z"/>
<path class="st2" d="M100.7,122.4c-13.7,0-24.7-11.1-24.7-24.8c0-13.7,11.1-24.7,24.8-24.7s24.7,11.1,24.7,24.8c0,0,0,0,0,0
	C125.5,111.4,114.4,122.5,100.7,122.4C100.8,122.4,100.8,122.4,100.7,122.4z"/>
</svg>
