<!--?xml version="1.0" encoding="utf-8"?-->
<!-- Generator: Adobe Illustrator 26.1.0, SVG Export Plug-In . SVG Version: 6.00 Build 0)  -->
<svg version="1.1" id="Layer_1" xmlns="http://www.w3.org/2000/svg" xmlns:xlink="http://www.w3.org/1999/xlink" x="0px" y="0px" width="62.4px" height="62.4px" viewBox="0 0 62.4 62.4" style="" xml:space="preserve">
<style type="text/css">
	.st0{fill:#FFFFFF;}
	.st1{font-family:'Montserrat-Bold';}
	.st2{font-size:2.4707px;}
	.st3{font-size:2.4905px;}
	.st4{font-size:2.48px;}
	.st5{font-size:2.4765px;}
	.st6{font-size:2.4732px;}
	.st7{font-size:2.4763px;}
	.st8{font-size:2.4861px;}
	.st9{font-size:2.92px;}
	.st10{font-size:2.9131px;}
	.st11{font-size:2.925px;}
	.st12{font-size:2.9277px;}
	.st13{font-size:2.9156px;}
	.st14{font-size:2.9266px;}
	.st15{font-size:2.9261px;}
	.st16{font-size:2.9144px;}
	.st17{font-size:2.918px;}
	.st18{fill:none;stroke:#FFFFFF;stroke-width:0.73;}
	.st19{fill:#1D1D1B;}
</style>
<g>
	<text transform="matrix(0.5822 0.8131 -0.8131 0.5822 6.7547 46.7951)" class="st0 st1 st2">E</text>
	<text transform="matrix(0.6174 0.7867 -0.7867 0.6174 7.9949 48.485)" class="st0 st1 st3">S</text>
	<text transform="matrix(0.6901 0.7237 -0.7237 0.6901 9.2553 50.0549)" class="st0 st1 st4">T</text>
	<text transform="matrix(0.7237 0.6901 -0.6901 0.7237 10.5551 51.4251)" class="st0 st1 st4">.</text>
	<text transform="matrix(0.7867 0.6174 -0.6174 0.7867 12.1947 52.9451)" class="st0 st1 st3">1</text>
	<text transform="matrix(0.8131 0.5822 -0.5822 0.8131 13.2849 53.8452)" class="st0 st1 st2">9</text>
	<text transform="matrix(0.8412 0.5408 -0.5408 0.8412 14.9247 54.9945)" class="st0 st1 st5">2</text>
	<text transform="matrix(0.8898 0.4563 -0.4563 0.8898 16.5249 56.045)" class="st0 st1 st4">0</text>
	<text transform="matrix(0.9301 0.3673 -0.3673 0.9301 19.445 57.5051)" class="st0 st1 st4">-</text>
	<text transform="matrix(0.9627 0.2707 -0.2707 0.9627 21.8557 58.4451)" class="st0 st1 st6">H</text>
	<text transform="matrix(0.9743 0.2255 -0.2255 0.9743 24.215 59.095)" class="st0 st1 st4">E</text>
	<text transform="matrix(0.9915 0.1302 -0.1302 0.9915 26.284 59.5551)" class="st0 st1 st7">A</text>
	<text transform="matrix(0.9971 7.602294e-02 -7.602294e-02 0.9971 28.615 59.825)" class="st0 st1 st4">L</text>
	<text transform="matrix(0.9997 -2.530457e-02 2.530457e-02 0.9997 30.405 59.965)" class="st0 st1 st4">T</text>
	<text transform="matrix(0.9971 -7.602294e-02 7.602294e-02 0.9971 32.375 59.935)" class="st0 st1 st4">H</text>
	<text transform="matrix(0.9843 -0.1762 0.1762 0.9843 34.825 59.755)" class="st0 st1 st4">Y</text>
	<text transform="matrix(0.9627 -0.2707 0.2707 0.9627 38.0353 59.1656)" class="st0 st1 st6">S</text>
	<text transform="matrix(0.9477 -0.3192 0.3192 0.9477 39.9752 58.6051)" class="st0 st1 st8">K</text>
	<text transform="matrix(0.911 -0.4125 0.4125 0.911 42.1451 57.8452)" class="st0 st1 st4">I</text>
	<text transform="matrix(0.8898 -0.4563 0.4563 0.8898 43.2951 57.365)" class="st0 st1 st4">N</text>
	<text transform="matrix(0.8412 -0.5408 0.5408 0.8412 46.4548 55.6655)" class="st0 st1 st5">F</text>
	<text transform="matrix(0.7867 -0.6174 0.6174 0.7867 48.1547 54.5654)" class="st0 st1 st3">O</text>
	<text transform="matrix(0.7237 -0.6901 0.6901 0.7237 50.175 53.0052)" class="st0 st1 st4">R</text>
	<text transform="matrix(0.6549 -0.7557 0.7557 0.6549 52.6251 50.6355)" class="st0 st1 st4">A</text>
	<text transform="matrix(0.5822 -0.8131 0.8131 0.5822 54.1647 48.8647)" class="st0 st1 st2">L</text>
	<text transform="matrix(0.5408 -0.8412 0.8412 0.5408 55.3051 47.2952)" class="st0 st1 st5">L</text>
	<text transform="matrix(0.1139 -0.9935 0.9935 0.1139 4.4351 29.6154)" class="st0 st1 st9">B</text>
	<text transform="matrix(0.2132 -0.977 0.977 0.2132 4.675 27.1449)" class="st0 st1 st9">R</text>
	<text transform="matrix(0.2857 -0.9583 0.9583 0.2857 5.195 24.6848)" class="st0 st1 st9">I</text>
	<text transform="matrix(0.3328 -0.943 0.943 0.3328 5.5849 23.3149)" class="st0 st1 st9">T</text>
	<text transform="matrix(0.4013 -0.9159 0.9159 0.4013 6.315 21.2746)" class="st0 st1 st9">I</text>
	<text transform="matrix(0.4711 -0.8821 0.8821 0.4711 6.8147 20.0346)" class="st0 st1 st10">S</text>
	<text transform="matrix(0.5291 -0.8486 0.8486 0.5291 7.8353 18.0555)" class="st0 st1 st11">H</text>
	<text transform="matrix(0.6459 -0.7635 0.7635 0.6459 10.025 14.7848)" class="st0 st1 st9">A</text>
	<text transform="matrix(0.7154 -0.6987 0.6987 0.7154 11.6549 12.8652)" class="st0 st1 st9">S</text>
	<text transform="matrix(0.7779 -0.6283 0.6283 0.7779 13.1653 11.3448)" class="st0 st1 st12">S</text>
	<text transform="matrix(0.8216 -0.57 0.57 0.8216 14.8951 9.925)" class="st0 st1 st9">O</text>
	<text transform="matrix(0.8713 -0.4907 0.4907 0.8713 17.1548 8.376)" class="st0 st1 st13">C</text>
	<text transform="matrix(0.908 -0.4191 0.4191 0.908 19.3544 7.1754)" class="st0 st1 st14">I</text>
	<text transform="matrix(0.9345 -0.3559 0.3559 0.9345 20.555 6.595)" class="st0 st1 st9">A</text>
	<text transform="matrix(0.9652 -0.2617 0.2617 0.9652 22.785 5.7351)" class="st0 st1 st9">T</text>
	<text transform="matrix(0.977 -0.2132 0.2132 0.977 24.975 5.145)" class="st0 st1 st9">I</text>
	<text transform="matrix(0.9903 -0.139 0.139 0.9903 26.2651 4.855)" class="st0 st1 st9">O</text>
	<text transform="matrix(0.9993 -3.803900e-02 3.803900e-02 0.9993 28.955 4.495)" class="st0 st1 st9">N</text>
	<text transform="matrix(0.9935 0.1139 -0.1139 0.9935 32.855 4.435)" class="st0 st1 st9">O</text>
	<text transform="matrix(0.977 0.2132 -0.2132 0.977 35.555 4.735)" class="st0 st1 st9">F</text>
	<text transform="matrix(0.943 0.3328 -0.3328 0.943 38.9849 5.5451)" class="st0 st1 st9">D</text>
	<text transform="matrix(0.908 0.4191 -0.4191 0.908 41.5048 6.4539)" class="st0 st1 st14">E</text>
	<text transform="matrix(0.8606 0.5093 -0.5093 0.8606 43.5349 7.3849)" class="st0 st1 st9">R</text>
	<text transform="matrix(0.8083 0.5888 -0.5888 0.8083 45.6356 8.5853)" class="st0 st1 st15">M</text>
	<text transform="matrix(0.7479 0.6638 -0.6638 0.7479 48.105 10.4049)" class="st0 st1 st9">A</text>
	<text transform="matrix(0.6814 0.7319 -0.7319 0.6814 49.9149 12.005)" class="st0 st1 st9">T</text>
	<text transform="matrix(0.6112 0.7915 -0.7915 0.6112 51.3545 13.4748)" class="st0 st1 st16">O</text>
	<text transform="matrix(0.5502 0.835 -0.835 0.5502 53.0751 15.735)" class="st0 st1 st9">L</text>
	<text transform="matrix(0.4711 0.8821 -0.8821 0.4711 54.1953 17.3947)" class="st0 st1 st10">O</text>
	<text transform="matrix(0.3788 0.9255 -0.9255 0.3788 55.475 19.8049)" class="st0 st1 st9">G</text>
	<text transform="matrix(0.3102 0.9507 -0.9507 0.3102 56.4451 22.2351)" class="st0 st1 st17">I</text>
	<text transform="matrix(0.2377 0.9713 -0.9713 0.2377 56.8855 23.485)" class="st0 st1 st9">S</text>
	<text transform="matrix(0.1638 0.9865 -0.9865 0.1638 57.4153 25.615)" class="st0 st1 st9">T</text>
	<text transform="matrix(8.872039e-02 0.9961 -0.9961 8.872039e-02 57.7746 27.725)" class="st0 st1 st9">S</text>
	<path class="st18 owZGDajo_0" d="M62,31.2C62,48.2,48.2,62,31.2,62S0.4,48.2,0.4,31.2S14.2,0.4,31.2,0.4c0,0,0,0,0,0C48.2,0.4,62,14.2,62,31.2
		z"></path>
	<path class="st18 owZGDajo_1" d="M22.7,33.3L19.2,43l-0.6,1.5l-1.3,3.6c0.5-0.1,1-0.2,1.5-0.2c0.5,0,1,0.1,1.6,0.2c0.3-1.4,0.7-2.7,1.1-4
		c0.3-1.2,0.7-2.3,1-3.4s0.7-2.1,1-3.2c0-0.2,0-0.4,0-0.6C23.6,35.7,23.3,34.4,22.7,33.3z M39.8,44.6c0.4,1.2,0.7,2.4,1,3.6
		c0.8-0.1,1.5-0.2,2.3-0.2s1.5,0.1,2.3,0.2l-1.3-3.8c-1,0.1-2.1,0.2-3.2,0.2H39.8z M56,31.2C56,44.9,44.9,56,31.2,56
		C17.5,56,6.4,44.9,6.4,31.2S17.5,6.4,31.2,6.4c0,0,0,0,0,0C44.9,6.4,56,17.5,56,31.2C56,31.2,56,31.2,56,31.2z"></path>
	<path class="st19 owZGDajo_2" d="M23.5,37.3c-0.3,1-0.7,2.1-1,3.2C23.1,39.5,23.5,38.4,23.5,37.3"></path>
	<path class="st19 owZGDajo_3" d="M38.9,42.5h0.3c-0.1-0.3-0.2-0.6-0.3-0.9V42.5z"></path>
	<path class="st18 owZGDajo_4" d="M50,19.8c-2.4-2.8-5.2-2.4-8.1-2.4h-6.4v1.9l3.4,9.9V19c1.2,0,1.4-0.2,2.6-0.2c6.3,0,8.7,3,8.7,11.4
		c0,4.8-1,9.2-4,11.3c-0.8,0.6-1.7,0.9-2.6,1.1c-1.5,0.2-2.9,0.1-4.4-0.1H39v-0.9c-0.9-2.8-1.8-5.7-2.8-8.5h-0.6v11.2H41
		c1.1,0,2.1,0,3.2-0.2c2.1-0.2,4-1.2,5.3-2.8c2.1-2.6,3.5-6.2,3.5-11.7C53,25.9,52.1,22.2,50,19.8z M25.7,30.8l4.8-14l4.9,14H25.7z
		 M38.9,29.1l-3.4-9.9l-3.4-9.7h-1l-7.6,21.1c1.1,0.5,1.9,1.4,2.5,2.5h10.1c1,2.8,2,5.7,2.8,8.5c0.1,0.3,0.2,0.6,0.3,0.9
		c1.5,0.2,2.9,0.2,4.4,0.1L38.9,29.1z M15.1,29.2V18.8h2.4c3.4,0,5.5,1.1,5.5,4.8c0.1,1.9-0.8,3.8-2.5,4.8
		C18.7,29.4,16.9,29.3,15.1,29.2L15.1,29.2z M26,33.1c-0.5-1.1-1.4-1.9-2.4-2.5c-0.9-0.5-1.9-0.7-2.9-0.8c3.1-0.9,5.2-3.8,5.1-7
		c0-4.1-2.5-5.4-7.2-5.4h-6.4v26.9h4.6c0.6,0,1.2,0,1.8,0l0.6-1.6c-0.3,0.1-0.7,0.1-1,0.1h-3.1V30.7h1.8c2.6,0,4.7,0.6,5.8,2.3
		c0.7,1.1,1,2.4,0.9,3.7c0,0.2,0,0.4,0,0.6c-0.1,1.1-0.4,2.2-1,3.2c-0.3,1.1-0.7,2.3-1,3.4c0.8-0.2,1.5-0.6,2.1-1.1
		c1.9-1.7,3-4.1,2.9-6.7C26.6,35,26.4,34,26,33.1z"></path>
</g>
<style data-made-with="vivus-instant">.owZGDajo_0{stroke-dasharray:194 196;stroke-dashoffset:195;animation:owZGDajo_draw 706ms ease-in-out 0ms forwards;}.owZGDajo_1{stroke-dasharray:207 209;stroke-dashoffset:208;animation:owZGDajo_draw 753ms ease-in-out 706ms forwards;}.owZGDajo_2{stroke-dasharray:7 9;stroke-dashoffset:8;animation:owZGDajo_draw 28ms ease-in-out 1460ms forwards;}.owZGDajo_3{stroke-dasharray:3 5;stroke-dashoffset:4;animation:owZGDajo_draw 14ms ease-in-out 1489ms forwards;}.owZGDajo_4{stroke-dasharray:412 414;stroke-dashoffset:413;animation:owZGDajo_draw 1496ms ease-in-out 1503ms forwards;}@keyframes owZGDajo_draw{100%{stroke-dashoffset:0;}}@keyframes owZGDajo_fade{0%{stroke-opacity:1;}94.44444444444444%{stroke-opacity:1;}100%{stroke-opacity:0;}}</style></svg>
