<svg xmlns="http://www.w3.org/2000/svg" viewBox="0 0 73.7 94.38"><g id="Layer_2" data-name="Layer 2"><g id="Layer_1-2" data-name="Layer 1"><path d="M70.94,24.64a6.12,6.12,0,0,1-.77.07c-.18,0-.33,0-.5-.05V86.38a4,4,0,0,1-4,4H8a4,4,0,0,1-4-4V8A4,4,0,0,1,8,4H53a5,5,0,0,1-2-4H8A8,8,0,0,0,0,8V86.38a8,8,0,0,0,8,8H65.66a8,8,0,0,0,8-8V26.2a4.4,4.4,0,0,1-2.72-1.56Z"/><path d="M71.66,28.25a0,0,0,0,1,0,0H51.27a2,2,0,0,1-2-2V2A2,2,0,0,1,50.58.12a2.06,2.06,0,0,1,2.26.61L73,24.73a2,2,0,0,1,.72,1.52,2,2,0,0,1-2,2Zm-18.35-4h14l-14-16.68Z"/><path d="M55.28,62.46H18.39a8,8,0,0,1-8-8V43.71a8,8,0,0,1,8-8H55.28a8,8,0,0,1,8,8V54.46A8,8,0,0,1,55.28,62.46ZM18.39,39.71a4,4,0,0,0-4,4V54.46a4,4,0,0,0,4,4H55.28a4,4,0,0,0,4-4V43.71a4,4,0,0,0-4-4Z"/><path d="M20,42.52c1.3,0,2.13,0,2.48,0a7.8,7.8,0,0,1,5.32,1.86,6.38,6.38,0,0,1,1.77,4.77,7.34,7.34,0,0,1-.8,3.52A5.51,5.51,0,0,1,26.39,55a8.39,8.39,0,0,1-3.93.84H18.13a.41.41,0,0,1-.47-.49V42.94a.47.47,0,0,1,.09-.33.48.48,0,0,1,.34-.09Zm1.27,2.79v7.78a.32.32,0,0,0,.05.2.27.27,0,0,0,.19.05h.23a4.17,4.17,0,0,0,3-1,4.41,4.41,0,0,0,1-3.23,4.5,4.5,0,0,0-.8-3,3.39,3.39,0,0,0-2.42-1.07l-1.1,0C21.35,45.06,21.29,45.15,21.29,45.31Z"/><path d="M33.38,55.23a5.49,5.49,0,0,1-2.2-2.37,8.81,8.81,0,0,1,0-7.27,5.65,5.65,0,0,1,2.21-2.4,6.95,6.95,0,0,1,6.66,0,5.65,5.65,0,0,1,2.21,2.4,8.79,8.79,0,0,1,0,7.26,5.6,5.6,0,0,1-2.2,2.37,6.5,6.5,0,0,1-3.34.84A6.62,6.62,0,0,1,33.38,55.23Zm5.28-2.68a6.76,6.76,0,0,0,.58-3.26,7.17,7.17,0,0,0-.6-3.39,2.25,2.25,0,0,0-3.82,0,7.17,7.17,0,0,0-.6,3.39,6.74,6.74,0,0,0,.59,3.26,2.1,2.1,0,0,0,1.95,1A2,2,0,0,0,38.66,52.55Z"/><path d="M52.7,42.86a5.23,5.23,0,0,1,1.95,1.45,4.63,4.63,0,0,1,1,2.08l0,.31a.24.24,0,0,1-.06.19.36.36,0,0,1-.2.06l-2.8.2q-.16,0-.21-.06a1.2,1.2,0,0,1-.1-.27c-.28-1.32-1-2-2.11-2-1.69,0-2.53,1.43-2.53,4.27a6.51,6.51,0,0,0,.63,3.29,2.09,2.09,0,0,0,1.9,1,2.85,2.85,0,0,0,1.72-.51,3.63,3.63,0,0,0,1.18-1.68.26.26,0,0,1,.27-.15l.18,0,2,.4a.48.48,0,0,1,.17.1.43.43,0,0,1,.06.26.9.9,0,0,1,0,.18,4.41,4.41,0,0,1-.8,1.65,5.83,5.83,0,0,1-4.9,2.38,6.07,6.07,0,0,1-3.29-.89,5.92,5.92,0,0,1-2.18-2.48,8.24,8.24,0,0,1-.76-3.63,7.84,7.84,0,0,1,.76-3.56,5.58,5.58,0,0,1,2.17-2.34,7,7,0,0,1,5.92-.3Z"/></g></g></svg>