<?xml version="1.0" encoding="utf-8"?>
<!-- Generator: Adobe Illustrator 26.2.1, SVG Export Plug-In . SVG Version: 6.00 Build 0)  -->
<svg version="1.1" id="Component_19_1" xmlns="http://www.w3.org/2000/svg" xmlns:xlink="http://www.w3.org/1999/xlink" x="0px"
	 y="0px" viewBox="0 0 91 91" style="enable-background:new 0 0 91 91;" xml:space="preserve">
<style type="text/css">
	.st0{fill:#1F335E;}
	.st1{fill:#FFFFFF;}
</style>
<rect x="-1.3" y="-0.8" class="st0" width="93.7" height="93.3"/>
<g>
	<path id="Path_1096" class="st1" d="M12.8,68.7l0.4-0.3l-0.7-0.9l0.4-0.3l0.8,1L14,68l-1.1-1.5l-2,1.4l1.1,1.5l0.4-0.3l-0.8-1.1
		l0.5-0.3L12.8,68.7z"/>
	<path id="Path_1097" class="st1" d="M14.9,69.7c0.1,0.2,0.2,0.4,0.3,0.7l0.4-0.1c0-0.3-0.2-0.6-0.4-0.8c-0.4-0.6-0.9-0.6-1.2-0.3
		c-0.7,0.6,0.4,1.5,0.1,1.8c-0.1,0.1-0.3,0.1-0.5-0.2c-0.2-0.2-0.3-0.5-0.3-0.8L12.8,70c0,0.4,0.2,0.7,0.4,1
		c0.4,0.6,0.9,0.6,1.3,0.4c0.7-0.6-0.4-1.5-0.1-1.8C14.5,69.4,14.7,69.4,14.9,69.7z"/>
	<path id="Path_1098" class="st1" d="M15.8,70.9l0.5,0.6l-1.5,1.4l0.4,0.4l1.5-1.4l0.5,0.6l0.3-0.3l-1.5-1.6L15.8,70.9z"/>
	<path id="Path_1099" class="st1" d="M16.5,74.1c-0.1,0.1-0.1,0.3,0,0.5c0,0,0,0,0,0c0.1,0.1,0.3,0.1,0.5,0c0,0,0,0,0,0
		c0.1-0.1,0.1-0.3,0-0.5c0,0,0,0,0,0C16.8,73.9,16.6,73.9,16.5,74.1C16.5,74.1,16.5,74.1,16.5,74.1z"/>
	<path id="Path_1100" class="st1" d="M20,74.4l-0.3,0.4l0.4,0.3l-1.2,1.6l0.5,0.4l1.5-1.9L20,74.4z"/>
	<path id="Path_1101" class="st1" d="M22.3,76.2c-0.3-0.3-0.9-0.3-1.2,0.1c0,0,0,0,0,0c-0.2,0.4-0.2,0.8,0.2,1.1c0,0,0,0,0,0
		c0.2,0.1,0.4,0.2,0.6,0.2c-0.2,0.3-0.6,0.4-0.9,0.2c0,0-0.1,0-0.1-0.1c-0.1-0.1-0.2-0.2-0.3-0.4l-0.4,0.2c0.1,0.2,0.3,0.4,0.5,0.5
		c0.5,0.4,1.3,0.3,1.7-0.2c0-0.1,0.1-0.1,0.1-0.2c0.4-0.4,0.4-1.1,0-1.5C22.4,76.3,22.4,76.2,22.3,76.2z M22.2,77.1
		c-0.1,0.2-0.4,0.2-0.5,0.1c0,0,0,0,0,0c-0.2-0.1-0.2-0.3-0.1-0.5c0,0,0,0,0,0c0.1-0.2,0.3-0.2,0.5-0.1c0,0,0,0,0,0
		C22.3,76.7,22.4,76.9,22.2,77.1C22.3,77.1,22.2,77.1,22.2,77.1z"/>
	<path id="Path_1102" class="st1" d="M24.5,77.7c-0.3-0.2-0.7-0.3-1.1-0.1l0.2,0.4c0.2-0.1,0.4,0,0.6,0.1c0.2,0.1,0.3,0.3,0.2,0.5
		c-0.1,0.1-0.2,0.2-0.5,0.2L22.7,79l-0.2,0.3l1.6,1l0.3-0.4l-0.9-0.6l0.8-0.1c0.3,0,0.6-0.2,0.8-0.4C25.2,78.4,25,78,24.5,77.7z"/>
	<path id="Path_1103" class="st1" d="M26.9,79.1c-0.6-0.3-1.2,0-1.5,0.5c0,0,0,0.1-0.1,0.1c-0.4,0.5-0.3,1.2,0.2,1.5
		c0,0,0.1,0.1,0.1,0.1c0.6,0.3,1.2,0,1.5-0.5c0,0,0-0.1,0.1-0.1c0.4-0.5,0.3-1.2-0.2-1.5C26.9,79.1,26.9,79.1,26.9,79.1z M26.7,80.4
		c-0.3,0.5-0.5,0.6-0.8,0.5c-0.3-0.1-0.3-0.4-0.1-0.9s0.5-0.6,0.8-0.5C26.9,79.7,27,79.9,26.7,80.4L26.7,80.4z"/>
	
		<rect id="Rectangle_345" x="29.6" y="81.7" transform="matrix(0.3678 -0.9299 0.9299 0.3678 -57.5807 79.6653)" class="st1" width="0.4" height="1"/>
	<path id="Path_1104" class="st1" d="M34.5,83.3L33.5,83l0.3-0.9l-0.5-0.2l-0.7,2.4l0.5,0.2l0.3-1l1.1,0.3l-0.3,1l0.5,0.2l0.7-2.4
		l-0.5-0.2L34.5,83.3z"/>
	<path id="Path_1105" class="st1" d="M35.9,85.2l1.9,0.4l0.1-0.4l-1.3-0.3l0.1-0.6l1.1,0.3l0.1-0.4l-1.1-0.3l0.1-0.5l1.3,0.3
		l0.1-0.4l-1.8-0.4L35.9,85.2z"/>
	<path id="Path_1106" class="st1" d="M39.9,83.5l-1.4,2.3l0.6,0.1l0.3-0.5l1.1,0.1l0.1,0.6l0.6,0.1l-0.8-2.6L39.9,83.5z M39.6,84.9
		l0.5-0.9l0.3,1L39.6,84.9z"/>
	<path id="Path_1107" class="st1" d="M42.9,83.7l-0.6,0l-0.2,2.5l1.8,0.1l0-0.5l-1.2-0.1L42.9,83.7z"/>
	<path id="Path_1108" class="st1" d="M46.5,83.8l-2.2,0.1l0,0.5l0.8,0l0,2l0.6,0l-0.1-2l0.8,0L46.5,83.8z"/>
	<path id="Path_1109" class="st1" d="M49,83.7l0.1,1l-1.1,0.1l-0.1-1l-0.6,0l0.2,2.5l0.6,0l-0.1-1l1.1-0.1l0.1,1l0.6,0l-0.2-2.5
		L49,83.7z"/>
	<path id="Path_1110" class="st1" d="M52.1,83.3l-0.5,1.2l-0.8-1l-0.6,0.1l1.2,1.4l0.2,0.9l0.6-0.1l-0.2-0.9l0.7-1.7L52.1,83.3z"/>
	<path id="Path_1111" class="st1" d="M55.4,83.3c0-0.1,0-0.3,0.4-0.4c0.2-0.1,0.5-0.1,0.7,0l0.1-0.5c-0.3-0.1-0.6-0.1-0.9,0
		c-0.7,0.2-0.9,0.6-0.8,1c0.2,0.9,1.5,0.2,1.7,0.6c0,0.1-0.1,0.3-0.4,0.4c-0.3,0.1-0.6,0.1-0.9,0L55.2,85c0.3,0.1,0.7,0.1,1,0
		c0.7-0.2,0.9-0.6,0.8-1C56.8,83.1,55.5,83.8,55.4,83.3z"/>
	<path id="Path_1112" class="st1" d="M59.6,81.2L59,81.4l-0.7,1.4L58,81.8L57.4,82l0.8,2.3l0.5-0.2l-0.2-0.6l0.2-0.4l1.1,0.7
		l0.6-0.2l-1.5-1L59.6,81.2z"/>
	<path id="Path_1113" class="st1" d="M60.3,81l1,2.3l0.5-0.2l-1-2.3L60.3,81z"/>
	<path id="Path_1114" class="st1" d="M63.3,79.5l0.7,1.3l-1.8-0.8l-0.4,0.2l1.1,2.2l0.5-0.3l-0.7-1.3l1.8,0.8l0.4-0.2l-1.1-2.2
		L63.3,79.5z"/>
	<path id="Path_1115" class="st1" d="M68.1,78l-1,0.6l-0.4-0.5l1.1-0.7L67.6,77l-1.6,1l1.3,2.1l0.5-0.3L67.4,79l1-0.6L68.1,78z"/>
	<path id="Path_1116" class="st1" d="M69.2,75.8c-0.6,0.4-0.7,1.2-0.3,1.8c0,0,0,0,0,0.1c0.4,0.6,1.2,0.7,1.8,0.2c0,0,0,0,0.1,0
		c0.6-0.4,0.7-1.2,0.3-1.8c0,0,0,0,0-0.1C70.6,75.4,69.8,75.3,69.2,75.8C69.2,75.7,69.2,75.8,69.2,75.8z M70.5,77.4
		c-0.3,0.3-0.8,0.2-1.1-0.1c0,0,0,0,0,0c-0.3-0.3-0.2-0.8,0.1-1.1c0,0,0,0,0,0c0.3-0.3,0.8-0.2,1.1,0.1c0,0,0,0,0,0
		C70.9,76.6,70.8,77.1,70.5,77.4C70.5,77.4,70.5,77.4,70.5,77.4L70.5,77.4z"/>
	<path id="Path_1117" class="st1" d="M73.1,73.6c-0.4-0.4-0.9-0.4-1.3,0c0,0-0.1,0.1-0.1,0.1l-0.8,0.7l1.7,1.8l0.4-0.4l-0.5-0.5
		L73,75l0,0l0.8,0.2l0.4-0.4l-1-0.2C73.4,74.2,73.4,73.9,73.1,73.6z M72.6,74.7L72.3,75l-0.6-0.6l0.3-0.3c0.3-0.2,0.5-0.2,0.7-0.1
		C72.9,74.2,72.9,74.5,72.6,74.7L72.6,74.7z"/>
	<path id="Path_1118" class="st1" d="M74.8,70.7l1.1,2.5l0.4-0.4L76,72.2l0.8-0.9l0.5,0.2l0.4-0.5l-2.6-0.8L74.8,70.7z M76.3,71.1
		l-0.5,0.6l-0.5-0.9L76.3,71.1z"/>
	<path id="Path_1119" class="st1" d="M78.2,69.6l-1.6-1.2l-0.3,0.5l2,1.4l1-1.5L79,68.6L78.2,69.6z"/>
	<path id="Path_1120" class="st1" d="M79.8,67.4l-1.7-1.1l-0.3,0.5l2.1,1.3l1-1.5l-0.4-0.2L79.8,67.4z"/>
	<path id="Path_1166" class="st1" d="M7,40.2c-0.3-0.1-0.6,0.1-0.8,0.4c-0.1-0.3-0.3-0.4-0.6-0.5c-0.4-0.1-0.8,0.3-0.9,1l-0.2,1.4
		l2.9,0.3l0.2-1.5C7.8,40.7,7.5,40.2,7,40.2z M5.9,42L5.2,42l0.1-0.7c0-0.3,0.2-0.5,0.4-0.5c0.2,0,0.3,0.2,0.3,0.5L5.9,42z
		 M7.1,42.2l-0.7-0.1l0.1-0.8c0-0.3,0.2-0.5,0.4-0.5c0.2,0,0.3,0.2,0.3,0.6L7.1,42.2z"/>
	<path id="Path_1167" class="st1" d="M6.6,36.6c-0.6-0.1-1.1,0.2-1.3,1l-0.3,1.2l2.8,0.6L8,38.7l-0.8-0.2L7.4,38l0,0l0.9-0.4
		l0.2-0.7l-1,0.4C7.3,36.9,7,36.6,6.6,36.6z M6.8,37.9l-0.1,0.5l-1-0.2l0.1-0.5c0.1-0.4,0.3-0.6,0.6-0.5C6.8,37.3,6.9,37.5,6.8,37.9
		L6.8,37.9z"/>
	
		<rect id="Rectangle_352" x="7" y="33.7" transform="matrix(0.2853 -0.9584 0.9584 0.2853 -28.4501 32.2004)" class="st1" width="0.7" height="2.9"/>
	<path id="Path_1168" class="st1" d="M7.7,31.1l-0.5-0.2l-0.8,2.4l0.5,0.2l0.3-0.9l2.2,0.8l0.2-0.6L7.4,32L7.7,31.1z"/>
	
		<rect id="Rectangle_353" x="8.8" y="28.7" transform="matrix(0.4012 -0.916 0.916 0.4012 -22.2124 26.4116)" class="st1" width="0.7" height="2.9"/>
	<path id="Path_1169" class="st1" d="M9.1,28.5c0.9,0.5,1.4-1.2,1.9-0.9c0.2,0.1,0.2,0.3,0,0.6c-0.2,0.3-0.4,0.5-0.7,0.7l0.3,0.4
		c0.4-0.2,0.7-0.5,0.9-0.9c0.4-0.7,0.2-1.3-0.2-1.5c-0.9-0.5-1.4,1.2-1.9,0.9c-0.2-0.1-0.2-0.3,0-0.6c0.1-0.2,0.3-0.5,0.6-0.6
		l-0.4-0.4c-0.3,0.2-0.5,0.5-0.7,0.8C8.5,27.7,8.7,28.3,9.1,28.5z"/>
	<path id="Path_1170" class="st1" d="M12.8,26l-1-0.6l0.7-1.1l1,0.6l0.4-0.6l-2.5-1.5l-0.4,0.6l1,0.6L11.4,25l-1-0.6L10,25l2.5,1.5
		L12.8,26z"/>
	<path id="Path_1171" class="st1" d="M15.8,21.7l-0.3-0.6l0.9-1l0.6,0.2l0.5-0.5l-3-0.9L14,19.4l1.4,2.9L15.8,21.7z M14.7,19.5
		l1.1,0.4l-0.6,0.7L14.7,19.5z"/>
	<path id="Path_1172" class="st1" d="M18.5,17.6c0.1,0.1,0.1,0.3-0.2,0.6c-0.2,0.2-0.6,0.4-0.9,0.5l0.2,0.5c0.4-0.1,0.8-0.3,1.1-0.6
		c0.6-0.6,0.6-1.2,0.3-1.5c-0.7-0.8-1.7,0.7-2.1,0.3c-0.1-0.1-0.1-0.3,0.2-0.6c0.2-0.2,0.5-0.3,0.7-0.4l-0.2-0.5
		c-0.3,0.1-0.7,0.3-0.9,0.5c-0.6,0.6-0.6,1.1-0.2,1.5C17.2,18.6,18.1,17.2,18.5,17.6z"/>
	<path id="Path_1173" class="st1" d="M20.8,15.5c0.1,0.1,0.1,0.3-0.2,0.6c-0.3,0.2-0.6,0.3-0.9,0.4l0.1,0.5c0.4,0,0.8-0.2,1.1-0.5
		c0.6-0.5,0.7-1.1,0.4-1.5c-0.7-0.8-1.8,0.5-2.1,0.1c-0.1-0.1-0.1-0.4,0.2-0.6c0.2-0.2,0.5-0.3,0.8-0.3l-0.2-0.5
		c-0.3,0.1-0.7,0.2-0.9,0.4c-0.6,0.5-0.7,1.1-0.4,1.5C19.4,16.4,20.5,15.1,20.8,15.5z"/>
	<path id="Path_1174" class="st1" d="M23.8,14.3c0.7-0.4,0.9-1.4,0.5-2.1c0,0,0,0,0-0.1c-0.5-0.7-1.4-0.9-2.1-0.4c0,0,0,0-0.1,0.1
		c-0.7,0.4-0.9,1.4-0.5,2.1c0,0,0,0,0,0.1C22.1,14.7,23,14.8,23.8,14.3C23.8,14.4,23.8,14.3,23.8,14.3z M22.4,12.3
		c0.4-0.3,0.9-0.2,1.2,0.2c0,0,0,0,0,0.1c0.3,0.4,0.2,0.9-0.2,1.2c0,0,0,0-0.1,0c-0.4,0.3-0.9,0.2-1.2-0.2c0,0,0,0,0-0.1
		C21.9,13.2,22,12.7,22.4,12.3C22.4,12.4,22.4,12.3,22.4,12.3L22.4,12.3z"/>
	<path id="Path_1175" class="st1" d="M27.1,12.3c0.4-0.2,0.7-0.6,0.8-1l-0.6-0.1c0,0.3-0.2,0.5-0.5,0.7c-0.4,0.3-1,0.1-1.2-0.3
		c0,0,0,0,0-0.1c-0.3-0.4-0.1-1,0.3-1.2c0,0,0,0,0.1,0c0.2-0.1,0.5-0.2,0.8-0.1l0.2-0.6c-0.4-0.2-0.9-0.1-1.3,0.1
		c-0.7,0.4-1,1.3-0.7,2c0,0,0,0.1,0,0.1C25.4,12.5,26.3,12.7,27.1,12.3C27,12.3,27.1,12.3,27.1,12.3z"/>
	
		<rect id="Rectangle_354" x="28.3" y="8.3" transform="matrix(0.908 -0.419 0.419 0.908 -1.4535 12.9151)" class="st1" width="0.7" height="2.9"/>
	<path id="Path_1176" class="st1" d="M31,9.6l1.3-0.5l0.5,0.5l0.7-0.2l-2.2-2.2l-0.6,0.2l-0.2,3.2l0.6-0.2L31,9.6z M31.1,7.9
		l0.8,0.9L31,9.1L31.1,7.9z"/>
	<path id="Path_1177" class="st1" d="M33.8,6.8l0.6,2.3l0.6-0.2l-0.6-2.3l0.9-0.2l-0.1-0.5l-2.4,0.7l0.1,0.5L33.8,6.8z"/>
	
		<rect id="Rectangle_355" x="36.7" y="5.5" transform="matrix(0.977 -0.213 0.213 0.977 -0.6272 8.0428)" class="st1" width="0.7" height="2.9"/>
	<path id="Path_1178" class="st1" d="M40.2,7.9c0.8-0.1,1.4-0.8,1.4-1.6c0,0,0-0.1,0-0.1c-0.1-0.8-0.9-1.4-1.7-1.3c0,0-0.1,0-0.1,0
		C39,5,38.4,5.7,38.4,6.5c0,0,0,0.1,0,0.1C38.6,7.4,39.3,8,40.2,7.9C40.2,7.9,40.2,7.9,40.2,7.9z M39.9,5.5c0.5-0.1,0.9,0.2,1,0.7
		c0,0,0,0,0,0.1c0.1,0.5-0.2,0.9-0.7,1c0,0,0,0-0.1,0c-0.5,0.1-0.9-0.2-1-0.7c0,0,0,0,0-0.1C39,6,39.3,5.6,39.9,5.5
		C39.8,5.5,39.9,5.5,39.9,5.5L39.9,5.5z"/>
	<path id="Path_1179" class="st1" d="M43.3,7.5l-0.1-1.8l1.5,1.7l0.5,0l-0.1-2.9l-0.7,0l0.1,1.8l-1.5-1.7l-0.6,0l0.1,2.9L43.3,7.5z"
		/>
	<path id="Path_1180" class="st1" d="M49.6,7.7c0.8,0.1,1.6-0.4,1.7-1.2c0,0,0-0.1,0-0.1c0.1-0.8-0.5-1.6-1.3-1.7c0,0-0.1,0-0.1,0
		c-0.8-0.1-1.6,0.4-1.7,1.2c0,0,0,0.1,0,0.1C48.1,6.9,48.7,7.6,49.6,7.7C49.5,7.7,49.5,7.7,49.6,7.7z M49.8,5.3c0.5,0,0.8,0.5,0.8,1
		c0,0,0,0,0,0.1c0,0.5-0.5,0.9-0.9,0.8c0,0,0,0-0.1,0c-0.5,0-0.8-0.5-0.8-1c0,0,0,0,0-0.1C48.9,5.7,49.3,5.3,49.8,5.3
		C49.8,5.3,49.8,5.3,49.8,5.3L49.8,5.3z"/>
	<path id="Path_1181" class="st1" d="M52.9,7.1l1.3,0.3l0.1-0.5L53,6.6l0.2-0.7l1.5,0.3l0.1-0.5l-2.1-0.5L52,8l0.7,0.1L52.9,7.1z"/>
	<path id="Path_1182" class="st1" d="M60.1,8.8C60.4,8,60,7.2,59.2,6.9c-0.1,0-0.1,0-0.2,0l-1.2-0.4l-1,2.7l1.2,0.4
		c0.7,0.3,1.6,0,1.9-0.7C60.1,8.9,60.1,8.8,60.1,8.8z M58.3,7.2l0.6,0.2c0.5,0.1,0.8,0.6,0.6,1c0,0,0,0.1,0,0.1
		c-0.1,0.5-0.6,0.7-1.1,0.6c0,0-0.1,0-0.1,0l-0.6-0.2L58.3,7.2z"/>
	<path id="Path_1183" class="st1" d="M62.7,10.9l-1.4-0.7l0.3-0.6l1.2,0.6L63,9.8l-1.2-0.6L62,8.6l1.4,0.6l0.2-0.5l-2-0.9l-1.2,2.6
		l2,0.9L62.7,10.9z"/>
	<path id="Path_1184" class="st1" d="M63.9,12.2l0.4-0.7l0.5,0.3l0,0l0.1,1l0.6,0.4L65.4,12c0.4,0.1,0.8-0.1,1-0.5
		c0.3-0.5,0.1-1.2-0.4-1.5c0,0-0.1,0-0.1-0.1l-1.1-0.6l-1.5,2.5L63.9,12.2z M65.1,10.2l0.5,0.3c0.4,0.2,0.4,0.5,0.3,0.7
		c-0.2,0.3-0.4,0.3-0.8,0.1L64.6,11L65.1,10.2z"/>
	<path id="Path_1185" class="st1" d="M66.8,14l1-1.4l-0.1,1.6l0.2,0.2l1.5-0.7l-1,1.4l0.5,0.4l1.7-2.4l-0.4-0.3l-1.9,0.8l0.2-2.1
		L68,11.2l-1.7,2.4L66.8,14z"/>
	<path id="Path_1186" class="st1" d="M70,16.4l0.6-0.3l1,0.9l-0.2,0.6l0.5,0.5l1-3l-0.5-0.4l-2.9,1.3L70,16.4z M72.2,15.3l-0.4,1.1
		l-0.7-0.6L72.2,15.3z"/>
	<path id="Path_1187" class="st1" d="M72.7,18.9l0.5,0.5l1.7-1.6l0.6,0.7l0.4-0.4l-1.7-1.9l-0.4,0.4l0.6,0.7L72.7,18.9z"/>
	<path id="Path_1188" class="st1" d="M75.1,21.7c0.5,0.7,1.4,0.9,2.1,0.4c0,0,0,0,0.1-0.1c0.7-0.5,0.8-1.4,0.3-2.1c0,0,0,0-0.1-0.1
		c-0.5-0.7-1.4-0.9-2.1-0.4c0,0,0,0-0.1,0.1C74.7,20.1,74.6,21,75.1,21.7C75.1,21.7,75.1,21.7,75.1,21.7z M75.8,20.1
		c0.4-0.3,0.9-0.3,1.2,0.1c0,0,0,0,0,0.1c0.3,0.4,0.3,0.9-0.1,1.2c0,0,0,0-0.1,0c-0.4,0.3-0.9,0.3-1.2-0.1c0,0,0,0,0-0.1
		C75.3,21,75.3,20.4,75.8,20.1C75.7,20.1,75.8,20.1,75.8,20.1L75.8,20.1z"/>
	<path id="Path_1189" class="st1" d="M77.9,25.6l0.5-0.3l-0.8-1.2l2-1.3l-0.4-0.6l-2.4,1.6L77.9,25.6z"/>
	<path id="Path_1190" class="st1" d="M78.9,27.5c0.3,0.8,1.2,1.1,2,0.7c0,0,0.1,0,0.1,0c0.7-0.4,1-1.3,0.6-2c0,0,0-0.1,0-0.1
		c-0.3-0.8-1.2-1.1-2-0.7c0,0-0.1,0-0.1,0C78.8,25.7,78.5,26.6,78.9,27.5C78.9,27.4,78.9,27.4,78.9,27.5z M79.8,25.9
		c0.4-0.3,1-0.1,1.2,0.3c0,0,0,0,0,0.1c0.2,0.4,0.1,1-0.3,1.2c0,0,0,0-0.1,0c-0.4,0.3-1,0.1-1.2-0.3c0,0,0,0,0-0.1
		C79.2,26.8,79.3,26.2,79.8,25.9C79.8,26,79.8,26,79.8,25.9L79.8,25.9z"/>
	<path id="Path_1191" class="st1" d="M80.6,30.9c0.2,0.4,0.4,0.7,0.8,0.9l1.1-0.4l-0.2-0.6l-0.8,0.3c-0.1-0.1-0.2-0.3-0.3-0.4
		c-0.2-0.4,0-1,0.4-1.2c0,0,0,0,0.1,0c0.4-0.2,1,0,1.2,0.4c0,0,0,0.1,0,0.1c0.1,0.3,0.1,0.6,0,0.8l0.5,0.2c0.2-0.4,0.2-0.9,0-1.3
		c-0.3-0.8-1.1-1.2-1.9-0.9c0,0-0.1,0-0.1,0C80.6,29.2,80.2,30.1,80.6,30.9C80.6,30.9,80.6,30.9,80.6,30.9z"/>
	
		<rect id="Rectangle_356" x="81.5" y="32.6" transform="matrix(0.9507 -0.3102 0.3102 0.9507 -6.1327 27.3512)" class="st1" width="2.9" height="0.7"/>
	<path id="Path_1192" class="st1" d="M84,34.2c-1,0.3-0.3,1.8-0.8,1.9c-0.2,0-0.3-0.1-0.4-0.5c-0.1-0.3-0.1-0.7,0.1-1l-0.5-0.1
		c-0.1,0.4-0.2,0.8,0,1.2c0.2,0.8,0.7,1.1,1.2,1c1-0.3,0.3-1.8,0.8-1.9c0.2,0,0.4,0.1,0.5,0.5c0.1,0.3,0.1,0.6,0,0.8l0.5,0.1
		c0.1-0.3,0.1-0.7,0-1C85,34.4,84.5,34.1,84,34.2z"/>
	<path id="Path_1193" class="st1" d="M85.2,38.1l-2.3,0.4l0.1,0.7l2.3-0.4l0.2,0.9l0.5-0.1l-0.4-2.5L85,37.2L85.2,38.1z"/>
	<path id="Path_1194" class="st1" d="M85.3,40.6c-1.1,0.1-0.6,1.7-1.1,1.8c-0.2,0-0.3-0.1-0.4-0.5c0-0.3,0-0.7,0.2-1l-0.5-0.2
		c-0.2,0.4-0.3,0.8-0.2,1.2c0.1,0.8,0.5,1.2,1,1.1c1.1-0.1,0.5-1.7,1.1-1.8c0.2,0,0.3,0.1,0.4,0.5c0,0.3,0,0.6-0.2,0.8l0.5,0.2
		c0.1-0.3,0.2-0.7,0.2-1C86.2,40.9,85.8,40.5,85.3,40.6z"/>
	<path id="Path_1195" class="st1" d="M45.5,1.2C21,1.2,1.2,21,1.2,45.5C1.2,70,21,89.8,45.5,89.8C70,89.8,89.8,70,89.8,45.5
		C89.8,21,70,1.2,45.5,1.2z M45.5,88.8c-23.9,0-43.3-19.4-43.3-43.3c0-23.9,19.4-43.3,43.3-43.3c23.9,0,43.3,19.4,43.3,43.3
		C88.8,69.4,69.4,88.8,45.5,88.8L45.5,88.8z"/>
	<path id="Path_1196" class="st1" d="M45.5,9.8c-19.7,0-35.7,16-35.7,35.7c0,19.7,16,35.7,35.7,35.7c19.7,0,35.7-16,35.7-35.7v0
		C81.2,25.8,65.2,9.8,45.5,9.8z M80.2,45.5c0,19.2-15.5,34.7-34.7,34.7c-19.2,0-34.7-15.5-34.7-34.7c0-19.2,15.6-34.7,34.7-34.7
		C64.7,10.8,80.2,26.3,80.2,45.5L80.2,45.5z"/>
	<path id="Path_1197" class="st1" d="M34.3,34.8c0-6.5-4.4-7.4-8.3-7.4h-3.9v15.2l-0.2,0.6l1.6,0c0.3,0,0.6,0,0.9,0
		c2.1,0.1,4.2-0.3,6-1.3C33,40.5,34.4,37.7,34.3,34.8z M23.5,42.3h-0.4V28.5H26c5.2,0,7.3,1.8,7.3,6.4c0.1,2.5-1.1,5-3.3,6.3
		C27.9,42.3,25.8,42.3,23.5,42.3L23.5,42.3z"/>
	<path id="Path_1198" class="st1" d="M37,45.4h15.3l-7.7-22L37,45.4z M50.8,44.3H38.4l6.2-17.8L50.8,44.3z"/>
	<path id="Path_1199" class="st1" d="M62.1,25.3c-0.5,0-0.9,0-1.4,0h-9.6v0.1l-3.9-11.2H45l-6.7,18.6c-0.4-6.6-5.9-7.5-10.7-7.5H18
		v39.3h9L25,70.3l0.9-0.2c0.7-0.1,1.4-0.2,2.1-0.3c0.4,0,0.9,0,1.3,0.1c0.3,0,0.6,0.1,1,0.1l0.4,0l0.1-0.4c0.4-1.7,0.9-3.6,1.5-5.7
		c0-0.1,0-0.1,0-0.2c1-0.3,1.9-0.9,2.7-1.6c2.9-2.5,4.4-6.1,4.3-9.9c0-1.3-0.1-2.5-0.6-3.7h12.3v15.9h6l0,0.1c0.5,1.5,1,3.3,1.4,5.1
		l0.1,0.4l0.4,0c0.3,0,0.6-0.1,1-0.1c0.8-0.1,1.5-0.1,2.3-0.1c0.7,0,1.4,0.1,2,0.1c0.4,0,0.8,0.1,1.2,0.1l0.8,0.1l-2-5.9
		c2.9-0.4,5.6-1.9,7.4-4.2c3.4-4.3,5.1-9.8,5.1-16.9c0-6-1.6-11.1-4.4-14.4C69.5,25.2,65.7,25.3,62.1,25.3z M28.2,61.4
		c-0.4,0.1-0.8,0.1-1.3,0.1h-3.9V45.4h2.1c4,0,6.4,1,7.8,3l0,0L28.2,61.4z M29.9,69c-0.2,0-0.3,0-0.5-0.1c-0.5-0.1-1-0.1-1.5-0.1h0
		c-0.5,0-0.9,0.1-1.4,0.1l6.9-19.1c0.3,0.6,0.4,1.2,0.5,1.9v0c0,0.1,0,0.3,0.1,0.4c0,0.4,0,0.8,0,1.2v0.8c0,0.2-0.1,0.5-0.1,0.7
		c-0.3,1-0.6,2-0.9,3c-0.1,0.2-0.2,0.4-0.3,0.6l-0.1,0.1c-0.5,1.6-1,3.2-1.4,4.9L31,64.2l0.2,0C30.7,66,30.3,67.5,29.9,69L29.9,69z
		 M34.4,61.5c-0.5,0.4-1.1,0.8-1.7,1.1c0.3-1.1,0.7-2.3,1-3.4c0.1-0.3,0.2-0.7,0.3-1c0.5-1,0.8-2,1-3.1l0.1-0.5v-0.9
		c0-0.6,0-1.1-0.1-1.7c-0.1-1.5-0.6-2.9-1.3-4.2c-1.5-2.4-4.3-3.5-8.6-3.5H22v18.2H27c0.2,0,0.4,0,0.6,0l-0.4,1.1h-8.2V26.4h8.5
		c6.9,0,9.7,2.1,9.7,7.2c0.2,4.4-2.7,8.3-6.9,9.4l0.1,1c1.2,0.1,2.4,0.4,3.4,0.9v0l0.4,0.2c1.4,0.7,2.6,1.8,3.2,3.3
		c0.5,1.3,0.8,2.6,0.7,4C38.5,55.9,37.1,59.2,34.4,61.5L34.4,61.5z M35.2,41.4l-0.9,2.5c-0.6-0.2-1.2-0.5-1.8-0.6
		C33.5,42.9,34.4,42.2,35.2,41.4L35.2,41.4z M38.4,47.7c-0.7-1.4-1.8-2.5-3.2-3.3l10.5-29.1h0.7L56,42.8l0,0l6.4,18.5
		c-1.7,0.1-3.4,0.1-5.1-0.1c-0.1-0.2-0.1-0.5-0.2-0.7l0-0.2c-1.3-4.2-2.6-8.3-4-12.2l-0.2-0.4L38.4,47.7z M57,42.4V28.7
		c0.6,0,1-0.1,1.4-0.1c0.6-0.1,1.1-0.1,1.7-0.1c8.6,0,11.9,4.3,11.9,15.7c0,7.8-1.8,13.1-5.5,15.7c-0.9,0.7-2,1.1-3.1,1.3L57,42.4z
		 M64.6,69c-0.7-0.1-1.4-0.1-2.2-0.1c-0.8,0-1.6,0.1-2.4,0.2l-0.5,0c-0.3-1.4-0.7-2.8-1.1-4h1c1.4,0,2.8,0,4.1-0.2l1.4,4.2L64.6,69z
		 M71.8,29.6c2.7,3.1,4.1,8,4.1,13.7c0,6.8-1.6,12.1-4.9,16.2c-1.8,2.2-4.4,3.6-7.2,3.9c-1.5,0.2-2.9,0.2-4.4,0.2h-7.2V48.9
		c1.3,3.6,2.6,7.5,3.8,11.6l0,0.1v1.6l0.8,0c2.1,0.3,4.3,0.3,6.4,0.1c1.4-0.2,2.7-0.8,3.9-1.6c3.9-2.8,5.9-8.3,5.9-16.5
		c0-12.1-3.6-16.8-12.9-16.8c-0.6,0-1.2,0-1.8,0.1c-0.6,0.1-1.2,0.1-1.8,0.1H56v11.8l-3.8-11v-2h8.5c0.5,0,0.9,0,1.4,0
		C65.6,26.3,69,26.3,71.8,29.6L71.8,29.6z"/>
</g>
</svg>
