<?xml version="1.0" encoding="UTF-8"?>
<svg width="1200pt" height="1200pt" version="1.1" viewBox="0 0 1200 1200" xmlns="http://www.w3.org/2000/svg">
 <path d="m201.2 693.34c-84.176 84.176-84.176 221.29-0.003906 305.47 84.176 84.176 221.29 84.172 305.47-0.003906l169.71-169.71c84.176-84.176 84.176-221.29 0.003906-305.47l-0.003906 0.003906c-6.7188-6.9062-15.922-10.832-25.559-10.898-9.6328-0.066406-18.895 3.7305-25.707 10.543s-10.609 16.074-10.543 25.707c0.066406 9.6367 3.9922 18.84 10.898 25.559 56.852 56.852 56.848 146.79 0 203.64l-169.71 169.71c-56.852 56.852-146.8 56.852-203.64 0-56.852-56.852-56.848-146.79 0-203.64l161.22-161.22v0.003906c6.9141-6.7188 10.848-15.926 10.918-25.566 0.070312-9.6367-3.7305-18.902-10.543-25.719-6.8164-6.8164-16.082-10.613-25.723-10.543-9.6367 0.070313-18.844 4.0039-25.562 10.918zm322.44-322.44c-84.176 84.176-84.176 221.29-0.003907 305.47 6.7188 6.9023 15.922 10.828 25.559 10.891 9.6328 0.066407 18.891-3.7305 25.703-10.543 6.8086-6.8125 10.609-16.07 10.543-25.703-0.066406-9.6328-3.9883-18.84-10.895-25.559-56.852-56.848-56.848-146.79 0-203.64l169.71-169.71c56.852-56.852 146.8-56.852 203.64 0 56.852 56.852 56.848 146.79 0 203.64l-161.22 161.22h0.003906c-6.9062 6.7188-10.832 15.926-10.898 25.559-0.066406 9.6367 3.7305 18.895 10.543 25.707s16.074 10.609 25.707 10.543c9.6328-0.066407 18.84-3.9883 25.559-10.895l161.22-161.22c84.176-84.176 84.176-221.29 0.003906-305.47-84.172-84.172-221.29-84.172-305.47 0.003906l-169.71 169.71z" fill="#3f3f3f"/>
</svg>
