<svg id="Component_19_1" data-name="Component 19 – 1" xmlns="http://www.w3.org/2000/svg" width="384.666" height="91.004" viewBox="0 0 384.666 91.004">
  <path id="Path_1096" data-name="Path 1096" d="M-209.193,351.079l.369-.263-.681-.951.445-.319.772,1.077.381-.272-1.11-1.551-2.051,1.47,1.137,1.589.381-.273-.8-1.116.475-.34Z" transform="translate(221.092 -281.791)" fill="#1f335e"/>
  <path id="Path_1097" data-name="Path 1097" d="M-207.02,352.145a1.442,1.442,0,0,1,.278.677l.462-.133a1.7,1.7,0,0,0-.367-.833c-.446-.568-.943-.619-1.283-.353-.742.583.427,1.542.053,1.836-.122.1-.3.055-.516-.218a1.5,1.5,0,0,1-.309-.823l-.472.117a1.821,1.821,0,0,0,.407.995c.449.571.951.622,1.285.36.733-.575-.432-1.538-.064-1.827C-207.42,351.845-207.235,351.871-207.02,352.145Z" transform="translate(221.092 -281.791)" fill="#1f335e"/>
  <path id="Path_1098" data-name="Path 1098" d="M-206.1,353.367l.56.59-1.491,1.421.406.426,1.491-1.423.56.588.346-.33-1.527-1.6Z" transform="translate(221.092 -281.791)" fill="#1f335e"/>
  <path id="Path_1099" data-name="Path 1099" d="M-205.387,356.627a.345.345,0,0,0,.01.5.344.344,0,0,0,.5-.014.339.339,0,0,0-.014-.5A.338.338,0,0,0-205.387,356.627Z" transform="translate(221.092 -281.791)" fill="#1f335e"/>
  <path id="Path_1100" data-name="Path 1100" d="M-201.721,357.011l-.29.37.4.313-1.277,1.626.463.363,1.567-2Z" transform="translate(221.092 -281.791)" fill="#1f335e"/>
  <path id="Path_1101" data-name="Path 1101" d="M-199.392,358.815a.866.866,0,0,0-1.264.129.8.8,0,0,0,.249,1.144.859.859,0,0,0,.641.18.674.674,0,0,1-1.006.184.806.806,0,0,1-.31-.376l-.425.222a1.355,1.355,0,0,0,.468.548,1.225,1.225,0,0,0,1.837-.356A1.087,1.087,0,0,0-199.392,358.815Zm-.084.939a.394.394,0,0,1-.573.055.382.382,0,0,1-.127-.558.376.376,0,0,1,.56-.06A.388.388,0,0,1-199.476,359.754Z" transform="translate(221.092 -281.791)" fill="#1f335e"/>
  <path id="Path_1102" data-name="Path 1102" d="M-197.1,360.366a1.166,1.166,0,0,0-1.1-.147l.208.459a.617.617,0,0,1,.577.071c.225.144.277.316.171.481-.067.1-.17.193-.475.25l-1.314.247-.2.318,1.6,1.031.257-.4-.913-.587.785-.147a1.011,1.011,0,0,0,.786-.441C-196.462,361.115-196.622,360.669-197.1,360.366Z" transform="translate(221.092 -281.791)" fill="#1f335e"/>
  <path id="Path_1103" data-name="Path 1103" d="M-194.723,361.779a1.136,1.136,0,0,0-1.567.67,1.137,1.137,0,0,0,.369,1.665,1.135,1.135,0,0,0,1.566-.671A1.134,1.134,0,0,0-194.723,361.779Zm-.158,1.394c-.262.512-.553.633-.814.5s-.33-.439-.067-.952.554-.633.812-.5S-194.617,362.66-194.881,363.173Z" transform="translate(221.092 -281.791)" fill="#1f335e"/>
  <rect id="Rectangle_345" data-name="Rectangle 345" width="0.453" height="1.026" transform="translate(28.822 83.182) rotate(-68.42)" fill="#1f335e"/>
  <path id="Path_1104" data-name="Path 1104" d="M-186.856,366.092l-1.1-.31.27-.957-.562-.159-.683,2.429.562.158.28-1,1.1.31-.28,1,.562.158.683-2.429-.562-.157Z" transform="translate(221.092 -281.791)" fill="#1f335e"/>
  <path id="Path_1105" data-name="Path 1105" d="M-185.489,368.03l1.915.441.107-.459-1.347-.31.134-.572,1.148.265.1-.447-1.148-.265.124-.535,1.3.3.107-.459-1.87-.433Z" transform="translate(221.092 -281.791)" fill="#1f335e"/>
  <path id="Path_1106" data-name="Path 1106" d="M-181.353,366.271l-1.444,2.356.594.078.291-.507,1.162.152.151.566.607.079-.79-2.648Zm-.315,1.511.523-.9.27,1.009Z" transform="translate(221.092 -281.791)" fill="#1f335e"/>
  <path id="Path_1107" data-name="Path 1107" d="M-178.288,366.562l-.586-.046-.193,2.532,1.855.142.036-.478-1.269-.1Z" transform="translate(221.092 -281.791)" fill="#1f335e"/>
  <path id="Path_1108" data-name="Path 1108" d="M-174.594,366.636l-2.211.056.011.478.813-.02.051,2.059.588-.014-.053-2.059.813-.021Z" transform="translate(221.092 -281.791)" fill="#1f335e"/>
  <path id="Path_1109" data-name="Path 1109" d="M-172.041,366.5l.077,1-1.151.088-.075-1-.587.046.194,2.532.585-.046-.078-1.037,1.149-.088.08,1.038.585-.044-.192-2.532Z" transform="translate(221.092 -281.791)" fill="#1f335e"/>
  <path id="Path_1110" data-name="Path 1110" d="M-168.859,366.085l-.47,1.23-.866-.991-.614.11,1.255,1.434.159.891.58-.1-.159-.886.682-1.789Z" transform="translate(221.092 -281.791)" fill="#1f335e"/>
  <path id="Path_1111" data-name="Path 1111" d="M-165.415,366.123c-.043-.151.051-.313.384-.407a1.406,1.406,0,0,1,.726,0l.054-.476a1.671,1.671,0,0,0-.9.022c-.69.193-.927.63-.81,1.045.253.9,1.578.192,1.706.645.041.149-.063.3-.4.391a1.49,1.49,0,0,1-.873-.025l-.073.477a1.8,1.8,0,0,0,1.068,0c.7-.2.935-.636.819-1.042C-163.964,365.867-165.289,366.57-165.415,366.123Z" transform="translate(221.092 -281.791)" fill="#1f335e"/>
  <path id="Path_1112" data-name="Path 1112" d="M-161.089,363.99l-.618.208-.686,1.484-.379-1.125-.553.187.809,2.407.554-.187-.205-.608.211-.444,1.087.685.649-.219-1.5-.977Z" transform="translate(221.092 -281.791)" fill="#1f335e"/>
  <path id="Path_1113" data-name="Path 1113" d="M-160.41,363.7l1.047,2.313.535-.243-1.048-2.313Z" transform="translate(221.092 -281.791)" fill="#1f335e"/>
  <path id="Path_1114" data-name="Path 1114" d="M-157.3,362.244l.7,1.373-1.827-.8-.433.221,1.159,2.26.517-.265-.7-1.37,1.83.792.429-.219-1.159-2.26Z" transform="translate(221.092 -281.791)" fill="#1f335e"/>
  <path id="Path_1115" data-name="Path 1115" d="M-152.379,360.682l-.983.631-.36-.56,1.114-.715-.253-.394-1.6,1.031,1.366,2.122.491-.316-.5-.772.983-.631Z" transform="translate(221.092 -281.791)" fill="#1f335e"/>
  <path id="Path_1116" data-name="Path 1116" d="M-151.264,358.378a1.314,1.314,0,0,0-.283,1.891,1.314,1.314,0,0,0,1.9.175,1.314,1.314,0,0,0,.282-1.889A1.312,1.312,0,0,0-151.264,358.378Zm1.31,1.672a.773.773,0,0,1-1.125-.147.777.777,0,0,1,.123-1.132.775.775,0,0,1,1.126.151A.772.772,0,0,1-149.954,360.05Z" transform="translate(221.092 -281.791)" fill="#1f335e"/>
  <path id="Path_1117" data-name="Path 1117" d="M-147.233,356.182a.952.952,0,0,0-1.436.1l-.794.759,1.753,1.837.426-.406-.49-.511.37-.353.021-.02.843.173.457-.435-.976-.2A.829.829,0,0,0-147.233,356.182Zm-.517,1.1-.346.331-.611-.641.346-.33c.259-.248.5-.254.7-.053S-147.49,357.04-147.75,357.287Z" transform="translate(221.092 -281.791)" fill="#1f335e"/>
  <path id="Path_1118" data-name="Path 1118" d="M-145.554,353.132l1.176,2.518.4-.456-.265-.527.772-.891.558.188.4-.467-2.663-.8Zm1.62.493-.527.609-.47-.942Z" transform="translate(221.092 -281.791)" fill="#1f335e"/>
  <path id="Path_1119" data-name="Path 1119" d="M-141.984,352.05l-1.665-1.192-.339.474,2.051,1.47,1.077-1.5-.386-.278Z" transform="translate(221.092 -281.791)" fill="#1f335e"/>
  <path id="Path_1120" data-name="Path 1120" d="M-140.372,349.755l-1.722-1.106-.316.49,2.122,1.364,1-1.555-.4-.256Z" transform="translate(221.092 -281.791)" fill="#1f335e"/>
  <path id="Path_1121" data-name="Path 1121" d="M-105.666,305.738a3.777,3.777,0,0,0-2.8-3.78,3.674,3.674,0,0,0,2.032-3.364c0-2.383-1.967-3.978-5.79-3.978h-7.472v15.3h7.909C-107.764,309.911-105.666,308.382-105.666,305.738Zm-10.509-8.456h3.517c1.726,0,2.666.591,2.666,1.793s-.94,1.813-2.666,1.813h-3.517Zm0,9.964v-3.78h4.129c1.835,0,2.818.611,2.818,1.9,0,1.311-.983,1.88-2.818,1.88Z" transform="translate(221.092 -281.791)" fill="#1f335e"/>
  <path id="Path_1122" data-name="Path 1122" d="M-97.927,305.651h3.256l2.95,4.26h3.8L-91.35,305a4.974,4.974,0,0,0,3.146-4.829c0-3.43-2.556-5.551-6.642-5.551h-6.62v15.3h3.539Zm0-8.15h2.884c2.163,0,3.256.983,3.256,2.666,0,1.66-1.093,2.666-3.256,2.666h-2.884Z" transform="translate(221.092 -281.791)" fill="#1f335e"/>
  <rect id="Rectangle_346" data-name="Rectangle 346" width="3.539" height="15.295" transform="translate(137.209 12.826)" fill="#1f335e"/>
  <path id="Path_1123" data-name="Path 1123" d="M-72.022,309.911h3.539V297.5h4.894v-2.885H-76.916V297.5h4.894Z" transform="translate(221.092 -281.791)" fill="#1f335e"/>
  <rect id="Rectangle_347" data-name="Rectangle 347" width="3.539" height="15.295" transform="translate(160.906 12.826)" fill="#1f335e"/>
  <path id="Path_1124" data-name="Path 1124" d="M-48.87,298.942c0-.961.808-1.747,2.906-1.747a8.626,8.626,0,0,1,4.238,1.2l1.093-2.687a10.249,10.249,0,0,0-5.309-1.356c-4.348,0-6.446,2.163-6.446,4.764,0,5.681,8.893,3.715,8.893,6.577,0,.938-.852,1.638-2.95,1.638a9,9,0,0,1-5.047-1.6l-1.2,2.665a10.893,10.893,0,0,0,6.227,1.77c4.37,0,6.489-2.184,6.489-4.74C-39.978,299.817-48.87,301.762-48.87,298.942Z" transform="translate(221.092 -281.791)" fill="#1f335e"/>
  <path id="Path_1125" data-name="Path 1125" d="M-32.484,303.64h6.948v6.271H-22v-15.3h-3.539v6.031h-6.948v-6.031h-3.539v15.3h3.539Z" transform="translate(221.092 -281.791)" fill="#1f335e"/>
  <path id="Path_1126" data-name="Path 1126" d="M-6.181,306.633h7.1l1.356,3.278H5.989l-6.84-15.3h-3.5l-6.816,15.3h3.626Zm3.562-8.542,2.425,5.855H-5.046Z" transform="translate(221.092 -281.791)" fill="#1f335e"/>
  <path id="Path_1127" data-name="Path 1127" d="M14.155,307.333a9,9,0,0,1-5.047-1.6l-1.2,2.665a10.891,10.891,0,0,0,6.227,1.77c4.37,0,6.489-2.184,6.489-4.74,0-5.616-8.893-3.671-8.893-6.491,0-.961.809-1.747,2.906-1.747a8.628,8.628,0,0,1,4.238,1.2l1.094-2.687a10.255,10.255,0,0,0-5.31-1.356c-4.348,0-6.445,2.163-6.445,4.764,0,5.681,8.893,3.715,8.893,6.577C17.106,306.633,16.253,307.333,14.155,307.333Z" transform="translate(221.092 -281.791)" fill="#1f335e"/>
  <path id="Path_1128" data-name="Path 1128" d="M27.195,298.942c0-.961.808-1.747,2.906-1.747a8.631,8.631,0,0,1,4.238,1.2l1.093-2.687a10.252,10.252,0,0,0-5.31-1.356c-4.347,0-6.445,2.163-6.445,4.764,0,5.681,8.893,3.715,8.893,6.577,0,.938-.853,1.638-2.95,1.638a9,9,0,0,1-5.047-1.6l-1.2,2.665a10.891,10.891,0,0,0,6.227,1.77c4.37,0,6.489-2.184,6.489-4.74C36.087,299.817,27.195,301.762,27.195,298.942Z" transform="translate(221.092 -281.791)" fill="#1f335e"/>
  <path id="Path_1129" data-name="Path 1129" d="M47.455,294.354c-4.829,0-8.367,3.365-8.367,7.911s3.538,7.908,8.367,7.908c4.807,0,8.369-3.342,8.369-7.908S52.262,294.354,47.455,294.354Zm0,12.8a4.9,4.9,0,1,1,4.786-4.894A4.667,4.667,0,0,1,47.455,307.159Z" transform="translate(221.092 -281.791)" fill="#1f335e"/>
  <path id="Path_1130" data-name="Path 1130" d="M67.315,310.173a7.862,7.862,0,0,0,6.316-2.731l-2.273-2.1a4.875,4.875,0,0,1-3.845,1.814,4.895,4.895,0,0,1,0-9.789,4.916,4.916,0,0,1,3.845,1.792l2.273-2.1a7.9,7.9,0,0,0-6.293-2.71c-4.763,0-8.3,3.3-8.3,7.911S62.575,310.173,67.315,310.173Z" transform="translate(221.092 -281.791)" fill="#1f335e"/>
  <rect id="Rectangle_348" data-name="Rectangle 348" width="3.539" height="15.295" transform="translate(298.629 12.826)" fill="#1f335e"/>
  <path id="Path_1131" data-name="Path 1131" d="M89.215,306.633h7.1l1.354,3.278h3.716l-6.84-15.3h-3.5l-6.816,15.3h3.627Zm3.561-8.542,2.425,5.855h-4.85Z" transform="translate(221.092 -281.791)" fill="#1f335e"/>
  <path id="Path_1132" data-name="Path 1132" d="M101.987,297.5h4.894v12.41h3.539V297.5h4.894v-2.885H101.987Z" transform="translate(221.092 -281.791)" fill="#1f335e"/>
  <rect id="Rectangle_349" data-name="Rectangle 349" width="3.539" height="15.295" transform="translate(339.809 12.826)" fill="#1f335e"/>
  <path id="Path_1133" data-name="Path 1133" d="M134.828,310.173c4.807,0,8.369-3.342,8.369-7.908s-3.562-7.911-8.369-7.911c-4.829,0-8.367,3.365-8.367,7.911S130,310.173,134.828,310.173Zm0-12.8a4.9,4.9,0,1,1-4.785,4.9A4.667,4.667,0,0,1,134.828,297.37Z" transform="translate(221.092 -281.791)" fill="#1f335e"/>
  <path id="Path_1134" data-name="Path 1134" d="M150.865,300.626l7.625,9.286H161.4v-15.3h-3.5V303.9l-7.6-9.286h-2.928v15.3h3.5Z" transform="translate(221.092 -281.791)" fill="#1f335e"/>
  <path id="Path_1135" data-name="Path 1135" d="M-112.286,320.573c-4.829,0-8.368,3.365-8.368,7.91s3.539,7.909,8.368,7.909c4.806,0,8.368-3.342,8.368-7.909S-107.48,320.573-112.286,320.573Zm0,12.8a4.665,4.665,0,0,1-4.785-4.894,4.665,4.665,0,0,1,4.785-4.894,4.665,4.665,0,0,1,4.785,4.894A4.666,4.666,0,0,1-112.286,333.377Z" transform="translate(221.092 -281.791)" fill="#1f335e"/>
  <path id="Path_1136" data-name="Path 1136" d="M-95.753,323.676h8.019v-2.841H-99.292v15.3h3.539v-5.572h7.079v-2.839h-7.079Z" transform="translate(221.092 -281.791)" fill="#1f335e"/>
  <path id="Path_1137" data-name="Path 1137" d="M-68.272,320.835h-6.949v15.3h6.949c5,0,8.434-3.015,8.434-7.647S-63.269,320.835-68.272,320.835Zm-.176,12.388h-3.233v-9.482h3.233c3.038,0,5.026,1.814,5.026,4.742S-65.41,333.223-68.448,333.223Z" transform="translate(221.092 -281.791)" fill="#1f335e"/>
  <path id="Path_1138" data-name="Path 1138" d="M-51.694,329.75h7.1V327h-7.1v-3.321h8.04v-2.841H-55.212v15.3H-43.37v-2.841h-8.325Z" transform="translate(221.092 -281.791)" fill="#1f335e"/>
  <path id="Path_1139" data-name="Path 1139" d="M-28.473,331.214a4.974,4.974,0,0,0,3.145-4.829c0-3.43-2.556-5.55-6.641-5.55h-6.62v15.3h3.538v-4.261H-31.8l2.951,4.261h3.8Zm-3.693-2.163h-2.885V323.72h2.885c2.163,0,3.255.982,3.255,2.665C-28.911,328.046-30,329.051-32.166,329.051Z" transform="translate(221.092 -281.791)" fill="#1f335e"/>
  <path id="Path_1140" data-name="Path 1140" d="M-6.281,320.835l-5.636,9.505-5.724-9.505h-2.928v15.3h3.321v-8.98l4.478,7.363h1.595l4.5-7.56.023,9.176H-3.33l-.044-15.3Z" transform="translate(221.092 -281.791)" fill="#1f335e"/>
  <path id="Path_1141" data-name="Path 1141" d="M10.585,320.835h-3.5L.273,336.13H3.9l1.354-3.278h7.1l1.354,3.278h3.716Zm-4.2,9.33,2.425-5.856,2.425,5.856Z" transform="translate(221.092 -281.791)" fill="#1f335e"/>
  <path id="Path_1142" data-name="Path 1142" d="M31.82,320.835H18.493v2.885h4.893v12.41h3.54V323.72H31.82Z" transform="translate(221.092 -281.791)" fill="#1f335e"/>
  <path id="Path_1143" data-name="Path 1143" d="M51.246,328.483c0-4.567-3.562-7.91-8.369-7.91-4.829,0-8.367,3.365-8.367,7.91s3.538,7.909,8.367,7.909C47.684,336.392,51.246,333.05,51.246,328.483Zm-13.154,0a4.787,4.787,0,1,1,4.785,4.894A4.665,4.665,0,0,1,38.092,328.483Z" transform="translate(221.092 -281.791)" fill="#1f335e"/>
  <path id="Path_1144" data-name="Path 1144" d="M67.065,333.246H59.4V320.835h-3.54v15.3h11.21Z" transform="translate(221.092 -281.791)" fill="#1f335e"/>
  <path id="Path_1145" data-name="Path 1145" d="M86.518,328.483c0-4.567-3.562-7.91-8.368-7.91-4.828,0-8.368,3.365-8.368,7.91s3.54,7.909,8.368,7.909C82.956,336.392,86.518,333.05,86.518,328.483Zm-8.368,4.894a4.9,4.9,0,1,1,4.785-4.894A4.665,4.665,0,0,1,78.15,333.377Z" transform="translate(221.092 -281.791)" fill="#1f335e"/>
  <path id="Path_1146" data-name="Path 1146" d="M104.726,328.242h-3.234v4.479a5.611,5.611,0,0,1-2.752.656,4.895,4.895,0,1,1,.043-9.788,5.169,5.169,0,0,1,3.954,1.726l2.273-2.1a8.151,8.151,0,0,0-6.4-2.644c-4.873,0-8.413,3.3-8.413,7.91s3.54,7.909,8.346,7.909a10.564,10.564,0,0,0,6.184-1.944Z" transform="translate(221.092 -281.791)" fill="#1f335e"/>
  <rect id="Rectangle_350" data-name="Rectangle 350" width="3.54" height="15.295" transform="translate(331.029 39.043)" fill="#1f335e"/>
  <path id="Path_1147" data-name="Path 1147" d="M124.128,333.551a8.987,8.987,0,0,1-5.046-1.6l-1.2,2.666a10.9,10.9,0,0,0,6.227,1.77c4.37,0,6.489-2.185,6.489-4.741,0-5.616-8.893-3.671-8.893-6.49,0-.961.809-1.747,2.906-1.747a8.635,8.635,0,0,1,4.238,1.2l1.094-2.687a10.255,10.255,0,0,0-5.31-1.355c-4.348,0-6.445,2.163-6.445,4.763,0,5.682,8.893,3.715,8.893,6.577C127.079,332.852,126.226,333.551,124.128,333.551Z" transform="translate(221.092 -281.791)" fill="#1f335e"/>
  <path id="Path_1148" data-name="Path 1148" d="M146.358,320.835H133.031v2.885h4.894v12.41h3.539V323.72h4.894Z" transform="translate(221.092 -281.791)" fill="#1f335e"/>
  <path id="Path_1149" data-name="Path 1149" d="M161.64,331.651c0-5.616-8.893-3.671-8.893-6.49,0-.961.809-1.747,2.907-1.747a8.64,8.64,0,0,1,4.238,1.2l1.093-2.687a10.252,10.252,0,0,0-5.31-1.355c-4.347,0-6.445,2.163-6.445,4.763,0,5.682,8.893,3.715,8.893,6.577,0,.939-.853,1.638-2.95,1.638a8.99,8.99,0,0,1-5.047-1.6l-1.2,2.666a10.9,10.9,0,0,0,6.227,1.77C159.521,336.392,161.64,334.207,161.64,331.651Z" transform="translate(221.092 -281.791)" fill="#1f335e"/>
  <path id="Path_1150" data-name="Path 1150" d="M-110.984,351.186h-6.5v-5.673h-2.209V358.6h2.209v-5.354h6.5V358.6h2.209V345.512h-2.209Z" transform="translate(221.092 -281.791)" fill="#1f335e"/>
  <path id="Path_1151" data-name="Path 1151" d="M-99.751,353.021h6.272v-1.967h-6.272v-3.463h6.983v-2.079h-9.193V358.6h9.418v-2.078h-7.208Z" transform="translate(221.092 -281.791)" fill="#1f335e"/>
  <path id="Path_1152" data-name="Path 1152" d="M-82.583,345.512-88.349,358.6h2.359l1.31-2.977h6.554l1.31,2.977h2.359l-5.766-13.088Zm-1.2,8.07,2.378-5.391,2.378,5.391Z" transform="translate(221.092 -281.791)" fill="#1f335e"/>
  <path id="Path_1153" data-name="Path 1153" d="M-66.752,345.512h-2.209V358.6h8.182v-2.1h-5.972Z" transform="translate(221.092 -281.791)" fill="#1f335e"/>
  <path id="Path_1154" data-name="Path 1154" d="M-57.2,347.535h3.969V358.6h2.209V347.535h3.969v-2.022H-57.2Z" transform="translate(221.092 -281.791)" fill="#1f335e"/>
  <path id="Path_1155" data-name="Path 1155" d="M-32.771,351.186h-6.5v-5.673h-2.209V358.6h2.209v-5.354h6.5V358.6h2.209V345.512h-2.209Z" transform="translate(221.092 -281.791)" fill="#1f335e"/>
  <path id="Path_1156" data-name="Path 1156" d="M-19.6,351.468l-3.576-5.955h-2.415l4.869,7.92V358.6h2.246v-5.168l4.869-7.92h-2.415Z" transform="translate(221.092 -281.791)" fill="#1f335e"/>
  <path id="Path_1157" data-name="Path 1157" d="M4.757,350.942a9.266,9.266,0,0,1-2.63-.907,1.383,1.383,0,0,1-.618-1.217,1.315,1.315,0,0,1,.618-1.189,2.887,2.887,0,0,1,1.582-.394,6.054,6.054,0,0,1,1.956.338,4.451,4.451,0,0,1,1.572.861l1.181-1.667a6.562,6.562,0,0,0-2.135-1.161,7.847,7.847,0,0,0-2.49-.411,5.316,5.316,0,0,0-3.267.982,3.284,3.284,0,0,0-1.32,2.8,3.165,3.165,0,0,0,1.161,2.7,4.987,4.987,0,0,0,1.33.759,18.312,18.312,0,0,0,2.19.636,6.188,6.188,0,0,1,2.03.768,1.361,1.361,0,0,1,.591,1.179,1.435,1.435,0,0,1-.628,1.217,2.808,2.808,0,0,1-1.694.459,6.231,6.231,0,0,1-4.118-1.723l-1.386,1.666A7.957,7.957,0,0,0,4.13,358.75a5.153,5.153,0,0,0,3.389-1.067A3.441,3.441,0,0,0,8.811,354.9a3.235,3.235,0,0,0-1.021-2.593A7.241,7.241,0,0,0,4.757,350.942Z" transform="translate(221.092 -281.791)" fill="#1f335e"/>
  <path id="Path_1158" data-name="Path 1158" d="M25.222,345.512H22.414L16.422,351.9v-6.385H14.213V358.6h2.209v-3.67l1.91-2.059,4.345,5.729H25.3l-5.336-7.358Z" transform="translate(221.092 -281.791)" fill="#1f335e"/>
  <rect id="Rectangle_351" data-name="Rectangle 351" width="2.21" height="13.088" transform="translate(251.797 63.721)" fill="#1f335e"/>
  <path id="Path_1159" data-name="Path 1159" d="M49.54,355.287l-7.6-9.774H39.73V358.6h2.209v-9.549l7.415,9.549h2.4V345.512H49.54Z" transform="translate(221.092 -281.791)" fill="#1f335e"/>
  <path id="Path_1160" data-name="Path 1160" d="M66.037,358.6h2.209v-5.393h5.8v-2.041h-5.8v-3.594h6.5l.019-2.061H66.037Z" transform="translate(221.092 -281.791)" fill="#1f335e"/>
  <path id="Path_1161" data-name="Path 1161" d="M86.927,345.2a6.747,6.747,0,0,0-4.9,1.938,6.869,6.869,0,0,0,0,9.66,7.176,7.176,0,0,0,9.81,0,6.869,6.869,0,0,0,0-9.66A6.745,6.745,0,0,0,86.927,345.2Zm3.286,10.129a4.591,4.591,0,0,1-6.572,0,4.889,4.889,0,0,1,0-6.721,4.588,4.588,0,0,1,6.572,0,4.886,4.886,0,0,1,0,6.721Z" transform="translate(221.092 -281.791)" fill="#1f335e"/>
  <path id="Path_1162" data-name="Path 1162" d="M110.237,349.763a3.868,3.868,0,0,0-1.291-3.24,7.065,7.065,0,0,0-4.288-1.011H99.789V358.6H102v-4.4h2.9l3.126,4.4h2.81l-3.428-4.756A3.8,3.8,0,0,0,110.237,349.763Zm-5.486,2.434H102v-4.681h2.809a4.6,4.6,0,0,1,2.47.478,1.989,1.989,0,0,1,.694,1.759,2.336,2.336,0,0,1-.674,1.864A4.052,4.052,0,0,1,104.751,352.2Z" transform="translate(221.092 -281.791)" fill="#1f335e"/>
  <path id="Path_1163" data-name="Path 1163" d="M128.517,345.512,122.75,358.6h2.359l1.31-2.977h6.554l1.311,2.977h2.358l-5.766-13.088Zm-1.2,8.07,2.378-5.391,2.378,5.391Z" transform="translate(221.092 -281.791)" fill="#1f335e"/>
  <path id="Path_1164" data-name="Path 1164" d="M143.85,345.512h-2.209V358.6h8.181v-2.1H143.85Z" transform="translate(221.092 -281.791)" fill="#1f335e"/>
  <path id="Path_1165" data-name="Path 1165" d="M157.6,356.5v-10.99h-2.21V358.6h8.182v-2.1Z" transform="translate(221.092 -281.791)" fill="#1f335e"/>
  <path id="Path_1166" data-name="Path 1166" d="M-215.081,321.822a.732.732,0,0,0-.791.455.716.716,0,0,0-.605-.467c-.46-.052-.814.294-.9,1.031l-.165,1.444,2.955.339.175-1.528C-214.32,322.319-214.569,321.88-215.081,321.822Zm-1.17,1.922-.7-.08.078-.679c.038-.335.174-.5.406-.477s.329.222.29.557Zm1.229.141-.729-.084.091-.8c.041-.354.181-.531.429-.5s.341.232.3.587Z" transform="translate(221.092 -281.791)" fill="#1f335e"/>
  <path id="Path_1167" data-name="Path 1167" d="M-215.5,318.105c-.652-.142-1.161.255-1.33,1.031l-.275,1.259,2.906.633.147-.673-.809-.177.128-.584.007-.034.932-.384.158-.722-1.077.448A.966.966,0,0,0-215.5,318.105Zm.223,1.41-.119.547-1.014-.221.119-.548c.09-.411.322-.579.643-.507S-215.188,319.1-215.278,319.515Z" transform="translate(221.092 -281.791)" fill="#1f335e"/>
  <rect id="Rectangle_352" data-name="Rectangle 352" width="0.689" height="2.975" transform="translate(4.826 34.807) rotate(-73.422)" fill="#1f335e"/>
  <path id="Path_1168" data-name="Path 1168" d="M-214.355,312.523l-.53-.187-.863,2.445.53.187.316-.9,2.277.8.229-.649-2.277-.8Z" transform="translate(221.092 -281.791)" fill="#1f335e"/>
  <rect id="Rectangle_353" data-name="Rectangle 353" width="0.689" height="2.975" transform="translate(6.625 29.506) rotate(-66.344)" fill="#1f335e"/>
  <path id="Path_1169" data-name="Path 1169" d="M-212.921,309.859c.974.521,1.452-1.185,1.943-.923.161.085.2.3.01.656a1.742,1.742,0,0,1-.736.719l.347.452a2.122,2.122,0,0,0,.875-.907c.4-.749.22-1.315-.219-1.548-.964-.514-1.445,1.19-1.927.931-.166-.088-.227-.3-.035-.658a1.692,1.692,0,0,1,.594-.618l-.36-.434a2.012,2.012,0,0,0-.72.787C-213.548,309.063-213.367,309.621-212.921,309.859Z" transform="translate(221.092 -281.791)" fill="#1f335e"/>
  <path id="Path_1170" data-name="Path 1170" d="M-209.113,307.23l-1.041-.649.719-1.152,1.041.648.366-.587-2.538-1.582-.366.587,1,.624-.719,1.153-1-.624-.366.587,2.538,1.582Z" transform="translate(221.092 -281.791)" fill="#1f335e"/>
  <path id="Path_1171" data-name="Path 1171" d="M-206.042,302.84l-.317-.612.893-1.056.656.213.466-.553-3.13-.906-.439.519,1.416,2.935Zm-1.139-2.214,1.175.374-.61.721Z" transform="translate(221.092 -281.791)" fill="#1f335e"/>
  <path id="Path_1172" data-name="Path 1172" d="M-203.306,298.631c.128.131.1.344-.187.629a1.753,1.753,0,0,1-.918.464l.193.533a2.112,2.112,0,0,0,1.108-.6c.608-.594.607-1.188.259-1.544-.763-.78-1.737.7-2.118.308-.131-.134-.127-.354.165-.64a1.694,1.694,0,0,1,.753-.408l-.212-.523a2.01,2.01,0,0,0-.923.534c-.607.589-.6,1.176-.251,1.538C-204.665,299.716-203.694,298.232-203.306,298.631Z" transform="translate(221.092 -281.791)" fill="#1f335e"/>
  <path id="Path_1173" data-name="Path 1173" d="M-200.92,296.487c.116.143.072.354-.248.611a1.76,1.76,0,0,1-.963.379l.145.551a2.142,2.142,0,0,0,1.165-.5c.664-.537.718-1.13.4-1.518-.689-.855-1.8.534-2.149.1-.118-.147-.092-.364.227-.622a1.7,1.7,0,0,1,.792-.339l-.163-.543a2.015,2.015,0,0,0-.974.447c-.662.534-.715,1.121-.4,1.516C-202.383,297.443-201.271,296.052-200.92,296.487Z" transform="translate(221.092 -281.791)" fill="#1f335e"/>
  <path id="Path_1174" data-name="Path 1174" d="M-197.869,295.284a1.54,1.54,0,0,0,.459-2.193,1.54,1.54,0,0,0-2.214-.336,1.541,1.541,0,0,0-.46,2.192A1.539,1.539,0,0,0-197.869,295.284Zm-1.419-2.048a.909.909,0,0,1,1.306.253.909.909,0,0,1-.221,1.314.909.909,0,0,1-1.308-.254A.909.909,0,0,1-199.288,293.236Z" transform="translate(221.092 -281.791)" fill="#1f335e"/>
  <path id="Path_1175" data-name="Path 1175" d="M-194.5,293.177a1.539,1.539,0,0,0,.809-1.065l-.586-.14a.951.951,0,0,1-.479.675.914.914,0,0,1-1.3-.363.912.912,0,0,1,.362-1.3.952.952,0,0,1,.822-.063l.186-.574a1.535,1.535,0,0,0-1.325.141,1.53,1.53,0,0,0-.652,2.134A1.529,1.529,0,0,0-194.5,293.177Z" transform="translate(221.092 -281.791)" fill="#1f335e"/>
  <rect id="Rectangle_354" data-name="Rectangle 354" width="0.693" height="2.991" transform="translate(27.291 7.6) rotate(-24.771)" fill="#1f335e"/>
  <path id="Path_1176" data-name="Path 1176" d="M-190.476,290.48l1.29-.492.473.5.676-.256-2.3-2.307-.636.242-.179,3.252.658-.252Zm.055-1.8.848.9-.883.336Z" transform="translate(221.092 -281.791)" fill="#1f335e"/>
  <path id="Path_1177" data-name="Path 1177" d="M-187.564,287.569l.631,2.33.666-.179-.632-2.33.918-.248-.147-.541-2.5.678.147.541Z" transform="translate(221.092 -281.791)" fill="#1f335e"/>
  <rect id="Rectangle_355" data-name="Rectangle 355" width="0.689" height="2.975" transform="translate(36.129 4.522) rotate(-12.3)" fill="#1f335e"/>
  <path id="Path_1178" data-name="Path 1178" d="M-181.01,288.673a1.542,1.542,0,0,0,1.4-1.752,1.537,1.537,0,0,0-1.825-1.3,1.541,1.541,0,0,0-1.4,1.749A1.542,1.542,0,0,0-181.01,288.673Zm-.346-2.467a.907.907,0,0,1,1.054.812.91.91,0,0,1-.789,1.074.909.909,0,0,1-1.054-.815A.906.906,0,0,1-181.356,286.206Z" transform="translate(221.092 -281.791)" fill="#1f335e"/>
  <path id="Path_1179" data-name="Path 1179" d="M-177.839,288.305l-.068-1.8,1.551,1.747.564-.021-.113-2.972-.679.027.068,1.8-1.546-1.749-.57.021.114,2.972Z" transform="translate(221.092 -281.791)" fill="#1f335e"/>
  <path id="Path_1180" data-name="Path 1180" d="M-171.408,288.513a1.54,1.54,0,0,0,1.793-1.343,1.541,1.541,0,0,0-1.442-1.714,1.539,1.539,0,0,0-1.792,1.343A1.54,1.54,0,0,0-171.408,288.513Zm.284-2.475a.909.909,0,0,1,.816,1.053.908.908,0,0,1-1.033.84.91.91,0,0,1-.816-1.053A.908.908,0,0,1-171.124,286.038Z" transform="translate(221.092 -281.791)" fill="#1f335e"/>
  <path id="Path_1181" data-name="Path 1181" d="M-168,287.858l1.346.293.117-.54-1.345-.293.167-.768,1.524.332.118-.54-2.2-.478-.634,2.906.673.147Z" transform="translate(221.092 -281.791)" fill="#1f335e"/>
  <path id="Path_1182" data-name="Path 1182" d="M-160.6,289.585a1.484,1.484,0,0,0-1.052-1.948l-1.274-.45-.99,2.806,1.274.45A1.484,1.484,0,0,0-160.6,289.585Zm-1.865-1.634.594.209a.889.889,0,0,1,.615,1.2.888.888,0,0,1-1.229.544l-.594-.21Z" transform="translate(221.092 -281.791)" fill="#1f335e"/>
  <path id="Path_1183" data-name="Path 1183" d="M-157.914,291.817l-1.478-.682.29-.628,1.262.581.225-.488-1.262-.581.273-.591,1.427.659.234-.5-2.052-.947-1.253,2.716,2.1.97Z" transform="translate(221.092 -281.791)" fill="#1f335e"/>
  <path id="Path_1184" data-name="Path 1184" d="M-156.715,293.09l.422-.714.516.307.029.017.071,1,.637.376-.087-1.162a.969.969,0,0,0,1.005-.5,1.11,1.11,0,0,0-.562-1.585l-1.109-.657-1.515,2.56Zm1.23-2.076.483.284c.361.214.447.487.281.769s-.448.338-.81.123l-.483-.285Z" transform="translate(221.092 -281.791)" fill="#1f335e"/>
  <path id="Path_1185" data-name="Path 1185" d="M-153.737,294.9l1.034-1.42-.138,1.679.252.184,1.581-.676-1.054,1.452.525.383,1.754-2.422-.459-.335-1.986.853.189-2.162-.461-.336-1.761,2.417Z" transform="translate(221.092 -281.791)" fill="#1f335e"/>
  <path id="Path_1186" data-name="Path 1186" d="M-150.449,297.406l.621-.3,1.033.917-.226.652.54.479.981-3.107-.509-.453-2.967,1.344Zm2.243-1.085-.4,1.165-.706-.627Z" transform="translate(221.092 -281.791)" fill="#1f335e"/>
  <path id="Path_1187" data-name="Path 1187" d="M-147.648,300.006l.469.5,1.767-1.646.649.7.41-.384-1.766-1.9-.41.382.649.7Z" transform="translate(221.092 -281.791)" fill="#1f335e"/>
  <path id="Path_1188" data-name="Path 1188" d="M-145.152,302.89a1.54,1.54,0,0,0,2.213.347,1.539,1.539,0,0,0,.222-2.227,1.541,1.541,0,0,0-2.213-.349A1.54,1.54,0,0,0-145.152,302.89Zm.649-1.676a.906.906,0,0,1,1.322.155.906.906,0,0,1-.185,1.317.908.908,0,0,1-1.323-.154A.907.907,0,0,1-144.5,301.214Z" transform="translate(221.092 -281.791)" fill="#1f335e"/>
  <path id="Path_1189" data-name="Path 1189" d="M-142.306,306.85l.469-.309-.821-1.245,2.015-1.329-.379-.575-2.483,1.636Z" transform="translate(221.092 -281.791)" fill="#1f335e"/>
  <path id="Path_1190" data-name="Path 1190" d="M-141.267,308.761a1.541,1.541,0,0,0,2.123.712,1.539,1.539,0,0,0,.591-2.16,1.54,1.54,0,0,0-2.125-.712A1.538,1.538,0,0,0-141.267,308.761Zm.918-1.544a.906.906,0,0,1,1.277.372.906.906,0,0,1-.4,1.269.909.909,0,0,1-1.279-.372A.906.906,0,0,1-140.349,307.217Z" transform="translate(221.092 -281.791)" fill="#1f335e"/>
  <path id="Path_1191" data-name="Path 1191" d="M-139.569,312.346a2.059,2.059,0,0,0,.8.969l1.116-.456-.237-.584-.806.331a1.078,1.078,0,0,1-.321-.448.918.918,0,0,1,.516-1.253.916.916,0,0,1,1.248.539,1,1,0,0,1-.019.84l.546.253a1.583,1.583,0,0,0,0-1.347,1.533,1.533,0,0,0-2.042-.931A1.533,1.533,0,0,0-139.569,312.346Z" transform="translate(221.092 -281.791)" fill="#1f335e"/>
  <rect id="Rectangle_356" data-name="Rectangle 356" width="2.975" height="0.688" transform="translate(82.414 32.758) rotate(-18.071)" fill="#1f335e"/>
  <path id="Path_1192" data-name="Path 1192" d="M-136.063,315.711c-1.073.262-.29,1.851-.831,1.982-.177.045-.349-.084-.447-.479a1.753,1.753,0,0,1,.069-1.029l-.559-.1a2.128,2.128,0,0,0-.047,1.259c.2.826.713,1.125,1.2,1.007,1.061-.259.282-1.85.815-1.979.181-.044.367.071.465.468a1.676,1.676,0,0,1-.031.856l.558.081a2.007,2.007,0,0,0,.011-1.065C-135.065,315.886-135.571,315.59-136.063,315.711Z" transform="translate(221.092 -281.791)" fill="#1f335e"/>
  <path id="Path_1193" data-name="Path 1193" d="M-134.832,319.7l-2.381.394.113.679,2.381-.394.156.938.554-.091-.425-2.557-.554.091Z" transform="translate(221.092 -281.791)" fill="#1f335e"/>
  <path id="Path_1194" data-name="Path 1194" d="M-134.739,322.21c-1.1.1-.566,1.787-1.121,1.836-.181.017-.332-.137-.368-.543a1.752,1.752,0,0,1,.222-1.005l-.537-.187a2.129,2.129,0,0,0-.236,1.238c.075.846.537,1.219,1.032,1.175,1.088-.1.556-1.786,1.1-1.836.185-.016.353.127.388.534a1.664,1.664,0,0,1-.159.84l.539.167a1.988,1.988,0,0,0,.171-1.052C-133.779,322.535-134.236,322.166-134.739,322.21Z" transform="translate(221.092 -281.791)" fill="#1f335e"/>
  <path id="Path_1195" data-name="Path 1195" d="M-175.59,281.791a45.553,45.553,0,0,0-45.5,45.5,45.554,45.554,0,0,0,45.5,45.5,45.554,45.554,0,0,0,45.5-45.5A45.553,45.553,0,0,0-175.59,281.791Zm0,89.939a44.488,44.488,0,0,1-44.437-44.437,44.488,44.488,0,0,1,44.437-44.437,44.487,44.487,0,0,1,44.437,44.437A44.487,44.487,0,0,1-175.59,371.73Z" transform="translate(221.092 -281.791)" fill="#1f335e"/>
  <path id="Path_1196" data-name="Path 1196" d="M-175.6,290.6a36.737,36.737,0,0,0-36.695,36.7,36.737,36.737,0,0,0,36.695,36.7,36.737,36.737,0,0,0,36.7-36.7v-.014A36.725,36.725,0,0,0-175.6,290.6Zm35.63,36.7a35.67,35.67,0,0,1-35.63,35.63,35.67,35.67,0,0,1-35.63-35.63,35.673,35.673,0,0,1,35.644-35.63,35.657,35.657,0,0,1,35.616,35.616Z" transform="translate(221.092 -281.791)" fill="#1f335e"/>
  <path id="Path_1197" data-name="Path 1197" d="M-187.1,316.3c0-6.7-4.563-7.56-8.539-7.56h-4.017v15.633l-.16.655,1.656.006c.321,0,.642.008.965.008a11.981,11.981,0,0,0,6.211-1.305A8.229,8.229,0,0,0-187.1,316.3Zm-11.048,7.67-.443,0V309.8h2.952c5.308,0,7.474,1.882,7.475,6.525a7.171,7.171,0,0,1-3.362,6.492C-193.642,324.016-195.835,323.994-198.149,323.968Z" transform="translate(221.092 -281.791)" fill="#1f335e"/>
  <path id="Path_1198" data-name="Path 1198" d="M-184.342,327.169h15.73l-7.93-22.564Zm14.227-1.065h-12.733l6.315-18.265Z" transform="translate(221.092 -281.791)" fill="#1f335e"/>
  <path id="Path_1199" data-name="Path 1199" d="M-158.592,306.6c-.472.007-.947.014-1.424.014h-9.822v.1l-4.017-11.5h-2.21l-6.9,19.125c-.386-6.823-6.052-7.722-11.01-7.722h-9.835v40.318h9.277l-2.116,5.865.929-.189a16.839,16.839,0,0,1,2.153-.295,9.645,9.645,0,0,1,1.333.123c.312.042.641.088,1.009.122l.459.043.108-.447c.427-1.776.917-3.646,1.541-5.889.016-.056.033-.112.049-.169a8.864,8.864,0,0,0,2.82-1.6,12.722,12.722,0,0,0,4.412-10.124,10.5,10.5,0,0,0-.571-3.788h12.63v16.346h6.158l.018.06c.476,1.58,1.021,3.439,1.45,5.22l.107.442.453-.036c.33-.027.66-.06.993-.093a23.768,23.768,0,0,1,2.377-.153,19.772,19.772,0,0,1,2.1.135c.389.04.79.08,1.229.111l.8.057-2.093-6.036a12.015,12.015,0,0,0,7.632-4.281c3.542-4.423,5.264-10.1,5.264-17.349,0-6.11-1.6-11.349-4.5-14.753C-151,306.478-154.864,306.537-158.592,306.6ZM-193.337,343.6a7.012,7.012,0,0,1-1.3.129h-3.973V327.155h2.106c4.071,0,6.607.988,7.969,3.09l.007.015Zm1.752,7.84c-.176-.022-.344-.046-.506-.067a10.467,10.467,0,0,0-1.5-.133h-.016c-.474.033-.946.084-1.411.154l7.083-19.637a8.969,8.969,0,0,1,.559,1.913l0,.023c.026.148.034.3.053.448a9.3,9.3,0,0,1,.026,1.182v.789c-.013.24-.052.476-.084.714-.326,1.009-.645,2.01-.969,3.051-.106.2-.2.41-.325.6l-.058.128c-.5,1.652-.994,3.3-1.461,4.984l-.257.921.165-.048C-190.791,348.317-191.214,349.928-191.585,351.444Zm4.643-7.759a7.8,7.8,0,0,1-1.746,1.1c.338-1.171.676-2.345,1.024-3.5.106-.352.208-.671.312-1.006a10.264,10.264,0,0,0,1.018-3.2l.151-.468v-.874a10.117,10.117,0,0,0-.074-1.7,10.178,10.178,0,0,0-1.367-4.348c-1.589-2.454-4.409-3.6-8.875-3.6h-3.172V344.8h5.037a5.442,5.442,0,0,0,.66-.027l-.391,1.091h-8.381V307.674h8.77c7.079,0,9.966,2.148,9.966,7.434a9.643,9.643,0,0,1-7.062,9.674l.106,1.044a10.547,10.547,0,0,1,3.535.878l0,.013.431.209a7.211,7.211,0,0,1,3.335,3.345,9.5,9.5,0,0,1,.769,4.1A11.684,11.684,0,0,1-186.942,343.685Zm.8-20.556-.928,2.572a11.56,11.56,0,0,0-1.821-.619A10.752,10.752,0,0,0-186.142,323.129Zm3.283,6.387a8.284,8.284,0,0,0-3.25-3.342l10.791-29.9h.706l9.791,28.237.033-.006,6.554,18.989a25.6,25.6,0,0,1-5.263-.13c-.075-.255-.151-.507-.23-.759l-.024-.168c-1.329-4.344-2.71-8.542-4.1-12.475l-.185-.443Zm19.073-5.374V310.014c.618-.019,1.046-.068,1.461-.115a13.5,13.5,0,0,1,1.769-.111c8.881,0,12.183,4.372,12.183,16.134,0,8.042-1.887,13.461-5.611,16.1a8.275,8.275,0,0,1-3.152,1.382Zm7.772,27.3a20.821,20.821,0,0,0-2.209-.141,24.483,24.483,0,0,0-2.483.16l-.521.051c-.353-1.412-.766-2.849-1.152-4.146h1.026a35.9,35.9,0,0,0,4.239-.177l1.488,4.292Zm7.418-40.5c2.739,3.211,4.247,8.205,4.247,14.062,0,7-1.645,12.456-5.027,16.68a10.943,10.943,0,0,1-7.406,3.964,33.7,33.7,0,0,1-4.532.214h-7.4V330.8c1.317,3.744,2.624,7.73,3.89,11.865l.032.1v1.653l.865-.005a26.77,26.77,0,0,0,6.558.115,9.35,9.35,0,0,0,4-1.636c4.019-2.854,6.057-8.564,6.057-16.971,0-12.377-3.714-17.2-13.248-17.2a14.7,14.7,0,0,0-1.889.118,14.258,14.258,0,0,1-1.873.115h-.533V321.07l-3.921-11.318v-2.078h8.756c.482,0,.962-.008,1.441-.015C-154.928,307.6-151.486,307.549-148.6,310.942Z" transform="translate(221.092 -281.791)" fill="#1f335e"/>
</svg>
