<?xml version="1.0" encoding="utf-8"?>
<!-- Generator: Adobe Illustrator 26.0.2, SVG Export Plug-In . SVG Version: 6.00 Build 0)  -->
<svg version="1.1" id="Component_19_1" xmlns="http://www.w3.org/2000/svg" xmlns:xlink="http://www.w3.org/1999/xlink" x="0px"
	 y="0px" viewBox="0 0 384.7 91" style="enable-background:new 0 0 384.7 91;" xml:space="preserve">
<style type="text/css">
	.st0{fill:#FFFFFF;}
</style>
<path id="Path_1096" class="st0" d="M11.9,69.3l0.4-0.3l-0.7-1l0.4-0.3l0.8,1.1l0.4-0.3L12.1,67L10,68.5l1.1,1.6l0.4-0.3l-0.8-1.1
	l0.5-0.3L11.9,69.3z"/>
<path id="Path_1097" class="st0" d="M14.1,70.4c0.1,0.2,0.2,0.4,0.3,0.7l0.5-0.1c0-0.3-0.2-0.6-0.4-0.8c-0.4-0.6-0.9-0.6-1.3-0.4
	c-0.7,0.6,0.4,1.5,0.1,1.8c-0.1,0.1-0.3,0.1-0.5-0.2c-0.2-0.2-0.3-0.5-0.3-0.8l-0.5,0.1c0,0.4,0.2,0.7,0.4,1c0.4,0.6,1,0.6,1.3,0.4
	c0.7-0.6-0.4-1.5-0.1-1.8C13.7,70.1,13.9,70.1,14.1,70.4z"/>
<path id="Path_1098" class="st0" d="M15,71.6l0.6,0.6l-1.5,1.4l0.4,0.4l1.5-1.4l0.6,0.6l0.3-0.3l-1.5-1.6L15,71.6z"/>
<path id="Path_1099" class="st0" d="M15.7,74.8c-0.1,0.1-0.1,0.4,0,0.5c0,0,0,0,0,0c0.1,0.1,0.4,0.1,0.5,0c0,0,0,0,0,0
	c0.1-0.1,0.1-0.3,0-0.5c0,0,0,0,0,0C16.1,74.7,15.9,74.7,15.7,74.8C15.7,74.8,15.7,74.8,15.7,74.8z"/>
<path id="Path_1100" class="st0" d="M19.4,75.2l-0.3,0.4l0.4,0.3l-1.3,1.6l0.5,0.4l1.6-2L19.4,75.2z"/>
<path id="Path_1101" class="st0" d="M21.7,77c-0.4-0.3-0.9-0.3-1.2,0.1c0,0,0,0,0,0.1c-0.3,0.4-0.2,0.9,0.2,1.1c0,0,0,0,0,0
	c0.2,0.1,0.4,0.2,0.6,0.2c-0.2,0.3-0.6,0.4-0.9,0.2c0,0-0.1,0-0.1-0.1c-0.1-0.1-0.2-0.2-0.3-0.4l-0.4,0.2c0.1,0.2,0.3,0.4,0.5,0.5
	c0.5,0.4,1.3,0.3,1.7-0.2c0-0.1,0.1-0.1,0.1-0.2c0.4-0.4,0.4-1.1,0-1.5C21.8,77.1,21.8,77.1,21.7,77z M21.6,78
	c-0.1,0.2-0.4,0.2-0.6,0.1c0,0,0,0,0,0c-0.2-0.1-0.3-0.3-0.2-0.5c0,0,0,0,0,0c0.1-0.2,0.4-0.2,0.5-0.1c0,0,0,0,0,0
	C21.7,77.5,21.7,77.7,21.6,78C21.6,77.9,21.6,78,21.6,78z"/>
<path id="Path_1102" class="st0" d="M24,78.6c-0.3-0.2-0.7-0.3-1.1-0.1l0.2,0.5c0.2-0.1,0.4,0,0.6,0.1c0.2,0.1,0.3,0.3,0.2,0.5
	c-0.1,0.1-0.2,0.2-0.5,0.2l-1.3,0.2l-0.2,0.3l1.6,1l0.3-0.4l-0.9-0.6l0.8-0.1c0.3,0,0.6-0.2,0.8-0.4C24.6,79.3,24.5,78.9,24,78.6z"
	/>
<path id="Path_1103" class="st0" d="M26.4,80c-0.6-0.3-1.2,0-1.5,0.5c0,0,0,0.1-0.1,0.1c-0.4,0.5-0.3,1.2,0.2,1.6
	c0,0,0.1,0.1,0.1,0.1c0.6,0.3,1.2,0,1.5-0.5c0,0,0-0.1,0.1-0.1c0.4-0.5,0.3-1.2-0.2-1.6C26.5,80,26.4,80,26.4,80z M26.2,81.4
	c-0.3,0.5-0.6,0.6-0.8,0.5s-0.3-0.4-0.1-1s0.6-0.6,0.8-0.5S26.5,80.9,26.2,81.4L26.2,81.4z"/>
<rect id="Rectangle_345" x="29.2" y="82.6" transform="matrix(0.3678 -0.9299 0.9299 0.3678 -58.7554 79.8966)" class="st0" width="0.5" height="1"/>
<path id="Path_1104" class="st0" d="M34.2,84.3L33.1,84l0.3-1l-0.6-0.2l-0.7,2.4l0.6,0.2l0.3-1l1.1,0.3l-0.3,1l0.6,0.2l0.7-2.4
	l-0.6-0.2L34.2,84.3z"/>
<path id="Path_1105" class="st0" d="M35.6,86.2l1.9,0.4l0.1-0.5l-1.3-0.3l0.1-0.6l1.1,0.3l0.1-0.4l-1.1-0.3l0.1-0.5l1.3,0.3l0.1-0.5
	l-1.9-0.4L35.6,86.2z"/>
<path id="Path_1106" class="st0" d="M39.7,84.5l-1.4,2.4l0.6,0.1l0.3-0.5l1.2,0.2l0.2,0.6l0.6,0.1l-0.8-2.6L39.7,84.5z M39.4,86
	l0.5-0.9l0.3,1L39.4,86z"/>
<path id="Path_1107" class="st0" d="M42.8,84.8l-0.6,0L42,87.3l1.9,0.1l0-0.5l-1.3-0.1L42.8,84.8z"/>
<path id="Path_1108" class="st0" d="M46.5,84.8l-2.2,0.1l0,0.5l0.8,0l0.1,2.1l0.6,0l-0.1-2.1l0.8,0L46.5,84.8z"/>
<path id="Path_1109" class="st0" d="M49.1,84.7l0.1,1L48,85.8l-0.1-1l-0.6,0l0.2,2.5l0.6,0l-0.1-1l1.1-0.1l0.1,1l0.6,0l-0.2-2.5
	L49.1,84.7z"/>
<path id="Path_1110" class="st0" d="M52.2,84.3l-0.5,1.2l-0.9-1l-0.6,0.1l1.3,1.4l0.2,0.9l0.6-0.1L52.1,86l0.7-1.8L52.2,84.3z"/>
<path id="Path_1111" class="st0" d="M55.7,84.3c0-0.2,0.1-0.3,0.4-0.4c0.2-0.1,0.5-0.1,0.7,0l0.1-0.5c-0.3-0.1-0.6-0.1-0.9,0
	c-0.7,0.2-0.9,0.6-0.8,1c0.3,0.9,1.6,0.2,1.7,0.6c0,0.1-0.1,0.3-0.4,0.4c-0.3,0.1-0.6,0.1-0.9,0L55.5,86c0.3,0.1,0.7,0.1,1.1,0
	c0.7-0.2,0.9-0.6,0.8-1C57.1,84.1,55.8,84.8,55.7,84.3z"/>
<path id="Path_1112" class="st0" d="M60,82.2l-0.6,0.2l-0.7,1.5l-0.4-1.1L57.8,83l0.8,2.4l0.6-0.2l-0.2-0.6l0.2-0.4l1.1,0.7l0.6-0.2
	l-1.5-1L60,82.2z"/>
<path id="Path_1113" class="st0" d="M60.7,81.9l1,2.3l0.5-0.2l-1-2.3L60.7,81.9z"/>
<path id="Path_1114" class="st0" d="M63.8,80.5l0.7,1.4L62.7,81l-0.4,0.2l1.2,2.3l0.5-0.3l-0.7-1.4l1.8,0.8l0.4-0.2l-1.2-2.3
	L63.8,80.5z"/>
<path id="Path_1115" class="st0" d="M68.7,78.9l-1,0.6L67.4,79l1.1-0.7l-0.3-0.4l-1.6,1L68,81l0.5-0.3L68,79.9l1-0.6L68.7,78.9z"/>
<path id="Path_1116" class="st0" d="M69.8,76.6c-0.6,0.4-0.7,1.2-0.3,1.8c0,0,0,0,0,0.1c0.4,0.6,1.3,0.7,1.8,0.2c0,0,0,0,0.1,0
	c0.6-0.4,0.7-1.2,0.3-1.8c0,0,0,0,0-0.1C71.3,76.2,70.5,76.1,69.8,76.6C69.9,76.6,69.8,76.6,69.8,76.6z M71.1,78.3
	c-0.3,0.3-0.8,0.2-1.1-0.1c0,0,0,0,0,0c-0.3-0.3-0.2-0.8,0.1-1.1c0,0,0,0,0,0c0.3-0.3,0.8-0.2,1.1,0.1c0,0,0,0,0,0
	C71.5,77.5,71.5,77.9,71.1,78.3C71.2,78.2,71.2,78.2,71.1,78.3L71.1,78.3z"/>
<path id="Path_1117" class="st0" d="M73.9,74.4c-0.4-0.4-1-0.4-1.3,0c0,0-0.1,0.1-0.1,0.1l-0.8,0.8l1.8,1.8l0.4-0.4l-0.5-0.5
	l0.4-0.4l0,0l0.8,0.2l0.5-0.4l-1-0.2C74.2,75,74.1,74.6,73.9,74.4z M73.3,75.5L73,75.8l-0.6-0.6l0.3-0.3c0.3-0.2,0.5-0.3,0.7-0.1
	S73.6,75.2,73.3,75.5L73.3,75.5z"/>
<path id="Path_1118" class="st0" d="M75.5,71.3l1.2,2.5l0.4-0.5l-0.3-0.5l0.8-0.9l0.6,0.2l0.4-0.5l-2.7-0.8L75.5,71.3z M77.2,71.8
	l-0.5,0.6l-0.5-0.9L77.2,71.8z"/>
<path id="Path_1119" class="st0" d="M79.1,70.3l-1.7-1.2l-0.3,0.5l2.1,1.5l1.1-1.5l-0.4-0.3L79.1,70.3z"/>
<path id="Path_1120" class="st0" d="M80.7,68L79,66.9l-0.3,0.5l2.1,1.4l1-1.6l-0.4-0.3L80.7,68z"/>
<path id="Path_1121" class="st0" d="M115.4,23.9c0.1-1.8-1.1-3.3-2.8-3.8c1.3-0.6,2.1-1.9,2-3.4c0-2.4-2-4-5.8-4h-7.5v15.3h7.9
	C113.3,28.1,115.4,26.6,115.4,23.9z M104.9,15.5h3.5c1.7,0,2.7,0.6,2.7,1.8s-0.9,1.8-2.7,1.8h-3.5V15.5z M104.9,25.5v-3.8h4.1
	c1.8,0,2.8,0.6,2.8,1.9c0,1.3-1,1.9-2.8,1.9H104.9z"/>
<path id="Path_1122" class="st0" d="M123.2,23.9h3.3l2.9,4.3h3.8l-3.4-4.9c2-0.8,3.2-2.7,3.1-4.8c0-3.4-2.6-5.6-6.6-5.6h-6.6v15.3
	h3.5L123.2,23.9z M123.2,15.7h2.9c2.2,0,3.3,1,3.3,2.7c0,1.7-1.1,2.7-3.3,2.7h-2.9V15.7z"/>
<rect id="Rectangle_346" x="137.2" y="12.8" class="st0" width="3.5" height="15.3"/>
<path id="Path_1123" class="st0" d="M149.1,28.1h3.5V15.7h4.9v-2.9h-13.3v2.9h4.9V28.1z"/>
<rect id="Rectangle_347" x="160.9" y="12.8" class="st0" width="3.5" height="15.3"/>
<path id="Path_1124" class="st0" d="M172.2,17.2c0-1,0.8-1.7,2.9-1.7c1.5,0,3,0.4,4.2,1.2l1.1-2.7c-1.6-0.9-3.4-1.4-5.3-1.4
	c-4.3,0-6.4,2.2-6.4,4.8c0,5.7,8.9,3.7,8.9,6.6c0,0.9-0.9,1.6-2.9,1.6c-1.8,0-3.6-0.6-5-1.6l-1.2,2.7c1.8,1.2,4,1.8,6.2,1.8
	c4.4,0,6.5-2.2,6.5-4.7C181.1,18,172.2,20,172.2,17.2z"/>
<path id="Path_1125" class="st0" d="M188.6,21.8h6.9v6.3h3.5V12.8h-3.5v6h-6.9v-6h-3.5v15.3h3.5L188.6,21.8z"/>
<path id="Path_1126" class="st0" d="M214.9,24.8h7.1l1.4,3.3h3.7l-6.8-15.3h-3.5l-6.8,15.3h3.6L214.9,24.8z M218.5,16.3l2.4,5.9H216
	L218.5,16.3z"/>
<path id="Path_1127" class="st0" d="M235.2,25.5c-1.8,0-3.6-0.6-5-1.6l-1.2,2.7c1.8,1.2,4,1.8,6.2,1.8c4.4,0,6.5-2.2,6.5-4.7
	c0-5.6-8.9-3.7-8.9-6.5c0-1,0.8-1.7,2.9-1.7c1.5,0,3,0.4,4.2,1.2l1.1-2.7c-1.6-0.9-3.4-1.4-5.3-1.4c-4.3,0-6.4,2.2-6.4,4.8
	c0,5.7,8.9,3.7,8.9,6.6C238.2,24.8,237.3,25.5,235.2,25.5z"/>
<path id="Path_1128" class="st0" d="M248.3,17.2c0-1,0.8-1.7,2.9-1.7c1.5,0,3,0.4,4.2,1.2l1.1-2.7c-1.6-0.9-3.4-1.4-5.3-1.4
	c-4.3,0-6.4,2.2-6.4,4.8c0,5.7,8.9,3.7,8.9,6.6c0,0.9-0.9,1.6-2.9,1.6c-1.8,0-3.6-0.6-5-1.6l-1.2,2.7c1.8,1.2,4,1.8,6.2,1.8
	c4.4,0,6.5-2.2,6.5-4.7C257.2,18,248.3,20,248.3,17.2z"/>
<path id="Path_1129" class="st0" d="M268.5,12.6c-4.8,0-8.4,3.4-8.4,7.9s3.5,7.9,8.4,7.9c4.8,0,8.4-3.3,8.4-7.9
	S273.4,12.6,268.5,12.6z M268.5,25.4c-2.7,0.1-4.9-2.1-5-4.8c-0.1-2.7,2.1-4.9,4.8-5c2.7-0.1,4.9,2.1,5,4.8c0,0,0,0.1,0,0.1
	c0.1,2.6-1.9,4.8-4.4,4.9C268.8,25.4,268.7,25.4,268.5,25.4L268.5,25.4z"/>
<path id="Path_1130" class="st0" d="M288.4,28.4c2.4,0.1,4.7-0.9,6.3-2.7l-2.3-2.1c-0.9,1.2-2.4,1.8-3.8,1.8c-2.7,0-4.9-2.3-4.8-5
	c0-2.6,2.2-4.8,4.8-4.8c1.5,0,2.9,0.6,3.8,1.8l2.3-2.1c-1.6-1.8-3.9-2.8-6.3-2.7c-4.8,0-8.3,3.3-8.3,7.9S283.7,28.4,288.4,28.4z"/>
<rect id="Rectangle_348" x="298.6" y="12.8" class="st0" width="3.5" height="15.3"/>
<path id="Path_1131" class="st0" d="M310.3,24.8h7.1l1.4,3.3h3.7l-6.8-15.3h-3.5l-6.8,15.3h3.6L310.3,24.8z M313.9,16.3l2.4,5.9
	h-4.9L313.9,16.3z"/>
<path id="Path_1132" class="st0" d="M323.1,15.7h4.9v12.4h3.5V15.7h4.9v-2.9h-13.3V15.7z"/>
<rect id="Rectangle_349" x="339.8" y="12.8" class="st0" width="3.5" height="15.3"/>
<path id="Path_1133" class="st0" d="M355.9,28.4c4.8,0,8.4-3.3,8.4-7.9s-3.6-7.9-8.4-7.9c-4.8,0-8.4,3.4-8.4,7.9
	S351.1,28.4,355.9,28.4z M355.9,15.6c2.7-0.1,5,2.1,5,4.8c0.1,2.7-2.1,5-4.8,5c-2.7,0.1-5-2.1-5-4.8c0,0,0-0.1,0-0.1
	c-0.1-2.6,1.8-4.8,4.4-4.9C355.7,15.6,355.8,15.6,355.9,15.6L355.9,15.6z"/>
<path id="Path_1134" class="st0" d="M372,18.8l7.6,9.3h2.9V12.8H379v9.3l-7.6-9.3h-2.9v15.3h3.5L372,18.8z"/>
<path id="Path_1135" class="st0" d="M108.8,38.8c-4.8,0-8.4,3.4-8.4,7.9s3.5,7.9,8.4,7.9c4.8,0,8.4-3.3,8.4-7.9
	S113.6,38.8,108.8,38.8z M108.8,51.6c-2.6,0.1-4.7-2-4.8-4.5c0-0.1,0-0.2,0-0.4c-0.1-2.6,1.9-4.8,4.4-4.9c0.1,0,0.2,0,0.4,0
	c2.6-0.1,4.7,2,4.8,4.5c0,0.1,0,0.2,0,0.4c0.1,2.6-1.9,4.8-4.4,4.9C109,51.6,108.9,51.6,108.8,51.6L108.8,51.6z"/>
<path id="Path_1136" class="st0" d="M125.3,41.9h8V39h-11.6v15.3h3.5v-5.6h7.1v-2.8h-7.1V41.9z"/>
<path id="Path_1137" class="st0" d="M152.8,39h-6.9v15.3h6.9c5,0,8.4-3,8.4-7.6S157.8,39,152.8,39z M152.6,51.4h-3.2V42h3.2
	c3,0,5,1.8,5,4.7S155.7,51.4,152.6,51.4z"/>
<path id="Path_1138" class="st0" d="M169.4,48h7.1v-2.8h-7.1v-3.3h8V39h-11.6v15.3h11.8v-2.8h-8.3L169.4,48z"/>
<path id="Path_1139" class="st0" d="M192.6,49.4c2-0.8,3.2-2.7,3.1-4.8c0-3.4-2.6-5.5-6.6-5.5h-6.6v15.3h3.5v-4.3h3.3l3,4.3h3.8
	L192.6,49.4z M188.9,47.3H186v-5.3h2.9c2.2,0,3.3,1,3.3,2.7C192.2,46.3,191.1,47.3,188.9,47.3z"/>
<path id="Path_1140" class="st0" d="M214.8,39l-5.6,9.5l-5.7-9.5h-2.9v15.3h3.3v-9l4.5,7.4h1.6l4.5-7.6l0,9.2h3.3l0-15.3L214.8,39z"
	/>
<path id="Path_1141" class="st0" d="M231.7,39h-3.5l-6.8,15.3h3.6l1.4-3.3h7.1l1.4,3.3h3.7L231.7,39z M227.5,48.4l2.4-5.9l2.4,5.9
	H227.5z"/>
<path id="Path_1142" class="st0" d="M252.9,39h-13.3v2.9h4.9v12.4h3.5V41.9h4.9V39z"/>
<path id="Path_1143" class="st0" d="M272.3,46.7c0-4.6-3.6-7.9-8.4-7.9c-4.8,0-8.4,3.4-8.4,7.9s3.5,7.9,8.4,7.9
	C268.8,54.6,272.3,51.3,272.3,46.7z M259.2,46.7c0.1-2.6,2.2-4.7,4.9-4.7c2.6,0.1,4.7,2.2,4.7,4.9c-0.1,2.6-2.2,4.7-4.8,4.7
	c-2.6,0.1-4.7-2-4.8-4.5C259.2,46.9,259.2,46.8,259.2,46.7z"/>
<path id="Path_1144" class="st0" d="M288.2,51.5h-7.7V39H277v15.3h11.2L288.2,51.5z"/>
<path id="Path_1145" class="st0" d="M307.6,46.7c0-4.6-3.6-7.9-8.4-7.9c-4.8,0-8.4,3.4-8.4,7.9s3.5,7.9,8.4,7.9
	C304,54.6,307.6,51.3,307.6,46.7z M299.2,51.6c-2.7,0.1-5-2.1-5-4.8c-0.1-2.7,2.1-5,4.8-5c2.7-0.1,5,2.1,5,4.8c0,0,0,0.1,0,0.1
	c0.1,2.6-1.9,4.8-4.4,4.9C299.5,51.6,299.4,51.6,299.2,51.6z"/>
<path id="Path_1146" class="st0" d="M325.8,46.5h-3.2v4.5c-0.8,0.5-1.8,0.7-2.8,0.7c-2.7,0-4.9-2.1-5-4.8c0-2.7,2.1-4.9,4.8-5
	c0.1,0,0.1,0,0.2,0c1.5,0,3,0.6,4,1.7l2.3-2.1c-1.6-1.8-4-2.8-6.4-2.6c-4.9,0-8.4,3.3-8.4,7.9s3.5,7.9,8.3,7.9
	c2.2,0,4.4-0.7,6.2-1.9L325.8,46.5z"/>
<rect id="Rectangle_350" x="331" y="39" class="st0" width="3.5" height="15.3"/>
<path id="Path_1147" class="st0" d="M345.2,51.8c-1.8,0-3.6-0.6-5-1.6l-1.2,2.7c1.8,1.2,4,1.8,6.2,1.8c4.4,0,6.5-2.2,6.5-4.7
	c0-5.6-8.9-3.7-8.9-6.5c0-1,0.8-1.7,2.9-1.7c1.5,0,3,0.4,4.2,1.2l1.1-2.7c-1.6-0.9-3.4-1.4-5.3-1.4c-4.3,0-6.4,2.2-6.4,4.8
	c0,5.7,8.9,3.7,8.9,6.6C348.2,51.1,347.3,51.8,345.2,51.8z"/>
<path id="Path_1148" class="st0" d="M367.5,39h-13.3v2.9h4.9v12.4h3.5V41.9h4.9V39z"/>
<path id="Path_1149" class="st0" d="M382.7,49.9c0-5.6-8.9-3.7-8.9-6.5c0-1,0.8-1.7,2.9-1.7c1.5,0,3,0.4,4.2,1.2l1.1-2.7
	c-1.6-0.9-3.4-1.4-5.3-1.4c-4.3,0-6.4,2.2-6.4,4.8c0,5.7,8.9,3.7,8.9,6.6c0,0.9-0.9,1.6-2.9,1.6c-1.8,0-3.6-0.6-5-1.6l-1.2,2.7
	c1.8,1.2,4,1.8,6.2,1.8C380.6,54.6,382.7,52.4,382.7,49.9z"/>
<path id="Path_1150" class="st0" d="M110.1,69.4h-6.5v-5.7h-2.2v13.1h2.2v-5.4h6.5v5.4h2.2V63.7h-2.2V69.4z"/>
<path id="Path_1151" class="st0" d="M121.3,71.2h6.3v-2h-6.3v-3.5h7v-2.1h-9.2v13.1h9.4v-2.1h-7.2V71.2z"/>
<path id="Path_1152" class="st0" d="M138.5,63.7l-5.8,13.1h2.4l1.3-3h6.6l1.3,3h2.4l-5.8-13.1H138.5z M137.3,71.8l2.4-5.4l2.4,5.4
	H137.3z"/>
<path id="Path_1153" class="st0" d="M154.3,63.7h-2.2v13.1h8.2v-2.1h-6L154.3,63.7z"/>
<path id="Path_1154" class="st0" d="M163.9,65.7h4v11.1h2.2V65.7h4v-2h-10.1V65.7z"/>
<path id="Path_1155" class="st0" d="M188.3,69.4h-6.5v-5.7h-2.2v13.1h2.2v-5.4h6.5v5.4h2.2V63.7h-2.2V69.4z"/>
<path id="Path_1156" class="st0" d="M201.5,69.7l-3.6-6h-2.4l4.9,7.9v5.2h2.2v-5.2l4.9-7.9h-2.4L201.5,69.7z"/>
<path id="Path_1157" class="st0" d="M225.8,69.2c-0.9-0.2-1.8-0.5-2.6-0.9c-0.4-0.3-0.6-0.7-0.6-1.2c0-0.5,0.2-0.9,0.6-1.2
	c0.5-0.3,1-0.4,1.6-0.4c0.7,0,1.3,0.1,2,0.3c0.6,0.2,1.1,0.5,1.6,0.9l1.2-1.7c-0.6-0.5-1.4-0.9-2.1-1.2c-0.8-0.3-1.6-0.4-2.5-0.4
	c-1.2,0-2.3,0.3-3.3,1c-0.9,0.7-1.4,1.7-1.3,2.8c-0.1,1,0.4,2,1.2,2.7c0.4,0.3,0.9,0.6,1.3,0.8c0.7,0.3,1.4,0.5,2.2,0.6
	c0.7,0.1,1.4,0.4,2,0.8c0.4,0.3,0.6,0.7,0.6,1.2c0,0.5-0.2,0.9-0.6,1.2c-0.5,0.3-1.1,0.5-1.7,0.5c-1.5,0-3-0.7-4.1-1.7l-1.4,1.7
	c1.5,1.4,3.4,2.1,5.4,2.1c1.2,0.1,2.4-0.3,3.4-1.1c0.8-0.7,1.3-1.7,1.3-2.8c0.1-1-0.3-1.9-1-2.6C228,69.8,227,69.4,225.8,69.2z"/>
<path id="Path_1158" class="st0" d="M246.3,63.7h-2.8l-6,6.4v-6.4h-2.2v13.1h2.2v-3.7l1.9-2.1l4.3,5.7h2.6l-5.3-7.4L246.3,63.7z"/>
<rect id="Rectangle_351" x="251.8" y="63.7" class="st0" width="2.2" height="13.1"/>
<path id="Path_1159" class="st0" d="M270.6,73.5l-7.6-9.8h-2.2v13.1h2.2v-9.5l7.4,9.5h2.4V63.7h-2.2V73.5z"/>
<path id="Path_1160" class="st0" d="M287.1,76.8h2.2v-5.4h5.8v-2h-5.8v-3.6h6.5l0-2.1h-8.7V76.8z"/>
<path id="Path_1161" class="st0" d="M308,63.4c-1.8,0-3.6,0.7-4.9,1.9c-2.6,2.7-2.6,7,0,9.7c2.8,2.6,7.1,2.6,9.8,0
	c2.6-2.7,2.6-7,0-9.7C311.6,64.1,309.9,63.4,308,63.4z M311.3,73.5c-1.8,1.8-4.7,1.9-6.5,0.1c0,0-0.1-0.1-0.1-0.1
	c-1.8-1.9-1.8-4.8,0-6.7c1.8-1.8,4.7-1.9,6.5-0.1c0,0,0.1,0.1,0.1,0.1C313.1,68.7,313.1,71.7,311.3,73.5z"/>
<path id="Path_1162" class="st0" d="M331.3,68c0.1-1.2-0.4-2.4-1.3-3.2c-1.3-0.8-2.8-1.1-4.3-1h-4.9v13.1h2.2v-4.4h2.9l3.1,4.4h2.8
	l-3.4-4.8C330.3,71.6,331.5,69.8,331.3,68z M325.8,70.4h-2.8v-4.7h2.8c0.9-0.1,1.7,0.1,2.5,0.5c0.5,0.4,0.8,1.1,0.7,1.8
	c0.1,0.7-0.2,1.4-0.7,1.9C327.6,70.3,326.7,70.5,325.8,70.4L325.8,70.4z"/>
<path id="Path_1163" class="st0" d="M349.6,63.7l-5.8,13.1h2.4l1.3-3h6.6l1.3,3h2.4L352,63.7H349.6z M348.4,71.8l2.4-5.4l2.4,5.4
	H348.4z"/>
<path id="Path_1164" class="st0" d="M364.9,63.7h-2.2v13.1h8.2v-2.1h-6V63.7z"/>
<path id="Path_1165" class="st0" d="M378.7,74.7v-11h-2.2v13.1h8.2v-2.1H378.7z"/>
<path id="Path_1166" class="st0" d="M6,40c-0.3-0.1-0.7,0.1-0.8,0.5C5.1,40.2,4.9,40,4.6,40c-0.5-0.1-0.8,0.3-0.9,1l-0.2,1.4l3,0.3
	l0.2-1.5C6.8,40.5,6.5,40.1,6,40z M4.8,42l-0.7-0.1l0.1-0.7c0-0.3,0.2-0.5,0.4-0.5s0.3,0.2,0.3,0.6L4.8,42z M6.1,42.1L5.3,42
	l0.1-0.8c0-0.4,0.2-0.5,0.4-0.5s0.3,0.2,0.3,0.6L6.1,42.1z"/>
<path id="Path_1167" class="st0" d="M5.6,36.3c-0.7-0.1-1.2,0.3-1.3,1L4,38.6l2.9,0.6L7,38.6l-0.8-0.2l0.1-0.6l0,0l0.9-0.4l0.2-0.7
	l-1.1,0.4C6.3,36.7,6,36.4,5.6,36.3z M5.8,37.7l-0.1,0.5l-1-0.2l0.1-0.5c0.1-0.4,0.3-0.6,0.6-0.5S5.9,37.3,5.8,37.7L5.8,37.7z"/>
<rect id="Rectangle_352" x="6" y="33.4" transform="matrix(0.2853 -0.9584 0.9584 0.2853 -28.9123 31.0292)" class="st0" width="0.7" height="3"/>
<path id="Path_1168" class="st0" d="M6.7,30.7l-0.5-0.2L5.3,33l0.5,0.2l0.3-0.9l2.3,0.8l0.2-0.6l-2.3-0.8L6.7,30.7z"/>
<rect id="Rectangle_353" x="7.8" y="28.3" transform="matrix(0.4012 -0.916 0.916 0.4012 -22.419 25.2782)" class="st0" width="0.7" height="3"/>
<path id="Path_1169" class="st0" d="M8.2,28.1c1,0.5,1.5-1.2,1.9-0.9c0.2,0.1,0.2,0.3,0,0.7c-0.2,0.3-0.4,0.6-0.7,0.7L9.7,29
	c0.4-0.2,0.7-0.5,0.9-0.9c0.4-0.7,0.2-1.3-0.2-1.5c-1-0.5-1.4,1.2-1.9,0.9c-0.2-0.1-0.2-0.3,0-0.7c0.1-0.3,0.3-0.5,0.6-0.6l-0.4-0.4
	c-0.3,0.2-0.6,0.5-0.7,0.8C7.5,27.3,7.7,27.8,8.2,28.1z"/>
<path id="Path_1170" class="st0" d="M12,25.4l-1-0.6l0.7-1.2l1,0.6l0.4-0.6l-2.5-1.6l-0.4,0.6l1,0.6l-0.7,1.2l-1-0.6l-0.4,0.6
	l2.5,1.6L12,25.4z"/>
<path id="Path_1171" class="st0" d="M15,21l-0.3-0.6l0.9-1.1l0.7,0.2l0.5-0.6l-3.1-0.9l-0.4,0.5l1.4,2.9L15,21z M13.9,18.8l1.2,0.4
	l-0.6,0.7L13.9,18.8z"/>
<path id="Path_1172" class="st0" d="M17.8,16.8c0.1,0.1,0.1,0.3-0.2,0.6c-0.3,0.2-0.6,0.4-0.9,0.5l0.2,0.5c0.4-0.1,0.8-0.3,1.1-0.6
	c0.6-0.6,0.6-1.2,0.3-1.5c-0.8-0.8-1.7,0.7-2.1,0.3C16,16.5,16,16.3,16.3,16c0.2-0.2,0.5-0.3,0.8-0.4l-0.2-0.5
	c-0.4,0.1-0.7,0.3-0.9,0.5c-0.6,0.6-0.6,1.2-0.3,1.5C16.4,17.9,17.4,16.4,17.8,16.8z"/>
<path id="Path_1173" class="st0" d="M20.2,14.7c0.1,0.1,0.1,0.4-0.2,0.6c-0.3,0.2-0.6,0.4-1,0.4l0.1,0.6c0.4,0,0.8-0.2,1.2-0.5
	c0.7-0.5,0.7-1.1,0.4-1.5c-0.7-0.9-1.8,0.5-2.1,0.1c-0.1-0.1-0.1-0.4,0.2-0.6c0.2-0.2,0.5-0.3,0.8-0.3l-0.2-0.5
	c-0.4,0.1-0.7,0.2-1,0.4c-0.7,0.5-0.7,1.1-0.4,1.5C18.7,15.7,19.8,14.3,20.2,14.7z"/>
<path id="Path_1174" class="st0" d="M23.2,13.5c0.7-0.4,1-1.4,0.5-2.1c0,0,0-0.1,0-0.1c-0.5-0.7-1.4-0.9-2.1-0.4c0,0,0,0-0.1,0.1
	c-0.7,0.4-1,1.4-0.5,2.1c0,0,0,0,0,0.1C21.5,13.9,22.4,14,23.2,13.5C23.2,13.5,23.2,13.5,23.2,13.5z M21.8,11.4
	c0.4-0.3,1-0.2,1.3,0.2c0,0,0,0,0,0.1c0.3,0.4,0.2,1-0.2,1.3c0,0,0,0-0.1,0c-0.4,0.3-1,0.2-1.3-0.2c0,0,0,0,0-0.1
	C21.3,12.4,21.4,11.8,21.8,11.4C21.8,11.5,21.8,11.5,21.8,11.4L21.8,11.4z"/>
<path id="Path_1175" class="st0" d="M26.6,11.4c0.4-0.2,0.7-0.6,0.8-1.1l-0.6-0.1c0,0.3-0.2,0.5-0.5,0.7c-0.4,0.3-1,0.1-1.3-0.3
	c0,0,0,0,0-0.1c-0.3-0.4-0.1-1,0.3-1.3c0,0,0,0,0.1,0C25.6,9,26,9,26.2,9.1l0.2-0.6c-0.4-0.2-0.9-0.1-1.3,0.1
	c-0.8,0.4-1.1,1.3-0.7,2c0,0,0,0.1,0,0.1C24.8,11.6,25.8,11.8,26.6,11.4C26.5,11.4,26.6,11.4,26.6,11.4z"/>
<rect id="Rectangle_354" x="27.9" y="7.3" transform="matrix(0.908 -0.419 0.419 0.908 -1.0948 12.64)" class="st0" width="0.7" height="3"/>
<path id="Path_1176" class="st0" d="M30.6,8.7l1.3-0.5l0.5,0.5l0.7-0.3l-2.3-2.3l-0.6,0.2l-0.2,3.3l0.7-0.3L30.6,8.7z M30.7,6.9
	l0.8,0.9l-0.9,0.3L30.7,6.9z"/>
<path id="Path_1177" class="st0" d="M33.5,5.8l0.6,2.3l0.7-0.2l-0.6-2.3l0.9-0.2L35,4.8l-2.5,0.7L32.6,6L33.5,5.8z"/>
<rect id="Rectangle_355" x="36.4" y="4.4" transform="matrix(0.977 -0.213 0.213 0.977 -0.413 7.9713)" class="st0" width="0.7" height="3"/>
<path id="Path_1178" class="st0" d="M40.1,6.9c0.8-0.1,1.5-0.8,1.4-1.7c0,0,0-0.1,0-0.1c-0.1-0.8-0.9-1.4-1.7-1.3c0,0-0.1,0-0.1,0
	c-0.8,0.1-1.5,0.8-1.4,1.7c0,0,0,0.1,0,0.1C38.4,6.4,39.2,7,40.1,6.9C40,6.9,40.1,6.9,40.1,6.9z M39.7,4.4c0.5-0.1,1,0.2,1,0.7
	c0,0,0,0,0,0.1c0.1,0.5-0.2,1-0.7,1.1c0,0,0,0-0.1,0c-0.5,0.1-1-0.3-1-0.7c0,0,0,0,0-0.1C38.9,5,39.2,4.5,39.7,4.4
	C39.7,4.4,39.7,4.4,39.7,4.4L39.7,4.4z"/>
<path id="Path_1179" class="st0" d="M43.3,6.5l-0.1-1.8l1.6,1.7l0.6,0l-0.1-3l-0.7,0l0.1,1.8L43,3.5l-0.6,0l0.1,3L43.3,6.5z"/>
<path id="Path_1180" class="st0" d="M49.7,6.7c0.8,0.1,1.6-0.4,1.8-1.3c0,0,0-0.1,0-0.1c0.1-0.8-0.5-1.6-1.4-1.7c0,0-0.1,0-0.1,0
	c-0.8-0.1-1.6,0.4-1.8,1.3c0,0,0,0.1,0,0.1C48.1,5.9,48.8,6.6,49.7,6.7C49.6,6.7,49.7,6.7,49.7,6.7z M50,4.2c0.5,0,0.9,0.5,0.8,1
	c0,0,0,0,0,0.1c0,0.5-0.5,0.9-1,0.8c0,0,0,0-0.1,0c-0.5,0-0.9-0.5-0.8-1c0,0,0,0,0-0.1C49,4.6,49.4,4.2,50,4.2
	C49.9,4.2,49.9,4.2,50,4.2L50,4.2z"/>
<path id="Path_1181" class="st0" d="M53.1,6.1l1.3,0.3l0.1-0.5l-1.3-0.3l0.2-0.8l1.5,0.3L55,4.6l-2.2-0.5L52.2,7l0.7,0.1L53.1,6.1z"
	/>
<path id="Path_1182" class="st0" d="M60.5,7.8c0.3-0.8-0.1-1.6-0.9-1.9c-0.1,0-0.1,0-0.2,0l-1.3-0.5l-1,2.8l1.3,0.5
	c0.7,0.4,1.6,0,2-0.7C60.5,7.9,60.5,7.8,60.5,7.8z M58.6,6.2l0.6,0.2C59.7,6.5,60,7,59.9,7.4c0,0,0,0.1,0,0.1
	c-0.1,0.5-0.6,0.7-1.1,0.6c0,0-0.1,0-0.1,0L58,7.9L58.6,6.2z"/>
<path id="Path_1183" class="st0" d="M63.2,10l-1.5-0.7L62,8.7l1.3,0.6l0.2-0.5l-1.3-0.6l0.3-0.6l1.4,0.7l0.2-0.5l-2.1-0.9l-1.3,2.7
	l2.1,1L63.2,10z"/>
<path id="Path_1184" class="st0" d="M64.4,11.3l0.4-0.7l0.5,0.3l0,0l0.1,1l0.6,0.4L66,11.1c0.4,0.1,0.8-0.1,1-0.5
	c0.3-0.5,0.1-1.2-0.4-1.5c0,0-0.1-0.1-0.1-0.1l-1.1-0.7l-1.5,2.6L64.4,11.3z M65.6,9.2l0.5,0.3c0.4,0.2,0.4,0.5,0.3,0.8
	s-0.4,0.3-0.8,0.1l-0.5-0.3L65.6,9.2z"/>
<path id="Path_1185" class="st0" d="M67.4,13.1l1-1.4l-0.1,1.7l0.3,0.2l1.6-0.7L69,14.3l0.5,0.4l1.8-2.4L70.8,12l-2,0.9l0.2-2.2
	l-0.5-0.3l-1.8,2.4L67.4,13.1z"/>
<path id="Path_1186" class="st0" d="M70.6,15.6l0.6-0.3l1,0.9l-0.2,0.7l0.5,0.5l1-3.1l-0.5-0.5l-3,1.3L70.6,15.6z M72.9,14.5
	l-0.4,1.2l-0.7-0.6L72.9,14.5z"/>
<path id="Path_1187" class="st0" d="M73.4,18.2l0.5,0.5l1.8-1.6l0.6,0.7l0.4-0.4L75,15.5l-0.4,0.4l0.6,0.7L73.4,18.2z"/>
<path id="Path_1188" class="st0" d="M75.9,21.1c0.5,0.7,1.4,0.9,2.1,0.4c0,0,0,0,0.1-0.1c0.7-0.5,0.8-1.5,0.3-2.2c0,0,0,0-0.1-0.1
	c-0.5-0.7-1.4-0.9-2.1-0.4c0,0,0,0-0.1,0.1C75.5,19.4,75.4,20.4,75.9,21.1C75.9,21.1,75.9,21.1,75.9,21.1z M76.6,19.4
	c0.4-0.3,1-0.3,1.3,0.1c0,0,0,0,0,0.1c0.3,0.4,0.3,1-0.1,1.3c0,0,0,0-0.1,0c-0.4,0.3-1,0.3-1.3-0.1c0,0,0,0,0-0.1
	C76.1,20.4,76.1,19.8,76.6,19.4C76.6,19.5,76.6,19.4,76.6,19.4L76.6,19.4z"/>
<path id="Path_1189" class="st0" d="M78.8,25.1l0.5-0.3l-0.8-1.2l2-1.3l-0.4-0.6l-2.5,1.6L78.8,25.1z"/>
<path id="Path_1190" class="st0" d="M79.8,27c0.4,0.8,1.3,1.1,2,0.8c0,0,0.1,0,0.1,0c0.8-0.4,1-1.3,0.6-2.1c0,0,0-0.1,0-0.1
	c-0.4-0.8-1.3-1.1-2-0.8c0,0-0.1,0-0.1,0C79.7,25.2,79.4,26.1,79.8,27C79.8,26.9,79.8,26.9,79.8,27z M80.7,25.4
	c0.4-0.3,1-0.1,1.2,0.3c0,0,0,0,0,0.1c0.2,0.4,0.1,1-0.3,1.2c0,0,0,0-0.1,0c-0.4,0.3-1,0.1-1.2-0.3c0,0,0,0,0-0.1
	C80.1,26.3,80.2,25.7,80.7,25.4C80.7,25.4,80.7,25.4,80.7,25.4L80.7,25.4z"/>
<path id="Path_1191" class="st0" d="M81.5,30.6c0.2,0.4,0.4,0.7,0.8,1l1.1-0.5l-0.2-0.6l-0.8,0.3c-0.1-0.1-0.3-0.3-0.3-0.4
	c-0.2-0.5,0-1,0.4-1.2c0,0,0.1,0,0.1,0c0.5-0.2,1,0,1.2,0.5c0,0,0,0.1,0,0.1c0.1,0.3,0.1,0.6,0,0.8l0.5,0.3c0.2-0.4,0.2-0.9,0-1.3
	c-0.3-0.8-1.1-1.2-1.9-1c0,0-0.1,0-0.1,0C81.5,28.8,81.2,29.7,81.5,30.6C81.5,30.5,81.5,30.5,81.5,30.6z"/>
<rect id="Rectangle_356" x="82.4" y="32.3" transform="matrix(0.9507 -0.3102 0.3102 0.9507 -5.9794 27.6454)" class="st0" width="3" height="0.7"/>
<path id="Path_1192" class="st0" d="M85,33.9c-1.1,0.3-0.3,1.9-0.8,2c-0.2,0-0.3-0.1-0.4-0.5c-0.1-0.3-0.1-0.7,0.1-1l-0.6-0.1
	c-0.1,0.4-0.2,0.8,0,1.3c0.2,0.8,0.7,1.1,1.2,1c1.1-0.3,0.3-1.9,0.8-2c0.2,0,0.4,0.1,0.5,0.5c0.1,0.3,0.1,0.6,0,0.9l0.6,0.1
	c0.1-0.3,0.1-0.7,0-1.1C86,34.1,85.5,33.8,85,33.9z"/>
<path id="Path_1193" class="st0" d="M86.3,37.9l-2.4,0.4L84,39l2.4-0.4l0.2,0.9l0.6-0.1l-0.4-2.6L86.1,37L86.3,37.9z"/>
<path id="Path_1194" class="st0" d="M86.4,40.4c-1.1,0.1-0.6,1.8-1.1,1.8c-0.2,0-0.3-0.1-0.4-0.5c0-0.3,0-0.7,0.2-1l-0.5-0.2
	c-0.2,0.4-0.3,0.8-0.2,1.2c0.1,0.8,0.5,1.2,1,1.2c1.1-0.1,0.6-1.8,1.1-1.8c0.2,0,0.4,0.1,0.4,0.5c0,0.3,0,0.6-0.2,0.8l0.5,0.2
	c0.2-0.3,0.2-0.7,0.2-1.1C87.3,40.7,86.9,40.4,86.4,40.4z"/>
<path id="Path_1195" class="st0" d="M45.5,0C20.4,0,0,20.4,0,45.5C0,70.6,20.4,91,45.5,91C70.6,91,91,70.6,91,45.5
	C91,20.4,70.6,0,45.5,0z M45.5,89.9C21,89.9,1.1,70,1.1,45.5C1.1,21,21,1.1,45.5,1.1C70,1.1,89.9,21,89.9,45.5
	C89.9,70,70,89.9,45.5,89.9L45.5,89.9z"/>
<path id="Path_1196" class="st0" d="M45.5,8.8C25.2,8.8,8.8,25.3,8.8,45.5c0,20.3,16.4,36.7,36.7,36.7c20.3,0,36.7-16.4,36.7-36.7v0
	C82.2,25.2,65.7,8.8,45.5,8.8z M81.1,45.5c0,19.7-16,35.6-35.6,35.6c-19.7,0-35.6-16-35.6-35.6c0-19.7,16-35.6,35.6-35.6
	C65.2,9.9,81.1,25.8,81.1,45.5L81.1,45.5z"/>
<path id="Path_1197" class="st0" d="M34,34.5c0-6.7-4.6-7.6-8.5-7.6h-4v15.6l-0.2,0.7l1.7,0c0.3,0,0.6,0,1,0
	c2.1,0.1,4.3-0.3,6.2-1.3C32.7,40.4,34.2,37.5,34,34.5z M22.9,42.2h-0.4V28h3c5.3,0,7.5,1.9,7.5,6.5c0.1,2.6-1.1,5.1-3.4,6.5
	C27.4,42.2,25.3,42.2,22.9,42.2L22.9,42.2z"/>
<path id="Path_1198" class="st0" d="M36.8,45.4h15.7l-7.9-22.6L36.8,45.4z M51,44.3H38.2L44.6,26L51,44.3z"/>
<path id="Path_1199" class="st0" d="M62.5,24.8c-0.5,0-0.9,0-1.4,0h-9.8v0.1l-4-11.5H45l-6.9,19.1c-0.4-6.8-6.1-7.7-11-7.7h-9.8
	v40.3h9.3L24.4,71l0.9-0.2c0.7-0.1,1.4-0.2,2.2-0.3c0.4,0,0.9,0.1,1.3,0.1c0.3,0,0.6,0.1,1,0.1l0.5,0l0.1-0.4
	c0.4-1.8,0.9-3.6,1.5-5.9c0-0.1,0-0.1,0-0.2c1-0.4,2-0.9,2.8-1.6c2.9-2.5,4.6-6.3,4.4-10.1c0-1.3-0.1-2.6-0.6-3.8h12.6v16.3h6.2
	l0,0.1c0.5,1.6,1,3.4,1.4,5.2l0.1,0.4l0.5,0c0.3,0,0.7-0.1,1-0.1c0.8-0.1,1.6-0.1,2.4-0.2c0.7,0,1.4,0.1,2.1,0.1
	c0.4,0,0.8,0.1,1.2,0.1l0.8,0.1l-2.1-6c3-0.4,5.7-1.9,7.6-4.3c3.5-4.4,5.3-10.1,5.3-17.3c0-6.1-1.6-11.3-4.5-14.8
	C70.1,24.7,66.2,24.7,62.5,24.8z M27.8,61.8c-0.4,0.1-0.9,0.1-1.3,0.1h-4V45.4h2.1c4.1,0,6.6,1,8,3.1l0,0L27.8,61.8z M29.5,69.6
	c-0.2,0-0.3,0-0.5-0.1c-0.5-0.1-1-0.1-1.5-0.1h0c-0.5,0-0.9,0.1-1.4,0.2L33.2,50c0.3,0.6,0.4,1.3,0.6,1.9v0c0,0.1,0,0.3,0.1,0.4
	c0,0.4,0,0.8,0,1.2v0.8c0,0.2-0.1,0.5-0.1,0.7c-0.3,1-0.6,2-1,3.1c-0.1,0.2-0.2,0.4-0.3,0.6l-0.1,0.1c-0.5,1.7-1,3.3-1.5,5l-0.3,0.9
	l0.2,0C30.3,66.5,29.9,68.1,29.5,69.6L29.5,69.6z M34.1,61.9c-0.5,0.4-1.1,0.8-1.7,1.1c0.3-1.2,0.7-2.3,1-3.5c0.1-0.4,0.2-0.7,0.3-1
	c0.5-1,0.9-2.1,1-3.2l0.2-0.5v-0.9c0-0.6,0-1.1-0.1-1.7c-0.1-1.5-0.6-3-1.4-4.3c-1.6-2.5-4.4-3.6-8.9-3.6h-3.2V63h5
	c0.2,0,0.4,0,0.7,0l-0.4,1.1h-8.4V25.9h8.8c7.1,0,10,2.1,10,7.4c0.2,4.5-2.7,8.5-7.1,9.7l0.1,1c1.2,0.1,2.4,0.4,3.5,0.9v0l0.4,0.2
	c1.5,0.7,2.6,1.9,3.3,3.3c0.6,1.3,0.8,2.7,0.8,4.1C38.3,56.1,36.8,59.6,34.1,61.9L34.1,61.9z M34.9,41.3L34,43.9
	c-0.6-0.3-1.2-0.5-1.8-0.6C33.2,42.8,34.1,42.1,34.9,41.3L34.9,41.3z M38.2,47.7c-0.7-1.4-1.9-2.6-3.2-3.3l10.8-29.9h0.7l9.8,28.2
	l0,0l6.6,19c-1.8,0.1-3.5,0.1-5.3-0.1c-0.1-0.3-0.2-0.5-0.2-0.8l0-0.2c-1.3-4.3-2.7-8.5-4.1-12.5l-0.2-0.4L38.2,47.7z M57.3,42.3
	V28.2c0.6,0,1-0.1,1.5-0.1c0.6-0.1,1.2-0.1,1.8-0.1c8.9,0,12.2,4.4,12.2,16.1c0,8-1.9,13.5-5.6,16.1c-0.9,0.7-2,1.1-3.2,1.4
	L57.3,42.3z M65.1,69.6c-0.7-0.1-1.5-0.1-2.2-0.1c-0.8,0-1.7,0.1-2.5,0.2l-0.5,0.1c-0.4-1.4-0.8-2.8-1.2-4.1h1c1.4,0,2.8,0,4.2-0.2
	l1.5,4.3L65.1,69.6z M72.5,29.1c2.7,3.2,4.2,8.2,4.2,14.1c0,7-1.6,12.5-5,16.7c-1.8,2.3-4.5,3.7-7.4,4c-1.5,0.2-3,0.2-4.5,0.2h-7.4
	V49c1.3,3.7,2.6,7.7,3.9,11.9l0,0.1v1.7l0.9,0c2.2,0.3,4.4,0.3,6.6,0.1c1.4-0.2,2.8-0.8,4-1.6c4-2.9,6.1-8.6,6.1-17
	c0-12.4-3.7-17.2-13.2-17.2c-0.6,0-1.3,0-1.9,0.1c-0.6,0.1-1.2,0.1-1.9,0.1h-0.5v12.1L52.3,28v-2.1h8.8c0.5,0,1,0,1.4,0
	C66.2,25.8,69.6,25.8,72.5,29.1L72.5,29.1z"/>
</svg>
