<svg xmlns="http://www.w3.org/2000/svg" viewBox="0 0 73.7 94.38"><g id="Layer_2" data-name="Layer 2"><g id="Layer_1-2" data-name="Layer 1"><path d="M70.94,24.64a6.12,6.12,0,0,1-.77.07c-.18,0-.33,0-.5-.05V86.38a4,4,0,0,1-4,4H8a4,4,0,0,1-4-4V8A4,4,0,0,1,8,4H53a5,5,0,0,1-2-4H8A8,8,0,0,0,0,8V86.38a8,8,0,0,0,8,8H65.66a8,8,0,0,0,8-8V26.2a4.4,4.4,0,0,1-2.72-1.56Z"/><path d="M71.66,28.25a0,0,0,0,1,0,0H51.27a2,2,0,0,1-2-2V2A2,2,0,0,1,50.58.12a2.06,2.06,0,0,1,2.26.61L73,24.73a2,2,0,0,1,.72,1.52,2,2,0,0,1-2,2Zm-18.35-4h14l-14-16.68Z"/><path d="M55.28,62.46H18.39a8,8,0,0,1-8-8V43.71a8,8,0,0,1,8-8H55.28a8,8,0,0,1,8,8V54.46A8,8,0,0,1,55.28,62.46ZM18.39,39.71a4,4,0,0,0-4,4V54.46a4,4,0,0,0,4,4H55.28a4,4,0,0,0,4-4V43.71a4,4,0,0,0-4-4Z"/><path d="M29.55,49a3.9,3.9,0,0,1-1.73,1.44,6.27,6.27,0,0,1-2.57.5H22.67c-.13,0-.2.06-.2.18v4.28a.46.46,0,0,1-.12.36.66.66,0,0,1-.42.11H19.25a.41.41,0,0,1-.32-.1.47.47,0,0,1-.09-.32V42.9c0-.25.1-.38.3-.38h5.69a7.29,7.29,0,0,1,2.72.48,4.26,4.26,0,0,1,1.91,1.43,3.84,3.84,0,0,1,.7,2.34A4,4,0,0,1,29.55,49Zm-3.61-3.48a2,2,0,0,0-1.32-.43H22.85a.42.42,0,0,0-.3.08.41.41,0,0,0-.08.28V48a.45.45,0,0,0,.06.27c0,.06.11.08.21.08h2A1.73,1.73,0,0,0,26,47.91a1.55,1.55,0,0,0,.47-1.19A1.47,1.47,0,0,0,25.94,45.53Z"/><path d="M42,49a3.85,3.85,0,0,1-1.73,1.44,6.27,6.27,0,0,1-2.57.5H35.15c-.14,0-.2.06-.2.18v4.28a.46.46,0,0,1-.13.36.63.63,0,0,1-.41.11H31.73a.42.42,0,0,1-.33-.1.47.47,0,0,1-.09-.32V42.9c0-.25.1-.38.31-.38h5.69A7.27,7.27,0,0,1,40,43a4.21,4.21,0,0,1,1.91,1.43,3.84,3.84,0,0,1,.7,2.34A4,4,0,0,1,42,49Zm-3.61-3.48a2,2,0,0,0-1.32-.43H35.32a.37.37,0,0,0-.29.08.36.36,0,0,0-.08.28V48a.56.56,0,0,0,0,.27c0,.06.11.08.22.08h2a1.73,1.73,0,0,0,1.26-.44,1.59,1.59,0,0,0,.47-1.19A1.48,1.48,0,0,0,38.41,45.53Z"/><path d="M43.24,42.9a.36.36,0,0,1,.4-.38H54.21a.37.37,0,0,1,.29.11.36.36,0,0,1,.1.27v1.91q0,.3-.36.3H51c-.14,0-.2.07-.2.18V55.52q0,.36-.33.36h-3c-.2,0-.31-.12-.31-.34V45.37a.46.46,0,0,0,0-.2.16.16,0,0,0-.14-.06H43.62c-.25,0-.38-.1-.38-.3Z"/></g></g></svg>