<svg xmlns="http://www.w3.org/2000/svg" viewBox="0 0 73.7 94.38"><g id="Layer_2" data-name="Layer 2"><g id="Layer_1-2" data-name="Layer 1"><path d="M70.94,24.64a6.12,6.12,0,0,1-.77.07c-.18,0-.33,0-.5-.05V86.38a4,4,0,0,1-4,4H8a4,4,0,0,1-4-4V8A4,4,0,0,1,8,4H53a5,5,0,0,1-2-4H8A8,8,0,0,0,0,8V86.38a8,8,0,0,0,8,8H65.66a8,8,0,0,0,8-8V26.2a4.4,4.4,0,0,1-2.72-1.56Z"/><path d="M71.66,28.25a0,0,0,0,1,0,0H51.27a2,2,0,0,1-2-2V2A2,2,0,0,1,50.58.12a2.06,2.06,0,0,1,2.26.61L73,24.73a2,2,0,0,1,.72,1.52,2,2,0,0,1-2,2Zm-18.35-4h14l-14-16.68Z"/><path d="M55.28,62.46H18.39a8,8,0,0,1-8-8V43.71a8,8,0,0,1,8-8H55.28a8,8,0,0,1,8,8V54.46A8,8,0,0,1,55.28,62.46ZM18.39,39.71a4,4,0,0,0-4,4V54.46a4,4,0,0,0,4,4H55.28a4,4,0,0,0,4-4V43.71a4,4,0,0,0-4-4Z"/><path d="M31.27,55.61q0,.27-.45.27H27.94a.69.69,0,0,1-.67-.33L25,51.85c-.09-.17-.17-.26-.23-.26s-.17.08-.25.24L22.3,55.55a.68.68,0,0,1-.68.33H19.33q-.45,0-.45-.27a1.16,1.16,0,0,1,.24-.54l3.65-5.64a.58.58,0,0,0,.13-.3.61.61,0,0,0-.13-.31l-3.71-5.74a.51.51,0,0,1-.09-.25.31.31,0,0,1,.09-.22.35.35,0,0,1,.25-.09h3.05a.8.8,0,0,1,.38.08,1,1,0,0,1,.25.26l1.92,3.26c.06.1.13.15.2.15s.14-.05.2-.15l1.92-3.26a.73.73,0,0,1,.23-.26.81.81,0,0,1,.39-.08h2.52q.3,0,.3.24a.42.42,0,0,1-.11.28l-3.51,5.37a.53.53,0,0,0-.1.27.56.56,0,0,0,.14.32l4,6.07A1.21,1.21,0,0,1,31.27,55.61Z"/><path d="M32.39,42.62a.31.31,0,0,1,.23-.1h3c.2,0,.31.12.31.34V53a.3.3,0,0,0,0,.18.21.21,0,0,0,.15,0h5.58c.26,0,.38.1.38.31v2a.31.31,0,0,1-.11.26.4.4,0,0,1-.3.1H32.74a.43.43,0,0,1-.34-.1.47.47,0,0,1-.09-.32V42.9A.47.47,0,0,1,32.39,42.62Z"/><path d="M50,45.12a3.4,3.4,0,0,0-1.5-.28,2.83,2.83,0,0,0-1.52.34,1,1,0,0,0-.51.84.92.92,0,0,0,.28.64,2.07,2.07,0,0,0,1,.49l2.92.79a4.51,4.51,0,0,1,2.43,1.44,3.73,3.73,0,0,1,.81,2.41,3.82,3.82,0,0,1-.68,2.26,4.32,4.32,0,0,1-1.93,1.49,7.85,7.85,0,0,1-3,.52,9,9,0,0,1-3.47-.64,4.39,4.39,0,0,1-2.2-1.72.69.69,0,0,1-.09-.27.38.38,0,0,1,.19-.29L44.42,52a.66.66,0,0,1,.35-.13.34.34,0,0,1,.28.14,4.07,4.07,0,0,0,1.31,1.17,4.6,4.6,0,0,0,3.47,0,1,1,0,0,0,.64-.93c0-.55-.44-.95-1.31-1.19l-2.74-.72a4.79,4.79,0,0,1-2.48-1.47,3.7,3.7,0,0,1-.24-4.53,4.55,4.55,0,0,1,1.89-1.5,6.8,6.8,0,0,1,2.81-.55,8,8,0,0,1,2.88.52,4.37,4.37,0,0,1,2,1.39.74.74,0,0,1,.13.31c0,.06,0,.12-.13.19L51.5,46a.23.23,0,0,1-.16.08c-.08,0-.18-.08-.33-.22A3.48,3.48,0,0,0,50,45.12Z"/></g></g></svg>