<svg xmlns="http://www.w3.org/2000/svg" width="52.349" height="37.906" viewBox="0 0 52.349 37.906">
  <g id="np_bulletin-board_3441738_E3E7EA" transform="translate(-4.68 -17.188)">
    <path id="Path_1243" data-name="Path 1243" d="M4.68,17.188V55.094l52.349,0v-37.9Zm1.812,1.8H55.215V53.28H6.494Z" fill="#4b4a4c"/>
    <path id="Path_1244" data-name="Path 1244" d="M17.188,29.691V53.154H35.241V29.691ZM19,31.489H33.427V51.342H19Z" transform="translate(-5.284 -5.282)" fill="#4b4a4c"/>
    <path id="Path_1245" data-name="Path 1245" d="M57.805,29.691V47.73H72.251V29.693Zm1.816,1.8H70.437V45.932H59.621Z" transform="translate(-22.443 -5.282)" fill="#4b4a4c"/>
    <path id="Path_1246" data-name="Path 1246" d="M32.152,34.375a.9.9,0,1,0,.9.9.9.9,0,0,0-.9-.9Z" transform="translate(-11.225 -7.261)" fill="#4b4a4c"/>
    <path id="Path_1247" data-name="Path 1247" d="M69.652,34.375a.9.9,0,1,0,.9.9.9.9,0,0,0-.9-.9Z" transform="translate(-27.067 -7.261)" fill="#4b4a4c"/>
    <path id="Path_1248" data-name="Path 1248" d="M25.008,42.191v1.8h9.02v-1.8Z" transform="translate(-8.588 -10.563)" fill="#4b4a4c"/>
    <path id="Path_1249" data-name="Path 1249" d="M65.633,42.191v1.8h5.408v-1.8Z" transform="translate(-25.75 -10.563)" fill="#4b4a4c"/>
    <path id="Path_1250" data-name="Path 1250" d="M65.633,48.449v1.8h5.408v-1.8Z" transform="translate(-25.75 -13.206)" fill="#4b4a4c"/>
    <path id="Path_1251" data-name="Path 1251" d="M25.008,51.562v1.812h9.02V51.562Z" transform="translate(-8.588 -14.521)" fill="#4b4a4c"/>
    <path id="Path_1252" data-name="Path 1252" d="M25.008,60.926v1.812h9.02V60.926Z" transform="translate(-8.588 -18.477)" fill="#4b4a4c"/>
  </g>
</svg>
