<svg id="np_thermostat_3541609_3E3C3B" xmlns="http://www.w3.org/2000/svg" width="40.729" height="87.282" viewBox="0 0 40.729 87.282">
  <path id="Path_1294" data-name="Path 1294" d="M48.49,3.125A14.589,14.589,0,0,0,33.943,17.671v38.54A20.211,20.211,0,0,0,28.125,70.03v.007a20.365,20.365,0,1,0,40.729,0V70.03A20.212,20.212,0,0,0,63.036,56.2V17.666A14.589,14.589,0,0,0,48.49,3.12Zm0,5.818a8.684,8.684,0,0,1,8.728,8.728V57.048a2.911,2.911,0,0,0,.971,2.171,14.55,14.55,0,1,1-19.4.007v0a2.9,2.9,0,0,0,.971-2.167V17.671A8.684,8.684,0,0,1,48.49,8.943Z" transform="translate(-28.125 -3.12)" fill="#3e3c3b"/>
  <path id="Path_1295" data-name="Path 1295" d="M49.737,15.625a2.909,2.909,0,0,0-2.862,2.949V65.082h5.818V18.574a2.913,2.913,0,0,0-2.957-2.949Z" transform="translate(-29.42 -3.983)" fill="#3e3c3b"/>
  <path id="Path_1296" data-name="Path 1296" d="M49.353,65.625a8.728,8.728,0,1,0,8.728,8.728A8.772,8.772,0,0,0,49.353,65.625Zm0,5.818a2.909,2.909,0,1,1-2.909,2.909A2.868,2.868,0,0,1,49.353,71.443Z" transform="translate(-28.988 -7.435)" fill="#3e3c3b"/>
</svg>
