<svg xmlns="http://www.w3.org/2000/svg" width="39.204" height="39.205" viewBox="0 0 39.204 39.205">
  <g id="Group_1538" data-name="Group 1538" transform="translate(0 0)">
    <path id="Exclusion_4" data-name="Exclusion 4" d="M19.6,0A19.6,19.6,0,1,1,0,19.6,19.6,19.6,0,0,1,19.6,0Z" transform="translate(0 0)" fill="#3e3c3b"/>
    <path id="np_share_1736506_000000" d="M32.425,11a3.887,3.887,0,0,0-3.7,5.077l-6.412,3.565a3.878,3.878,0,1,0,0,6.02l6.421,3.565a3.807,3.807,0,0,0-.2,1.185,3.9,3.9,0,1,0,1.129-2.725l-6.243-3.472a3.857,3.857,0,0,0,.336-1.568,3.815,3.815,0,0,0-.336-1.568l6.234-3.472A3.882,3.882,0,1,0,32.425,11Zm0,1.792a2.091,2.091,0,1,1-2.09,2.091A2.077,2.077,0,0,1,32.425,12.792ZM19.882,20.557a2.091,2.091,0,1,1-2.09,2.091A2.077,2.077,0,0,1,19.882,20.557Zm12.543,7.765a2.091,2.091,0,1,1-2.09,2.091A2.077,2.077,0,0,1,32.425,28.321Z" transform="translate(-6.552 -3.045)" fill="#fff"/>
  </g>
</svg>