<svg xmlns="http://www.w3.org/2000/svg" width="26.794" height="26.794" viewBox="0 0 26.794 26.794">
  <path id="np_pound_2349562_CCCCCC" d="M15.9,2.5a13.4,13.4,0,1,0,13.4,13.4A13.409,13.409,0,0,0,15.9,2.5ZM15.53,13.923a8.511,8.511,0,0,1,.311,1.157l.029.141h2.341a.958.958,0,1,1,0,1.917H15.983l-.029.141a7.98,7.98,0,0,1-.761,2.708l-.085.2.226.029a4.652,4.652,0,0,1,1.325.226,2.546,2.546,0,0,0,.705.085,7.287,7.287,0,0,0,1.607-.226,1.2,1.2,0,0,1,.931.112,1.22,1.22,0,0,1-.282,2.229,9.268,9.268,0,0,1-2.256.311,4.615,4.615,0,0,1-1.466-.2,3.18,3.18,0,0,0-.987-.141,9,9,0,0,0-2.03.253,1.251,1.251,0,0,1-1.354-.593,1.238,1.238,0,0,1,.2-1.466,6.615,6.615,0,0,0,1.721-3.469l.029-.2H11.951a.958.958,0,1,1,0-1.917h1.41l-.085-.311c-.029-.056-.029-.141-.056-.2a4.558,4.558,0,0,1,1.664-5.359,4.338,4.338,0,0,1,5.388.564,1.136,1.136,0,0,1,.394.817,1.121,1.121,0,0,1-.311.875,1.136,1.136,0,0,1-.817.394,1.087,1.087,0,0,1-.875-.311,1.926,1.926,0,0,0-2.4-.338,2.086,2.086,0,0,0-.735,2.566Z" transform="translate(-2.5 -2.5)" fill="#1f335e"/>
</svg>
