<svg xmlns="http://www.w3.org/2000/svg" width="40.518" height="40.24" viewBox="0 0 40.518 40.24">
  <g id="np_circular_1739170_E3E7EA" transform="translate(-4.996 -5.308)">
    <path id="Path_1253" data-name="Path 1253" d="M44.491,29.455a.674.674,0,0,0,.793-.559l.148-.943c.035-.241.062-.48.079-.726a5.112,5.112,0,0,0-.021-.67l-.005-.07a8.013,8.013,0,0,0-.234-1.343,5.949,5.949,0,0,0-1.217-2.2A4.388,4.388,0,0,0,41,21.512a16.058,16.058,0,0,0-1.417-3.693l3.2-1.792a.677.677,0,0,0,.25-.939l-.492-.818c-.127-.207-.26-.406-.419-.622a6.79,6.79,0,0,0-.484-.533,7.908,7.908,0,0,0-1.059-.9,6.041,6.041,0,0,0-2.346-.9,4.351,4.351,0,0,0-3.41,1,16.124,16.124,0,0,0-3.346-1.889L32.843,6.85a.669.669,0,0,0-.018-.52.682.682,0,0,0-.383-.353l-.892-.324a6.485,6.485,0,0,0-1.468-.3,6.1,6.1,0,0,0-1.377,0,7.061,7.061,0,0,0-1.243.281,4.553,4.553,0,0,0-3.114,3.6,16.172,16.172,0,0,0-3.738.651L19.325,6.2a.676.676,0,0,0-.872-.411l-.879.325a5.647,5.647,0,0,0-1.229.645l-.074.047-.049.033a5.444,5.444,0,0,0-1.036.869,6.945,6.945,0,0,0-.775,1.02,5.738,5.738,0,0,0-.306.561,5.069,5.069,0,0,0-.207.575,4.525,4.525,0,0,0-.121,2.251,4.222,4.222,0,0,0,.547,1.333,16.277,16.277,0,0,0-2.5,2.893l-3.265-1.95a.675.675,0,0,0-.921.227,7.953,7.953,0,0,0-.535.934,6.56,6.56,0,0,0-.739,2.641,6.813,6.813,0,0,0,.044,1.3,5.387,5.387,0,0,0,.341,1.175A4.23,4.23,0,0,0,9.2,23.09a16.176,16.176,0,0,0-.172,2.339c0,.519.026,1.05.079,1.584l-3.547.571A.675.675,0,0,0,5,28.356l.13.809c.021.114.044.193.044.193a6.609,6.609,0,0,0,1.147,2.55,6.905,6.905,0,0,0,.86.955,5.048,5.048,0,0,0,1.025.691,4.27,4.27,0,0,0,3.216.353,16.183,16.183,0,0,0,2.53,3.158l-2.2,2.552a.678.678,0,0,0,.063.948l.355.313.039.032.38.288a8.929,8.929,0,0,0,1.22.775,7.024,7.024,0,0,0,1.277.452,5.407,5.407,0,0,0,2.52.062,4.214,4.214,0,0,0,2.042-1.034,4.048,4.048,0,0,0,.547-.61,16.089,16.089,0,0,0,4.085.77l-.044,3.241a.677.677,0,0,0,.617.682s.142.012.325.012c.079,0,.167,0,.234-.007l.475-.021a8.69,8.69,0,0,0,1.444-.188,7.615,7.615,0,0,0,1.259-.475,5.375,5.375,0,0,0,1.984-1.586,4.382,4.382,0,0,0,.6-1,4.5,4.5,0,0,0,.292-1.085,3.98,3.98,0,0,0,.028-.783,16.1,16.1,0,0,0,3.61-2.087l2.066,2.53a.682.682,0,0,0,.9.13,1.922,1.922,0,0,0,.185-.146l.589-.529A6.171,6.171,0,0,0,41,35.554a4.376,4.376,0,0,0-1.236-2.88,16.041,16.041,0,0,0,1.349-3.86Zm-4.3-1.982a.674.674,0,0,0-.28.441,14.708,14.708,0,0,1-1.581,4.593.674.674,0,0,0,.178.855,2.964,2.964,0,0,1,1.143,2.254,4.792,4.792,0,0,1-1.7,3.673l-.178.16-2.047-2.506a.673.673,0,0,0-.459-.244.7.7,0,0,0-.5.153,14.848,14.848,0,0,1-4.25,2.483.677.677,0,0,0-.426.753,2.843,2.843,0,0,1,.03.916,2.826,2.826,0,0,1-.617,1.442,4.032,4.032,0,0,1-1.486,1.19,6.28,6.28,0,0,1-1.008.387,7.509,7.509,0,0,1-1.183.151l-.232.011.044-3.209a.676.676,0,0,0-.663-.684,14.781,14.781,0,0,1-4.83-.893.666.666,0,0,0-.232-.04.676.676,0,0,0-.591.348,2.885,2.885,0,0,1-1.982,1.46,4.01,4.01,0,0,1-1.9-.042,5.754,5.754,0,0,1-1.023-.355,7.407,7.407,0,0,1-1.009-.644l-.185-.141,2.182-2.525a.673.673,0,0,0-.062-.944,14.9,14.9,0,0,1-3.033-3.763.677.677,0,0,0-.862-.285,2.906,2.906,0,0,1-2.6-.1,3.753,3.753,0,0,1-.754-.5,5.576,5.576,0,0,1-.7-.781,5.4,5.4,0,0,1-.911-2.078c0-.009-.011-.04-.016-.07l-.021-.123,3.52-.566a.674.674,0,0,0,.561-.76,14.734,14.734,0,0,1,.1-4.748.676.676,0,0,0-.517-.781,2.922,2.922,0,0,1-2.117-1.8,4.069,4.069,0,0,1-.257-.867,5.616,5.616,0,0,1-.032-1.045,5.358,5.358,0,0,1,.63-2.165c.009-.018.016-.035.023-.053s.044-.079.079-.137l3.246,1.94a.674.674,0,0,0,.92-.223,14.876,14.876,0,0,1,3.06-3.543.677.677,0,0,0,.084-.948,3.043,3.043,0,0,1-.652-1.289,3.176,3.176,0,0,1,.095-1.579,3.854,3.854,0,0,1,.142-.4,4.558,4.558,0,0,1,.227-.413A5.718,5.718,0,0,1,16.2,8.6a4.388,4.388,0,0,1,.8-.659l.076-.049a4.477,4.477,0,0,1,.95-.508l.248-.091,1.275,3.659a.676.676,0,0,0,.858.417,14.784,14.784,0,0,1,4.586-.805.676.676,0,0,0,.663-.682,2.953,2.953,0,0,1,1.431-2.594,2.9,2.9,0,0,1,.791-.375A5.79,5.79,0,0,1,28.9,6.682a4.574,4.574,0,0,1,1.037.009,5.3,5.3,0,0,1,1.141.229l.25.09-1.358,3.575a.676.676,0,0,0,.4.874,14.872,14.872,0,0,1,4.088,2.293.677.677,0,0,0,.928-.086,2.894,2.894,0,0,1,2.274-1.022c.137,0,.276.009.4.021a4.632,4.632,0,0,1,1.764.679,6.613,6.613,0,0,1,.848.723c.13.132.267.276.371.4.118.162.232.331.338.5l.13.216-3.179,1.78a.675.675,0,0,0-.251.932A14.719,14.719,0,0,1,39.8,22.339a.681.681,0,0,0,.724.533,2.982,2.982,0,0,1,2.5.971,4.506,4.506,0,0,1,.92,1.662,6.694,6.694,0,0,1,.19,1.09l.005.063a4.014,4.014,0,0,1,.019.487c-.014.2-.035.4-.065.6l-.039.25-3.35-.635a.681.681,0,0,0-.513.111Z" fill="#4b4a4c"/>
    <path id="Path_1254" data-name="Path 1254" d="M36.641,25.7A10.938,10.938,0,1,0,47.578,36.641,10.95,10.95,0,0,0,36.641,25.7Zm0,20.525a9.587,9.587,0,1,1,9.587-9.587,9.6,9.6,0,0,1-9.587,9.587Z" transform="translate(-11.385 -11.214)" fill="#4b4a4c"/>
  </g>
</svg>
