<svg id="np_education_2504151_3E3C3B" xmlns="http://www.w3.org/2000/svg" width="90.01" height="62.572" viewBox="0 0 90.01 62.572">
  <path id="Path_1306" data-name="Path 1306" d="M87.565,36.2c-2.829,1.3-5.644,2.589-8.473,3.891-2.393,1.1-4.771,2.189-7.164,3.291Q68.3,45.041,64.684,46.7q-6,2.755-11.994,5.509c-2.437,1.12-4.891,2.189-7.3,3.353l-.109.055h2.756c-2.029-.927-4.044-1.862-6.073-2.793q-5.957-2.744-11.921-5.473-4.173-1.92-8.346-3.837C19.7,42.6,17.7,41.69,15.713,40.774q-4.882-2.247-9.775-4.491a1.806,1.806,0,0,1-.189-.091V40.9c1.4-.647,2.807-1.291,4.211-1.935,3.375-1.546,6.735-3.1,10.109-4.648L32.288,28.7q5.28-2.427,10.553-4.855c1.7-.782,3.429-1.527,5.109-2.346a.227.227,0,0,0,.073-.036H45.267c1.4.647,2.807,1.291,4.211,1.935,3.375,1.546,6.735,3.1,10.109,4.648l12.219,5.619q5.28,2.427,10.553,4.855c1.7.782,3.4,1.571,5.109,2.346a.227.227,0,0,1,.073.036,2.913,2.913,0,0,0,2.1.273,2.727,2.727,0,0,0,.644-4.982c-1.411-.647-2.829-1.3-4.237-1.946Q80.978,31.911,75.9,29.584q-6.109-2.809-12.226-5.619-5.28-2.427-10.564-4.855c-1.68-.771-3.364-1.556-5.048-2.32a2.911,2.911,0,0,0-2.153-.3,6.92,6.92,0,0,0-.72.309c-.182.08-.371.175-.553.255-.873.4-1.738.8-2.611,1.2q-4.789,2.2-9.571,4.4-6.1,2.809-12.2,5.608-5.493,2.52-10.982,5.048c-2.007.916-4.018,1.847-6.018,2.764-.091.044-.182.08-.284.127a2.743,2.743,0,0,0,0,4.709q4.282,1.964,8.553,3.928,3.546,1.636,7.091,3.266c2.444,1.127,4.9,2.247,7.346,3.375q6,2.755,11.994,5.509c2.407,1.109,4.808,2.218,7.219,3.317a2.968,2.968,0,0,0,2.189.32,6.825,6.825,0,0,0,.756-.32c.284-.127.564-.262.847-.393,1.255-.575,2.509-1.156,3.764-1.727q5.88-2.7,11.765-5.411c3.1-1.425,6.211-2.855,9.31-4.284q2.553-1.173,5.1-2.346,5.346-2.455,10.685-4.909l.709-.327a2.727,2.727,0,0,0-.644-4.982,3.083,3.083,0,0,0-2.084.269Z" transform="translate(-1.631 -16.389)" fill="#3e3c3b"/>
  <path id="Path_1307" data-name="Path 1307" d="M71.826,47.669V68.961a30.042,30.042,0,0,1-.055,3.48c.036-.247.065-.48.1-.727a7.008,7.008,0,0,1-.436,1.647l.273-.655a7.144,7.144,0,0,1-.582,1.109c-.055.08-.109.164-.175.247-.255.382.364-.418.175-.225-.145.153-.284.327-.436.48s-.291.273-.436.4c-.32.284.491-.345.225-.175-.08.055-.164.116-.247.175a6.8,6.8,0,0,1-1.156.618l.655-.273a6.607,6.607,0,0,1-1.647.436c.247-.036.48-.065.727-.1a14.445,14.445,0,0,1-1.775.055H32.429c-1.556,0-3.117.007-4.673,0a7.763,7.763,0,0,1-.909-.055c.247.036.48.065.727.1a7.007,7.007,0,0,1-1.647-.436l.655.273a7.144,7.144,0,0,1-1.109-.582c-.08-.055-.164-.109-.247-.175-.382-.255.418.364.225.175-.153-.145-.327-.284-.48-.436s-.273-.291-.4-.436c-.284-.32.345.491.175.225-.055-.08-.116-.164-.175-.247a6.8,6.8,0,0,1-.618-1.156l.273.655a6.608,6.608,0,0,1-.436-1.647c.036.247.065.48.1.727a25.353,25.353,0,0,1-.055-2.975v-21.8c-1.364.782-2.735,1.571-4.1,2.356l9.146,4.2q7.2,3.3,14.394,6.611c1.062.491,2.116.982,3.182,1.466a3.061,3.061,0,0,0,2.818,0c.116-.055.225-.1.335-.153.553-.255,1.1-.509,1.655-.764q6.862-3.153,13.728-6.309C68.6,53.415,72.2,51.76,75.809,50.095c.055-.029.116-.055.175-.08a2.727,2.727,0,0,0-.644-4.982,3.125,3.125,0,0,0-2.1.273q-4.528,2.084-9.062,4.164-7.173,3.3-14.357,6.6c-1.109.509-2.211,1.018-3.317,1.527h2.756q-4.528-2.084-9.062-4.164-7.173-3.3-14.357-6.6c-1.109-.509-2.211-1.018-3.317-1.527a2.856,2.856,0,0,0-2.756,0,2.739,2.739,0,0,0-1.353,2.356V69.3c0,.953-.065,1.935.029,2.891A9.676,9.676,0,0,0,21.068,78.1a9.522,9.522,0,0,0,5.826,2.771,18.194,18.194,0,0,0,2.226.055H67.7a9.354,9.354,0,0,0,9.608-8.855c.029-.356.018-.709.018-1.062V47.673a2.749,2.749,0,0,0-5.5,0Z" transform="translate(-2.788 -18.361)" fill="#3e3c3b"/>
  <path id="Path_1308" data-name="Path 1308" d="M7.107,63.529V39.993A2.759,2.759,0,0,0,4.38,37.266a2.771,2.771,0,0,0-2.727,2.727V63.529A2.759,2.759,0,0,0,4.38,66.257,2.772,2.772,0,0,0,7.107,63.529Z" transform="translate(-1.632 -17.83)" fill="#3e3c3b"/>
</svg>
