<svg id="np_event_1359569_3E3C3B" xmlns="http://www.w3.org/2000/svg" width="75.728" height="73.415" viewBox="0 0 75.728 73.415">
  <path id="Path_1301" data-name="Path 1301" d="M66.954,51.689,63.1,47.66l-19.234,18.4-9.607-9.6-3.949,3.949,13.474,13.47Z" transform="translate(-10.777 -13.13)" fill="#3e3c3b"/>
  <path id="Path_1302" data-name="Path 1302" d="M29.809,10.57H27.336a6.515,6.515,0,0,0-6.517,6.517v.931H19.569A10.242,10.242,0,0,0,9.328,28.258V73.744A10.242,10.242,0,0,0,19.569,83.984H74.815A10.242,10.242,0,0,0,85.056,73.744V28.265A10.242,10.242,0,0,0,74.815,18.024H73.564v-.931a6.512,6.512,0,0,0-6.517-6.517H64.575a6.518,6.518,0,0,0-6.517,6.517v.931H36.326v-.931a6.512,6.512,0,0,0-6.517-6.524Zm-3.418,6.517h0a.933.933,0,0,1,.931-.931h2.484a.93.93,0,0,1,.658.273.915.915,0,0,1,.273.658v7.448a.915.915,0,0,1-.273.658.93.93,0,0,1-.658.273H27.336a.93.93,0,0,1-.931-.931ZM79.455,73.744h0A4.656,4.656,0,0,1,74.8,78.4H19.569a4.657,4.657,0,0,1-4.655-4.655V42.335H79.47ZM63.629,17.087h0a.933.933,0,0,1,.931-.931h2.484a.93.93,0,0,1,.658.273.915.915,0,0,1,.273.658v7.448a.915.915,0,0,1-.273.658.93.93,0,0,1-.658.273H64.575a.93.93,0,0,1-.931-.931ZM58.043,23.6v.931h0a6.515,6.515,0,0,0,6.517,6.517h2.484a6.515,6.515,0,0,0,6.517-6.517V23.6H74.8a4.656,4.656,0,0,1,4.655,4.655v8.473H14.914V28.258A4.657,4.657,0,0,1,19.569,23.6H20.8v.931h0a6.515,6.515,0,0,0,6.517,6.517h2.484a6.515,6.515,0,0,0,6.517-6.517V23.6Z" transform="translate(-9.328 -10.569)" fill="#3e3c3b"/>
</svg>
