<svg xmlns="http://www.w3.org/2000/svg" width="93.095" height="93.103" viewBox="0 0 93.095 93.103">
  <path id="np_collaboration_3266170_3E3C3B" d="M46.537,0a9.546,9.546,0,1,0,9.557,9.557A9.589,9.589,0,0,0,46.537,0Zm0,5.826A3.726,3.726,0,1,1,42.82,9.557a3.7,3.7,0,0,1,3.717-3.735Zm0,15.59A12.122,12.122,0,0,0,34.445,33.5v4.382a2.912,2.912,0,0,0,2.92,2.924H55.731a2.912,2.912,0,0,0,2.9-2.924V33.5A12.119,12.119,0,0,0,46.538,21.412Zm0,5.8A6.209,6.209,0,0,1,52.81,33.5v1.484H40.271V33.5a6.206,6.206,0,0,1,6.266-6.291ZM46.5,44.925a2.91,2.91,0,0,0-2.858,2.942V60.181l-14.9,12.837a2.909,2.909,0,1,0,3.8,4.4l14-12.074L60.559,77.422a2.909,2.909,0,1,0,3.778-4.4L49.457,60.181V47.867a2.907,2.907,0,0,0-2.96-2.942ZM12.091,52.29a9.557,9.557,0,1,0,9.557,9.557,9.608,9.608,0,0,0-9.557-9.557ZM81,52.29a9.557,9.557,0,1,0,9.535,9.557A9.608,9.608,0,0,0,81,52.29ZM12.091,58.115A3.737,3.737,0,1,1,8.353,61.85,3.694,3.694,0,0,1,12.091,58.115Zm68.912,0a3.737,3.737,0,1,1-3.735,3.735A3.679,3.679,0,0,1,81,58.115ZM12.091,73.705A12.126,12.126,0,0,0,0,85.8v4.4A2.912,2.912,0,0,0,2.9,93.1H21.281a2.911,2.911,0,0,0,2.9-2.906V85.8A12.126,12.126,0,0,0,12.092,73.705Zm68.912,0A12.142,12.142,0,0,0,68.894,85.8v4.4a2.912,2.912,0,0,0,2.92,2.906H90.175a2.912,2.912,0,0,0,2.92-2.906V85.8A12.126,12.126,0,0,0,81,73.705ZM12.091,79.524A6.188,6.188,0,0,1,18.357,85.8v1.476H5.818V85.8a6.194,6.194,0,0,1,6.273-6.273Zm68.912,0A6.194,6.194,0,0,1,87.277,85.8v1.476H74.712V85.8A6.209,6.209,0,0,1,81,79.524Z" transform="translate(0 0.004)" fill="#3e3c3b"/>
</svg>
