<svg xmlns="http://www.w3.org/2000/svg" width="21.301" height="27.172" viewBox="0 0 21.301 27.172">
  <g id="np_upload_4177789_CCCCCC" transform="translate(-18.339 -9.613)">
    <path id="Path_1317" data-name="Path 1317" d="M37.677,28.02a1.052,1.052,0,0,0,1.051-1.051V13.2l3.406,3.406h0a1.051,1.051,0,0,0,1.486-1.486l-5.2-5.2a1.05,1.05,0,0,0-1.487,0l-5.2,5.2a1.051,1.051,0,0,0,1.486,1.486l3.406-3.4V26.969a1.052,1.052,0,0,0,1.051,1.051Z" transform="translate(-8.687)" fill="#ccc"/>
    <path id="Path_1318" data-name="Path 1318" d="M18.34,40.508v15.03a1.052,1.052,0,0,0,1.051,1.051h19.2a1.052,1.052,0,0,0,1.051-1.051V40.508a1.052,1.052,0,0,0-1.051-1.051H34.449a1.051,1.051,0,0,0,0,2.1h3.088V54.487h-17.1V41.56h3.089a1.051,1.051,0,1,0,0-2.1H19.39a1.051,1.051,0,0,0-1.051,1.051Z" transform="translate(0 -19.804)" fill="#ccc"/>
  </g>
</svg>
