<svg xmlns="http://www.w3.org/2000/svg" width="93.097" height="93.097" viewBox="0 0 93.097 93.097">
  <path id="np_room_3863643_3E3C3B" d="M0,73.927V19.168A2.738,2.738,0,0,1,1.778,16.6L45.588.175A2.707,2.707,0,0,1,47.574.2L91.318,16.6A2.738,2.738,0,0,1,93.1,19.169V73.928a2.734,2.734,0,0,1-1.855,2.593l-43.734,16.4a2.727,2.727,0,0,1-1.92,0L1.854,76.521A2.734,2.734,0,0,1,0,73.928Zm76.666-8.055L87.62,69.978V34.754L49.287,20.379V55.6l8.215,3.08v-24.8a2.736,2.736,0,0,1,3.7-2.564l13.692,5.131a2.741,2.741,0,0,1,1.775,2.564ZM62.978,37.835v22.9l8.211,3.08v-22.9ZM10.536,73.928,46.549,87.434,82.562,73.928l-36.013-13.5ZM43.81,20.379,5.477,34.754V69.978L43.81,55.6Zm5.477-5.848L87.62,28.907V21.063L49.286,6.688ZM5.477,28.907,43.81,14.532V6.688L5.477,21.063ZM10.953,56.13V42.442a2.734,2.734,0,0,1,1.775-2.564l21.906-8.215a2.736,2.736,0,0,1,3.7,2.564V47.915a2.74,2.74,0,0,1-1.775,2.564L14.652,58.694a2.736,2.736,0,0,1-3.7-2.564Zm21.9-10.109V38.176l-16.427,6.16v7.844Z" transform="translate(0.001 0.001)" fill="#3e3c3b"/>
</svg>
