<svg xmlns="http://www.w3.org/2000/svg" width="37.596" height="37.596" viewBox="0 0 37.596 37.596">
  <g id="np_insights_3605317_E3E7EA" transform="translate(-10.418 -10.418)">
    <path id="Path_1229" data-name="Path 1229" d="M35.418,11.407a.987.987,0,0,1,.989-.989H48.279a.987.987,0,0,1,.989.989V47.025a.987.987,0,0,1-.989.989H36.407a.987.987,0,0,1-.989-.989ZM37.4,12.4V46.036h9.9V12.4Z" transform="translate(-13.127 0)" fill="#4b4a4c" fill-rule="evenodd"/>
    <path id="Path_1230" data-name="Path 1230" d="M10.418,48.907a.987.987,0,0,1,.989-.989H23.279a.987.987,0,0,1,.989.989V66.716a.987.987,0,0,1-.989.989H11.407a.987.987,0,0,1-.989-.989ZM12.4,49.9V65.727h9.9V49.9Z" transform="translate(0 -19.691)" fill="#4b4a4c" fill-rule="evenodd"/>
    <path id="Path_1231" data-name="Path 1231" d="M60.418,28.073a.989.989,0,0,1,.989-.991H73.279a.989.989,0,0,1,.989.991v27.7a.987.987,0,0,1-.989.989H61.407a.987.987,0,0,1-.989-.989Zm1.978.989V54.786h9.9V29.061Z" transform="translate(-26.255 -8.75)" fill="#4b4a4c" fill-rule="evenodd"/>
  </g>
</svg>
