<svg xmlns="http://www.w3.org/2000/svg" width="39.204" height="39.205" viewBox="0 0 39.204 39.205">
  <path id="Exclusion_3" data-name="Exclusion 3" d="M19.6,39.205a19.608,19.608,0,0,1-7.63-37.665,19.608,19.608,0,0,1,15.26,36.124A19.478,19.478,0,0,1,19.6,39.205Zm0-29.323c-2.6,0-2.95.011-4.008.059-3.537.163-5.492,2.118-5.653,5.654-.048,1.033-.06,1.377-.06,4.008s.011,2.971.059,4.008c.162,3.536,2.116,5.492,5.653,5.654,1.041.047,1.387.058,4.009.058s2.967-.011,4.008-.058c3.539-.163,5.493-2.118,5.653-5.654.048-1.037.059-1.381.059-4.008s-.011-2.971-.059-4.007C29.1,12.058,27.15,10.1,23.611,9.942,22.556,9.893,22.208,9.882,19.6,9.882Zm0,17.69c-2.608,0-2.913-.01-3.929-.056-2.634-.121-3.863-1.35-3.984-3.985-.047-1.012-.057-1.317-.057-3.928,0-2.587.01-2.9.057-3.928.121-2.636,1.35-3.865,3.984-3.985,1.016-.046,1.322-.056,3.929-.056s2.916.01,3.929.057a4.233,4.233,0,0,1,2.935,1.056,4.247,4.247,0,0,1,1.049,2.928c.047,1.014.056,1.288.056,3.928,0,2.607-.01,2.913-.056,3.928-.121,2.635-1.35,3.864-3.984,3.985C22.515,27.562,22.209,27.572,19.6,27.572Zm0-12.961A4.992,4.992,0,1,0,24.593,19.6,5,5,0,0,0,19.6,14.611Zm5.189-1.363a1.166,1.166,0,1,0,1.166,1.166A1.168,1.168,0,0,0,24.791,13.248ZM19.6,22.843a3.24,3.24,0,1,1,3.239-3.24A3.244,3.244,0,0,1,19.6,22.843Z" fill="#3e3c3b"/>
</svg>
