<svg xmlns="http://www.w3.org/2000/svg" width="25.261" height="25.261" viewBox="0 0 25.261 25.261">
  <path id="Exclusion_2" data-name="Exclusion 2" d="M12.631,25.261A12.634,12.634,0,0,1,7.714.993a12.634,12.634,0,0,1,9.833,23.276A12.55,12.55,0,0,1,12.631,25.261Zm0-18.894c-1.676,0-1.9.007-2.582.038a3.454,3.454,0,0,0-3.643,3.643c-.031.665-.038.887-.038,2.582s.007,1.914.038,2.582a3.454,3.454,0,0,0,3.643,3.643c.671.03.894.037,2.583.037s1.912-.007,2.582-.037a3.452,3.452,0,0,0,3.643-3.643c.031-.668.038-.89.038-2.582s-.007-1.915-.038-2.582a3.451,3.451,0,0,0-3.642-3.643C14.534,6.375,14.31,6.367,12.631,6.367Zm0,11.4c-1.68,0-1.877-.006-2.531-.036a2.348,2.348,0,0,1-2.567-2.568c-.03-.652-.037-.849-.037-2.531,0-1.667.006-1.866.037-2.531A2.347,2.347,0,0,1,10.1,7.533c.655-.03.852-.036,2.531-.036s1.879.006,2.531.037a2.728,2.728,0,0,1,1.891.681,2.736,2.736,0,0,1,.676,1.887c.03.653.036.83.036,2.531,0,1.68-.006,1.877-.036,2.531a2.347,2.347,0,0,1-2.567,2.567C14.507,17.759,14.31,17.765,12.631,17.765Zm0-8.351a3.216,3.216,0,1,0,3.216,3.216A3.22,3.22,0,0,0,12.631,9.414Zm3.343-.878a.752.752,0,1,0,.751.751A.753.753,0,0,0,15.974,8.536Zm-3.343,6.182a2.088,2.088,0,1,1,2.087-2.088A2.09,2.09,0,0,1,12.631,14.719Z" transform="translate(0 0)" fill="#3882CD"/>
</svg>
