<svg id="np_journal_1430211_3E3C3B" xmlns="http://www.w3.org/2000/svg" width="84.252" height="72.615" viewBox="0 0 84.252 72.615">
  <path id="Path_1287" data-name="Path 1287" d="M80.572,11h-52.6a8.381,8.381,0,0,0-8.379,8.379V36.136H13.078A8.381,8.381,0,0,0,4.7,44.515v28.86A10.242,10.242,0,0,0,14.94,83.615H76.848a12.1,12.1,0,0,0,12.1-12.1V19.379A8.378,8.378,0,0,0,80.572,11ZM19.594,73.374a4.655,4.655,0,1,1-9.31,0V44.515a2.794,2.794,0,0,1,2.793-2.793h6.517Zm63.771-1.862a6.518,6.518,0,0,1-6.517,6.517H24.064a10.154,10.154,0,0,0,1.116-4.655v-54a2.794,2.794,0,0,1,2.793-2.793h52.6a2.794,2.794,0,0,1,2.793,2.793Z" transform="translate(-4.699 -11)" fill="#3e3c3b"/>
  <path id="Path_1288" data-name="Path 1288" d="M51.188,23.5h-14.9A2.794,2.794,0,0,0,33.5,26.293V40.257a2.794,2.794,0,0,0,2.793,2.793h14.9a2.794,2.794,0,0,0,2.793-2.793V26.293A2.794,2.794,0,0,0,51.188,23.5ZM48.4,37.464h-9.31V29.086H48.4Z" transform="translate(-6.688 -11.863)" fill="#3e3c3b"/>
  <path id="Path_1289" data-name="Path 1289" d="M60.5,25.5H80.981v5.586H60.5Z" transform="translate(-8.552 -12.001)" fill="#3e3c3b"/>
  <path id="Path_1290" data-name="Path 1290" d="M60.5,36.5H80.981v5.586H60.5Z" transform="translate(-8.552 -12.761)" fill="#3e3c3b"/>
  <path id="Path_1291" data-name="Path 1291" d="M51.188,52.5h-14.9A2.794,2.794,0,0,0,33.5,55.293V69.257a2.794,2.794,0,0,0,2.793,2.793h14.9a2.794,2.794,0,0,0,2.793-2.793V55.293A2.794,2.794,0,0,0,51.188,52.5ZM48.4,66.464h-9.31V58.086H48.4Z" transform="translate(-6.688 -13.865)" fill="#3e3c3b"/>
  <path id="Path_1292" data-name="Path 1292" d="M60.5,54.5H80.981v5.586H60.5Z" transform="translate(-8.552 -14.003)" fill="#3e3c3b"/>
  <path id="Path_1293" data-name="Path 1293" d="M60.5,65.5H80.981v5.586H60.5Z" transform="translate(-8.552 -14.763)" fill="#3e3c3b"/>
</svg>
