<svg id="np_library_576643_3E3C3B" xmlns="http://www.w3.org/2000/svg" width="93.096" height="78.556" viewBox="0 0 93.096 78.556">
  <path id="Path_1303" data-name="Path 1303" d="M88.187,85.447H4.91A4.919,4.919,0,0,1,0,80.527V20.549A4.92,4.92,0,0,1,4.91,15.625h9.637a2.909,2.909,0,0,1,0,5.818H5.819V79.628H87.278V21.443H78.55a2.909,2.909,0,0,1,0-5.818h9.637A4.922,4.922,0,0,1,93.1,20.549V80.53a4.921,4.921,0,0,1-4.909,4.917Z" transform="translate(-0.001 -6.891)" fill="#3e3c3b"/>
  <path id="Path_1304" data-name="Path 1304" d="M49.784,85.485a2.908,2.908,0,0,1-2.909-2.909V19.085a2.909,2.909,0,1,1,5.818,0v63.49A2.908,2.908,0,0,1,49.784,85.485Z" transform="translate(-3.237 -6.929)" fill="#3e3c3b"/>
  <path id="Path_1305" data-name="Path 1305" d="M48.935,83.344a2.92,2.92,0,0,1-1.491-.411,2.907,2.907,0,0,1-4.4-2.5,7.283,7.283,0,0,0-7.273-7.273H15.409A2.908,2.908,0,0,1,12.5,70.253V15.988a2.909,2.909,0,0,1,1.422-2.5l6.789-4.04a22.738,22.738,0,0,1,26.7,2.495,22.748,22.748,0,0,1,26.7-2.495L80.9,13.486a2.915,2.915,0,0,1,1.422,2.5V70.253a2.908,2.908,0,0,1-2.909,2.909h-20.3a7.28,7.28,0,0,0-7.273,7.273,2.908,2.908,0,0,1-2.909,2.909Zm-30.616-16H35.705A13.158,13.158,0,0,1,47.447,74.51a13.1,13.1,0,0,1,11.67-7.168H76.5v-49.7l-5.368-3.193a16.92,16.92,0,0,0-20.569,2.509l-1.109,1.1a2.908,2.908,0,0,1-4.095,0l-1.106-1.1a16.911,16.911,0,0,0-20.572-2.509l-5.368,3.193Z" transform="translate(-0.864 -6.243)" fill="#3e3c3b"/>
</svg>
