<svg xmlns="http://www.w3.org/2000/svg" width="39.204" height="39.205" viewBox="0 0 39.204 39.205">
  <g id="Group_1540" data-name="Group 1540" transform="translate(-0.001 0)">
    <g id="Group_1539" data-name="Group 1539" transform="translate(0.001 0)">
      <path id="Exclusion_4" data-name="Exclusion 4" d="M19.6,0A19.6,19.6,0,1,1,0,19.6,19.6,19.6,0,0,1,19.6,0Z" transform="translate(0)" fill="#3e3c3b"/>
    </g>
    <path id="iconmonstr-linkedin-1" d="M3.84,2.928A1.913,1.913,0,1,1,1.928,1,1.92,1.92,0,0,1,3.84,2.928ZM3.856,6.4H0V18.737H3.856Zm6.156,0H6.18V18.737h3.832V12.26c0-3.6,4.649-3.9,4.649,0v6.477h3.847V10.924c0-6.077-6.88-5.856-8.5-2.864V6.4Z" transform="translate(10.864 9.864)" fill="#fff"/>
  </g>
</svg>
