<svg id="np_newsletter_3609765_3E3C3B" xmlns="http://www.w3.org/2000/svg" width="87.276" height="83.931" viewBox="0 0 87.276 83.931">
  <path id="Path_1297" data-name="Path 1297" d="M90.4,46.99a1.069,1.069,0,0,0-.291-.873v-.291c0-.291-.291-.582-.582-.873L78.766,34.19V20.808A2.915,2.915,0,0,0,75.857,17.9H62.474L54.037,9.461a10.186,10.186,0,0,0-14.546,0L31.054,17.9H17.672a2.749,2.749,0,0,0-2.909,2.909V34.19L4,44.954c-.291.291-.291.582-.582.873v.291a1.069,1.069,0,0,0-.291.873V88.3c0,.291,0,.291.291.582l.291.291c0,.291.291.291.291.582a1.016,1.016,0,0,0,.582.291c.291,0,.291.291.582.291H87.494a1.069,1.069,0,0,0,.873-.291h.291a.626.626,0,0,0,.582-.582c.291-.291.291-.582.582-.582,0-.291,0-.291.291-.582V46.99ZM8.944,51.645,39.49,67.355,8.944,83.065Zm37.238,18.91h.873L74.983,84.81H18.253Zm7.855-3.2,30.547-15.71V82.774ZM82.547,46.118l-3.782,2.036V42.335ZM43.564,13.534a4.566,4.566,0,0,1,6.4,0L54.328,17.9H39.49ZM72.946,23.717V51.064l-25.6,13.091h-.873L20.581,51.064V23.717ZM14.762,48.154,10.98,46.118l3.782-3.782Z" transform="translate(-3.126 -6.407)" fill="#3e3c3b"/>
  <path id="Path_1298" data-name="Path 1298" d="M31.034,54.524H48.49A2.749,2.749,0,0,0,51.4,51.615V34.159A2.749,2.749,0,0,0,48.49,31.25H31.034a2.749,2.749,0,0,0-2.909,2.909V51.615A2.749,2.749,0,0,0,31.034,54.524Zm2.909-17.455H45.58V48.705H33.943Z" transform="translate(-4.852 -8.122)" fill="#3e3c3b"/>
  <path id="Path_1299" data-name="Path 1299" d="M62.284,40.193H68.1a2.909,2.909,0,0,0,0-5.818H62.284a2.909,2.909,0,0,0,0,5.818Z" transform="translate(-7.01 -8.338)" fill="#3e3c3b"/>
  <path id="Path_1300" data-name="Path 1300" d="M62.284,52.693H68.1a2.909,2.909,0,0,0,0-5.818H62.284a2.909,2.909,0,0,0,0,5.818Z" transform="translate(-7.01 -9.201)" fill="#3e3c3b"/>
</svg>
