<svg xmlns="http://www.w3.org/2000/svg" width="44.782" height="40.653" viewBox="0 0 44.782 40.653">
  <path id="np_announcement_2143529_E3E7EA" d="M47.392,7.652a1.108,1.108,0,0,0-1.064-.084l-20.245,8.9a1.145,1.145,0,0,0-1.092-.9H12.621a9.53,9.53,0,0,0-1.67,18.911V46.985a1.139,1.139,0,0,0,1.12,1.138h6.838a1.145,1.145,0,0,0,1.073-.83l3.667-12.7h1.343a1.1,1.1,0,0,0,1.092-.877l20.245,8.928a1.082,1.082,0,0,0,.448.1,1.094,1.094,0,0,0,.606-.177,1.111,1.111,0,0,0,.5-.933V8.585a1.081,1.081,0,0,0-.494-.933ZM26.065,18.923,38.38,13.53V36.7L26.065,31.3ZM5.344,25.08A7.286,7.286,0,0,1,12.621,17.8h11.2V32.357h-11.2A7.286,7.286,0,0,1,5.344,25.08Zm12.726,20.8H13.191V34.6h8.126Zm27.587-5.971-5.038-2.239V12.542L45.657,10.3Z" transform="translate(-3.105 -7.47)" fill="#4b4a4c"/>
</svg>
