<?xml version="1.0" encoding="utf-8"?>
<!-- Generator: Adobe Illustrator 26.1.0, SVG Export Plug-In . SVG Version: 6.00 Build 0)  -->
<svg version="1.1" id="Layer_1" xmlns="http://www.w3.org/2000/svg" xmlns:xlink="http://www.w3.org/1999/xlink" x="0px" y="0px"
	 viewBox="0 0 150 150.1" style="enable-background:new 0 0 150 150.1;" xml:space="preserve">
<style type="text/css">
	.st0{fill:#005CB9;}
	.st1{fill:#000002;}
</style>
<g>
	<path class="st0" d="M-0.3,149.8v-1.4c0-24.9-0.2-49.8,0.1-74.8c0.2-21.9,8.8-40.2,25-55c10.3-9.5,23.4-15.9,37.4-18
		c26.6-4,49.3,3.8,67.8,23.4c10.1,10.5,16.7,24.1,18.7,38.7c3.9,27.4-4.5,50.5-25.2,68.9c-9.8,8.7-21.9,14.5-34.9,16.8
		c-4.2,0.8-8.4,1.2-12.7,1.2c-24.9,0.1-49.9,0.1-74.9,0.1L-0.3,149.8z M29.6,95.8v22.5c0,1.6,0,1.6,1.7,1.6
		c14.6,0,29.1,0.1,43.6-0.1c3.5,0,7.1-0.5,10.5-1.3c23.9-5.7,38.8-29.5,33.5-53.6C113.7,40.4,88.5,24.6,64,30.6
		c-20.3,4.9-34.6,23.1-34.6,44C29.5,81.8,29.6,88.8,29.6,95.8z"/>
	<path class="st1" d="M75.3,99.6c-13.8,0-24.8-11.2-24.8-24.9s11.2-24.8,24.9-24.8s24.8,11.2,24.8,24.9l0,0
		C100.2,88.6,89,99.7,75.3,99.6C75.4,99.6,75.4,99.6,75.3,99.6z"/>
</g>
</svg>
