<svg xmlns="http://www.w3.org/2000/svg" width="26.304" height="35.552" viewBox="0 0 26.304 35.552">
  <g id="Group_1112" data-name="Group 1112" transform="translate(-146 -1790.117)">
    <path id="Path_1309" data-name="Path 1309" d="M26.092,50.487h1.976c.83,0,1.724.408,1.686,1.434-.034.923-.59,1.479-1.686,1.479H26.092ZM24.016,48.77v9.921h2.077v-3.6h2.3a3.036,3.036,0,0,0,3.181-3.108,3.131,3.131,0,0,0-3.181-3.21Z" transform="translate(121.984 1758.536)" fill="#404040"/>
    <path id="Path_1310" data-name="Path 1310" d="M44.019,50.487h1.536c2.013,0,2.761,1.307,2.769,3.135,0,1.866-.83,3.378-2.585,3.378h-1.72ZM42,48.77v9.921h4.155c2.846,0,4.332-2.5,4.289-5.066a4.637,4.637,0,0,0-4.6-4.855Z" transform="translate(113.079 1758.536)" fill="#404040"/>
    <path id="Path_1311" data-name="Path 1311" d="M62.121,48.77v9.919H64.2V54.506h4.362V52.757H64.2V50.5h4.989V48.77Z" transform="translate(103.116 1758.536)" fill="#404040"/>
    <path id="Path_1312" data-name="Path 1312" d="M31.795,14.723l-7.768,8.945v6.8h1.9V24.98h8.641V18.588H32.664v4.484h-5.6l5.6-6.443H48.413V30.464H50.32V14.723Z" transform="translate(121.979 1775.395)" fill="#404040" fill-rule="evenodd"/>
    <path id="Path_1313" data-name="Path 1313" d="M24.027,68.007v6.959l26.293.026V64.641H48.413v8.44l-22.481-.02V68.007Z" transform="translate(121.979 1750.677)" fill="#404040" fill-rule="evenodd"/>
  </g>
</svg>
