<svg xmlns="http://www.w3.org/2000/svg" width="42.87" height="36.957" viewBox="0 0 42.87 36.957">
  <g id="np_press-release_2477621_E3E7EA" transform="translate(-4.688 -10.938)">
    <path id="Path_1220" data-name="Path 1220" d="M42.11,10.938H21.969a5.463,5.463,0,0,0-5.455,5.455v4.22H8.295a3.571,3.571,0,0,0-2.38,1,3.946,3.946,0,0,0-1.227,2.868V41.242a2.327,2.327,0,0,0,2.321,2.321H10.6V44.2a3.7,3.7,0,0,0,3.7,3.7H42.11a5.455,5.455,0,0,0,5.448-5.448V16.393a5.461,5.461,0,0,0-5.448-5.455ZM7.009,42.07a.842.842,0,0,1-.843-.828V24.478A2.481,2.481,0,0,1,6.905,22.7a2.1,2.1,0,0,1,1.478-.606,1.689,1.689,0,0,1,.273,0h.192l.222.067.177.067c.074,0,.148.074.222.111l.148.081a2.863,2.863,0,0,1,.325.273,2.217,2.217,0,0,1,.658,1.619V42.048ZM12.079,44.2V24.309a3.431,3.431,0,0,0-.067-.673,1.861,1.861,0,0,0-.052-.2,3.314,3.314,0,0,0-.133-.443,2.177,2.177,0,0,0-.089-.214c-.067-.133-.133-.266-.207-.392l-.126-.2-.067-.1h5.174V44.2a2.217,2.217,0,0,1-4.435,0Zm34-1.752a3.977,3.977,0,0,1-3.969,3.969H17.253l.059-.089.118-.192a3.848,3.848,0,0,0,.207-.384c.037-.074.067-.148.1-.222a4,4,0,0,0,.14-.436.943.943,0,0,1,.052-.207,4.287,4.287,0,0,0,.067-.687V16.393a3.975,3.975,0,0,1,3.976-3.976H42.11a3.976,3.976,0,0,1,3.969,3.976Z" fill="#4b4a4c"/>
    <path id="Path_1221" data-name="Path 1221" d="M74.1,37.625H65.973a.739.739,0,0,0-.739.739v7.273a.738.738,0,0,0,.739.739H74.1a.738.738,0,0,0,.739-.739V38.364a.738.738,0,0,0-.739-.739ZM73.364,44.9H66.712V39.1h6.652Z" transform="translate(-31.905 -14.063)" fill="#4b4a4c"/>
    <path id="Path_1222" data-name="Path 1222" d="M41.755,27.072H60.913a.739.739,0,0,0,0-1.478H41.755a.739.739,0,0,0,0,1.478Z" transform="translate(-19.143 -7.723)" fill="#4b4a4c"/>
    <path id="Path_1223" data-name="Path 1223" d="M49.331,61.812H41.755a.739.739,0,0,0,0,1.478h7.576a.739.739,0,1,0,0-1.478Z" transform="translate(-19.143 -26.808)" fill="#4b4a4c"/>
    <path id="Path_1224" data-name="Path 1224" d="M49.331,51.859H41.755a.739.739,0,0,0,0,1.478h7.576a.739.739,0,0,0,0-1.478Z" transform="translate(-19.143 -21.564)" fill="#4b4a4c"/>
    <path id="Path_1225" data-name="Path 1225" d="M49.331,41.922H41.755a.739.739,0,0,0,0,1.478h7.576a.739.739,0,0,0,0-1.478Z" transform="translate(-19.143 -16.327)" fill="#4b4a4c"/>
    <path id="Path_1226" data-name="Path 1226" d="M74.721,61.812H67.145a.739.739,0,1,0,0,1.478h7.576a.739.739,0,1,0,0-1.478Z" transform="translate(-32.522 -26.808)" fill="#4b4a4c"/>
    <path id="Path_1227" data-name="Path 1227" d="M49.331,71.75H41.755a.739.739,0,1,0,0,1.478h7.576a.739.739,0,1,0,0-1.478Z" transform="translate(-19.143 -32.045)" fill="#4b4a4c"/>
    <path id="Path_1228" data-name="Path 1228" d="M74.721,71.75H67.145a.739.739,0,1,0,0,1.478h7.576a.739.739,0,1,0,0-1.478Z" transform="translate(-32.522 -32.045)" fill="#4b4a4c"/>
  </g>
</svg>
