<svg xmlns="http://www.w3.org/2000/svg" width="260" height="260" viewBox="0 0 260 260">
  <g id="Path_1361" data-name="Path 1361" fill="#fff">
    <path d="M 130 259.5 C 120.8980026245117 259.5 111.8105697631836 258.5505676269531 102.9900970458984 256.6780700683594 C 94.39589691162109 254.8536376953125 85.95936584472656 252.1333312988281 77.91480255126953 248.5927734375 C 70.01370239257812 245.1152954101562 62.41939926147461 240.8158721923828 55.34293365478516 235.8138275146484 C 48.32723236083984 230.8547973632812 41.76726531982422 225.1679382324219 35.84519958496094 218.9112396240234 C 30.37266731262207 213.1295013427734 25.40953254699707 206.8059997558594 21.0937328338623 200.1164398193359 C 16.73296737670898 193.3571624755859 12.99013328552246 186.1571655273438 9.969266891479492 178.7163696289062 C 6.89169979095459 171.1359405517578 4.528900146484375 163.2192687988281 2.946500062942505 155.1862945556641 C 1.32313334941864 146.9452362060547 0.5 138.4713287353516 0.5 130 C 0.5 121.213264465332 1.385200023651123 112.4321975708008 3.13100004196167 103.9007034301758 C 4.832366466522217 95.5863037109375 7.371066570281982 87.40796661376953 10.67653369903564 79.59293365478516 C 13.9220666885376 71.91963195800781 17.93919944763184 64.51866912841797 22.61626625061035 57.59566497802734 C 27.24900054931641 50.73833465576172 32.56940078735352 44.28993225097656 38.42966842651367 38.42966842651367 C 44.28993225097656 32.56940078735352 50.73833465576172 27.24900054931641 57.59566497802734 22.61626625061035 C 64.51866912841797 17.93919944763184 71.91963195800781 13.9220666885376 79.59293365478516 10.67653369903564 C 87.40796661376953 7.371066570281982 95.5863037109375 4.832366466522217 103.9007034301758 3.13100004196167 C 112.4321975708008 1.385200023651123 121.213264465332 0.5 130 0.5 C 138.7867279052734 0.5 147.5677947998047 1.385200023651123 156.0993041992188 3.13100004196167 C 164.4136962890625 4.832366466522217 172.5920257568359 7.371066570281982 180.4070739746094 10.67653369903564 C 188.0803680419922 13.9220666885376 195.4813385009766 17.93919944763184 202.4043273925781 22.61626625061035 C 209.2616729736328 27.24900054931641 215.7100677490234 32.56940078735352 221.5703277587891 38.42966842651367 C 227.4306030273438 44.28993225097656 232.7510070800781 50.73833465576172 237.3837280273438 57.59566497802734 C 242.0608062744141 64.51866912841797 246.0779266357422 71.91963195800781 249.3234710693359 79.59293365478516 C 252.6289367675781 87.40796661376953 255.1676330566406 95.5863037109375 256.8689880371094 103.9007034301758 C 258.6148071289062 112.4321975708008 259.5 121.213264465332 259.5 130 C 259.5 138.7867279052734 258.6148071289062 147.5677947998047 256.8689880371094 156.0993041992188 C 255.1676330566406 164.4136962890625 252.6289367675781 172.5920257568359 249.3234710693359 180.4070739746094 C 246.0779266357422 188.0803680419922 242.0608062744141 195.4813385009766 237.3837280273438 202.4043273925781 C 232.7510070800781 209.2616729736328 227.4306030273438 215.7100677490234 221.5703277587891 221.5703277587891 C 215.7100677490234 227.4306030273438 209.2616729736328 232.7510070800781 202.4043273925781 237.3837280273438 C 195.4813385009766 242.0608062744141 188.0803680419922 246.0779266357422 180.4070739746094 249.3234710693359 C 172.5920257568359 252.6289367675781 164.4136962890625 255.1676330566406 156.0993041992188 256.8689880371094 C 147.5677947998047 258.6148071289062 138.7867279052734 259.5 130 259.5 Z" stroke="none"/>
    <path d="M 130 1 C 121.2468719482422 1 112.4995269775391 1.88177490234375 104.0009307861328 3.620819091796875 C 95.7188720703125 5.315597534179688 87.57237243652344 7.844406127929688 79.78770446777344 11.13706970214844 C 72.14413452148438 14.3699951171875 64.77183532714844 18.37156677246094 57.87556457519531 23.03059387207031 C 51.04460144042969 27.64549255371094 44.62100219726562 32.94546508789062 38.78323364257812 38.78323364257812 C 32.94546508789062 44.62100219726562 27.64549255371094 51.04460144042969 23.03059387207031 57.87556457519531 C 18.37156677246094 64.77183532714844 14.3699951171875 72.14413452148438 11.13706970214844 79.78770446777344 C 7.844406127929688 87.57237243652344 5.315597534179688 95.7188720703125 3.620819091796875 104.0009307861328 C 1.88177490234375 112.4995269775391 1 121.2468719482422 1 130 C 1 138.43896484375 1.819976806640625 146.88037109375 3.43707275390625 155.0896606445312 C 5.0133056640625 163.0914306640625 7.366928100585938 170.9773254394531 10.43254089355469 178.5282897949219 C 13.44166564941406 185.9402008056641 17.16996765136719 193.1123046875 21.51387023925781 199.8453674316406 C 25.81300354003906 206.5090942382812 30.75692749023438 212.8081359863281 36.20832824707031 218.5675048828125 C 42.10780334472656 224.8003387451172 48.6427001953125 230.4654693603516 55.63153076171875 235.4055328369141 C 62.68074035644531 240.3882751464844 70.24566650390625 244.6711273193359 78.11622619628906 248.1351318359375 C 86.12947082519531 251.6618957519531 94.533203125 254.3716278076172 103.0939331054688 256.18896484375 C 111.8803405761719 258.0542297363281 120.9328308105469 259 130 259 C 138.7531433105469 259 147.5004577636719 258.1182250976562 155.9990692138672 256.3791809082031 C 164.2811279296875 254.6844024658203 172.4276428222656 252.1555938720703 180.2123107910156 248.8629302978516 C 187.8558654785156 245.6300048828125 195.2281646728516 241.6284332275391 202.1244354248047 236.9694061279297 C 208.9553985595703 232.3544921875 215.3789978027344 227.0545349121094 221.2167663574219 221.2167663574219 C 227.0545349121094 215.3789978027344 232.3544921875 208.9553985595703 236.9694061279297 202.1244354248047 C 241.6284332275391 195.2281646728516 245.6300048828125 187.8558654785156 248.8629302978516 180.2123107910156 C 252.1555938720703 172.4276428222656 254.6844024658203 164.2811279296875 256.3791809082031 155.9990692138672 C 258.1182250976562 147.5004577636719 259 138.7531433105469 259 130 C 259 121.2468719482422 258.1182250976562 112.4995269775391 256.3791809082031 104.0009307861328 C 254.6844024658203 95.7188720703125 252.1555938720703 87.57237243652344 248.8629302978516 79.78770446777344 C 245.6300048828125 72.14413452148438 241.6284332275391 64.77183532714844 236.9694061279297 57.87556457519531 C 232.3544921875 51.04460144042969 227.0545349121094 44.62100219726562 221.2167663574219 38.78323364257812 C 215.3789978027344 32.94546508789062 208.9553985595703 27.64549255371094 202.1244354248047 23.03059387207031 C 195.2281646728516 18.37156677246094 187.8558654785156 14.3699951171875 180.2123107910156 11.13706970214844 C 172.4276428222656 7.844406127929688 164.2811279296875 5.315597534179688 155.9990692138672 3.620819091796875 C 147.5004577636719 1.88177490234375 138.7531433105469 1 130 1 M 130 0 C 201.7969970703125 0 260 58.2030029296875 260 130 C 260 201.7969970703125 201.7969970703125 260 130 260 C 92.80912780761719 260 59.26589965820312 244.3827362060547 35.48207092285156 219.2549285888672 C 13.52192687988281 196.0541076660156 0 164.6061706542969 0 130 C 0 58.2030029296875 58.2030029296875 0 130 0 Z" stroke="none" fill="#ccc"/>
  </g>
  <g id="np_person_737678_CCCCCC" transform="translate(42.853 26.602)">
    <path id="Path_1315" data-name="Path 1315" d="M33.7,49.7A38.565,38.565,0,1,0,72.263,10.9,38.572,38.572,0,0,0,33.7,49.7Z" transform="translate(14.884 0)" fill="#ccc"/>
    <path id="Path_1316" data-name="Path 1316" d="M87.147,46.8A64.412,64.412,0,0,0,22.8,111.147v20.58c14.906,9.463,38.794,15.137,64.346,15.137s49.44-5.674,64.346-15.137v-20.58A64.412,64.412,0,0,0,87.147,46.8Z" transform="translate(0 49.034)" fill="#ccc"/>
  </g>
</svg>
