<svg xmlns="http://www.w3.org/2000/svg" width="44.274" height="37.797" viewBox="0 0 44.274 37.797">
  <g id="np_response_3146916_E3E7EA" transform="translate(-3.5 -10.306)">
    <path id="Path_1232" data-name="Path 1232" d="M44.347,43.723a13.279,13.279,0,0,0-9.854-22.183,13.511,13.511,0,0,0-4.428.762A13.315,13.315,0,0,0,3.5,23.585a13.109,13.109,0,0,0,3.427,8.9L3.738,35.677a.66.66,0,0,0-.143.762.806.806,0,0,0,.666.428H16.828a13.511,13.511,0,0,0,4.428-.762,13.325,13.325,0,0,0,13.235,12l12.569,0a.7.7,0,0,0,.523-1.19ZM5.929,35.44,8.4,32.965a.714.714,0,0,0,.19-.524,1.007,1.007,0,0,0-.19-.524,11.858,11.858,0,1,1,20.23-9.094,13.361,13.361,0,0,0-7.474,11.758,11.945,11.945,0,0,1-4.379.857ZM28.637,24.491a11.883,11.883,0,0,1-6,9.427A11.88,11.88,0,0,1,28.637,24.491Zm5.856,22.184A11.914,11.914,0,0,1,22.64,35.535a13.361,13.361,0,0,0,7.474-11.758,11.814,11.814,0,0,1,16.232,11,11.743,11.743,0,0,1-3.476,8.38.714.714,0,0,0-.19.524,1.007,1.007,0,0,0,.19.524l2.475,2.475Z" transform="translate(0 0)" fill="#4b4a4c"/>
    <path id="Path_1233" data-name="Path 1233" d="M67.5,56.64H61.737l1.333-.809a.727.727,0,1,0-.762-1.239l-3.476,2.142a.742.742,0,0,0,0,1.239l3.476,2.142a.515.515,0,0,0,.381.095.817.817,0,0,0,.619-.333.764.764,0,0,0-.238-1l-1.333-.809H67.5a.732.732,0,0,0,.714-.714.7.7,0,0,0-.716-.714Z" transform="translate(-28.816 -23.153)" fill="#4b4a4c"/>
    <path id="Path_1234" data-name="Path 1234" d="M30.577,35.673a.742.742,0,0,0,0-1.239L27.1,32.292a.727.727,0,1,0-.762,1.239l1.333.809H21.912a.714.714,0,1,0,0,1.428h5.761l-1.333.809a.752.752,0,0,0-.238,1,.694.694,0,0,0,.619.333,1.148,1.148,0,0,0,.381-.095Z" transform="translate(-9.273 -11.469)" fill="#4b4a4c"/>
  </g>
</svg>
