<svg xmlns="http://www.w3.org/2000/svg" width="25.262" height="25.262" viewBox="0 0 25.262 25.262">
  <g id="Layer_2_1_" transform="translate(0 0)">
    <g id="Layer_1-2" transform="translate(0 0)">
      <path id="Path_930" data-name="Path 930" d="M12.631,0A12.631,12.631,0,1,0,25.262,12.631,12.646,12.646,0,0,0,12.631,0Zm4.848,10.514v.273a6.7,6.7,0,0,1-6.691,6.691,6.266,6.266,0,0,1-3.619-1.092h.546a4.524,4.524,0,0,0,2.936-1.024,2.273,2.273,0,0,1-2.185-1.639c.137,0,.273.068.41.068a1.89,1.89,0,0,0,.614-.068A2.35,2.35,0,0,1,7.579,11.4h0a2,2,0,0,0,1.092.273A2.233,2.233,0,0,1,7.647,9.7a2.3,2.3,0,0,1,.341-1.161,6.388,6.388,0,0,0,4.848,2.458,1.5,1.5,0,0,1-.068-.546,2.361,2.361,0,0,1,2.321-2.39,2.479,2.479,0,0,1,1.775.751,5.643,5.643,0,0,0,1.5-.546,2.445,2.445,0,0,1-1.024,1.3,7.986,7.986,0,0,0,1.366-.341A4.529,4.529,0,0,1,17.479,10.514Z" fill="#fff"/>
    </g>
  </g>
</svg>
