<svg id="Layer_1-2" xmlns="http://www.w3.org/2000/svg" width="39.206" height="39.206" viewBox="0 0 39.206 39.206">
  <path id="Path_930" data-name="Path 930" d="M19.6,0a19.6,19.6,0,1,0,19.6,19.6A19.626,19.626,0,0,0,19.6,0Zm7.523,16.318v.424A10.4,10.4,0,0,1,16.742,27.126a9.724,9.724,0,0,1-5.616-1.7h.848a7.022,7.022,0,0,0,4.556-1.589A3.528,3.528,0,0,1,13.139,21.3c.212,0,.424.106.636.106a2.934,2.934,0,0,0,.954-.106,3.646,3.646,0,0,1-2.967-3.6h0a3.109,3.109,0,0,0,1.7.424,3.466,3.466,0,0,1-1.589-3.073,3.572,3.572,0,0,1,.53-1.8,9.913,9.913,0,0,0,7.523,3.815,2.333,2.333,0,0,1-.106-.848,3.664,3.664,0,0,1,3.6-3.709,3.848,3.848,0,0,1,2.755,1.166,8.757,8.757,0,0,0,2.331-.848,3.794,3.794,0,0,1-1.589,2.013,12.394,12.394,0,0,0,2.119-.53A7.03,7.03,0,0,1,27.126,16.318Z" fill="#3e3c3b"/>
</svg>
