<svg xmlns="http://www.w3.org/2000/svg" width="76.703" height="76.703" viewBox="0 0 76.703 76.703">
  <path id="iconmonstr-twitter-4" d="M38.351,0A38.351,38.351,0,1,0,76.7,38.351,38.353,38.353,0,0,0,38.351,0ZM57.738,30.825c.585,12.912-9.044,27.306-26.092,27.306A25.972,25.972,0,0,1,17.578,54a18.468,18.468,0,0,0,13.589-3.8,9.2,9.2,0,0,1-8.578-6.376,9.206,9.206,0,0,0,4.148-.157,9.193,9.193,0,0,1-7.363-9.118A9.157,9.157,0,0,0,23.532,35.7,9.193,9.193,0,0,1,20.69,23.445a26.056,26.056,0,0,0,18.92,9.591,9.187,9.187,0,0,1,15.644-8.373,18.31,18.31,0,0,0,5.829-2.228,9.217,9.217,0,0,1-4.036,5.078,18.312,18.312,0,0,0,5.27-1.448A18.425,18.425,0,0,1,57.738,30.825Z" fill="#1da1f2"/>
</svg>
