<svg xmlns="http://www.w3.org/2000/svg" width="41.188" height="37.008" viewBox="0 0 41.188 37.008">
  <g id="np_update_1830941_E3E7EA" transform="translate(-9.824 -13.89)">
    <path id="Path_1239" data-name="Path 1239" d="M16.216,29.1a17.416,17.416,0,0,1,.62-2.205c.06-.176.124-.344.2-.52.036-.084.07-.17.1-.254a.729.729,0,0,1,.056-.13c-.124.236-.016.036.01-.016.144-.34.3-.67.476-1A16.934,16.934,0,0,1,18.86,22.99l.3-.42c.056-.076.11-.144.164-.22.1-.14-.016.02-.03.04.044-.05.084-.11.13-.164.236-.3.484-.584.74-.871a17.9,17.9,0,0,1,1.645-1.591c.14-.12.284-.24.43-.356.036-.03.076-.056.11-.084.1-.084-.144.11-.036.03l.25-.19c.31-.23.63-.444.957-.656a17.678,17.678,0,0,1,2.085-1.137c.076-.036.15-.07.23-.1.03-.016.31-.136.176-.076s.15-.06.18-.076c.1-.04.2-.08.3-.12.384-.144.777-.28,1.171-.4a18.089,18.089,0,0,1,2.346-.536c.1-.016.19-.03.28-.04.064-.01.16-.056-.056,0a1.124,1.124,0,0,1,.14-.02c.2-.024.4-.044.6-.06q.576-.054,1.157-.06a17.32,17.32,0,0,1,2.278.1l.27.03c.11.016.076-.036-.06-.01a.743.743,0,0,1,.136.02c.19.03.38.06.57.1.37.064.736.144,1.1.236a17.361,17.361,0,0,1,2.125.676c.084.036.164.064.25.1.04.016.084.036.124.05.16.064-.03-.01-.056-.02.164.09.35.156.52.236.336.156.664.324.991.5a17.649,17.649,0,0,1,1.871,1.181c.144.1.3.2.43.32-.2-.176.01.01.06.05.084.07.176.14.26.21.284.236.56.48.831.736a17.488,17.488,0,0,1,1.521,1.631l.17.21c.03.036.056.07.084.1.084.1-.114-.15-.03-.04.114.156.23.31.344.466.22.3.424.62.624.941a17.741,17.741,0,0,1,1.071,2.011c.04.084.076.17.114.254a.531.531,0,0,1,.036.084c.076.184.144.37.216.556.136.364.26.736.37,1.111s.21.761.3,1.145a1.012,1.012,0,0,0,1.231.7,1.028,1.028,0,0,0,.7-1.231,18.592,18.592,0,0,0-36.012-.928c-.11.38-.2.765-.284,1.151a1,1,0,0,0,1.931.53Z" transform="translate(-2.163 0)" fill="#4b4a4c"/>
    <path id="Path_1240" data-name="Path 1240" d="M76.947,27.2q-1.117,3.2-2.237,6.4c-.1.3-.21.6-.316.907.41-.236.821-.466,1.231-.7l-6.4-2.237-.907-.316a1,1,0,0,0-1.231.7,1.028,1.028,0,0,0,.7,1.231l6.4,2.237.907.316a1.02,1.02,0,0,0,1.231-.7q1.117-3.2,2.237-6.4c.1-.3.21-.6.316-.907a1,1,0,0,0-.7-1.231A1.026,1.026,0,0,0,76.947,27.2Z" transform="translate(-27.911 -6.134)" fill="#4b4a4c"/>
    <path id="Path_1241" data-name="Path 1241" d="M49.226,55.752a17.416,17.416,0,0,1-.62,2.205c-.06.176-.124.344-.2.52-.036.084-.07.17-.1.254a.729.729,0,0,1-.056.13c.124-.236.016-.036-.01.016-.144.34-.3.67-.476,1a16.933,16.933,0,0,1-1.185,1.981l-.3.42c-.056.076-.11.144-.164.22-.1.14.016-.02.03-.04-.044.05-.084.11-.13.164-.236.3-.484.584-.74.871a17.9,17.9,0,0,1-1.645,1.591c-.14.12-.284.24-.43.356-.036.03-.076.056-.11.084-.1.084.144-.11.036-.03l-.25.19c-.31.23-.63.444-.957.656a17.679,17.679,0,0,1-2.085,1.137c-.076.036-.15.07-.23.1-.03.016-.31.136-.176.076s-.15.06-.18.076c-.1.04-.2.08-.3.12-.384.144-.777.28-1.171.4a18.09,18.09,0,0,1-2.346.536c-.1.016-.19.03-.28.04-.064.01-.16.056.056,0a1.123,1.123,0,0,1-.14.02c-.2.024-.4.044-.6.06q-.576.054-1.157.06a17.322,17.322,0,0,1-2.278-.1l-.27-.03c-.11-.016-.076.036.06.01a.744.744,0,0,1-.136-.02c-.19-.03-.38-.06-.57-.1-.37-.064-.736-.144-1.1-.236a17.361,17.361,0,0,1-2.125-.676c-.084-.036-.164-.064-.25-.1-.04-.016-.084-.036-.124-.05-.16-.064.03.01.056.02-.164-.09-.35-.156-.52-.236-.336-.156-.664-.324-.991-.5a17.648,17.648,0,0,1-1.871-1.181c-.144-.1-.3-.2-.43-.32.2.176-.01-.01-.06-.05-.084-.07-.176-.14-.26-.21-.284-.236-.56-.48-.831-.736a17.491,17.491,0,0,1-1.521-1.631l-.17-.21c-.03-.036-.056-.07-.084-.1-.084-.1.114.15.03.04-.114-.156-.23-.31-.344-.466-.22-.3-.424-.62-.624-.941a17.741,17.741,0,0,1-1.071-2.011c-.04-.084-.076-.17-.114-.254a.532.532,0,0,1-.036-.084c-.076-.184-.144-.37-.216-.556-.136-.364-.26-.736-.37-1.111s-.21-.761-.3-1.145a1.012,1.012,0,0,0-1.231-.7,1.028,1.028,0,0,0-.7,1.231,18.577,18.577,0,0,0,35.992.941c.11-.38.2-.765.284-1.151a1.018,1.018,0,0,0-.7-1.231.981.981,0,0,0-1.211.688Z" transform="translate(-2.443 -20.064)" fill="#4b4a4c"/>
    <path id="Path_1242" data-name="Path 1242" d="M11.8,63.939q1.117-3.2,2.237-6.4c.1-.3.21-.6.316-.907-.41.236-.821.466-1.231.7l6.4,2.237.907.316a1,1,0,0,0,1.231-.7,1.028,1.028,0,0,0-.7-1.231l-6.4-2.237-.907-.316a1.02,1.02,0,0,0-1.231.7q-1.117,3.2-2.237,6.4c-.1.3-.21.6-.316.907a1,1,0,0,0,.7,1.231,1.024,1.024,0,0,0,1.231-.7Z" transform="translate(0 -20.222)" fill="#4b4a4c"/>
  </g>
</svg>
