<svg xmlns="http://www.w3.org/2000/svg" width="39.212" height="39.206" viewBox="0 0 39.212 39.206">
  <path id="Exclusion_5" data-name="Exclusion 5" d="M16340.605,8700.208a19.549,19.549,0,1,1,7.631-1.54A19.5,19.5,0,0,1,16340.605,8700.208Zm-9.538-21.194v9.534a1.825,1.825,0,0,0,1.822,1.823h15.431a1.825,1.825,0,0,0,1.822-1.823v-9.534Zm1.822-6.812a1.825,1.825,0,0,0-1.822,1.823v4.081h19.075v-4.081a1.825,1.825,0,0,0-1.822-1.823h-2.259v1.938a1.363,1.363,0,1,1-1.814,0V8672.2h-7.275v1.93a1.363,1.363,0,1,1-2.263,1.022,1.353,1.353,0,0,1,.447-1.006V8672.2Zm12.265-1.358a.454.454,0,0,0-.456.451v3.859a.457.457,0,0,0,.456.456.449.449,0,0,0,.452-.456v-3.859A.452.452,0,0,0,16345.154,8670.844Zm-9.082,0a.449.449,0,0,0-.456.451v3.859a.454.454,0,1,0,.907,0v-3.859A.451.451,0,0,0,16336.072,8670.844Z" transform="translate(-16320.999 -8661.002)" fill="#3e3c3b"/>
</svg>
